<?xml version="1.0" standalone="no"?>
<!DOCTYPE svg PUBLIC "-//W3C//DTD SVG 1.1//EN" "http://www.w3.org/Graphics/SVG/1.1/DTD/svg11.dtd" >
<svg xmlns="http://www.w3.org/2000/svg" xmlns:xlink="http://www.w3.org/1999/xlink" version="1.1">
<metadata></metadata>
<defs>
<font id="american_purposeregular" horiz-adv-x="773" >
<font-face units-per-em="1000" ascent="750" descent="-250" />
<missing-glyph horiz-adv-x="200" />
<glyph unicode=" "  horiz-adv-x="200" />
<glyph unicode="&#x09;" horiz-adv-x="200" />
<glyph unicode="&#xa0;" horiz-adv-x="200" />
<glyph unicode="!" horiz-adv-x="233" d="M119 744q30 0 50.5 -10t29 -26.5t11 -29.5t2.5 -26q-3 -98 -22.5 -236.5t-21.5 -208.5h-99q-1 69 -20.5 208.5t-22.5 236.5q-1 12 2 25.5t11.5 29.5t29 26.5t50.5 10.5zM119 160q-37 0 -62.5 -26t-25.5 -62t26 -62.5t62 -26.5t62 26.5t26 62.5t-25.5 62t-62.5 26z" />
<glyph unicode="&#x22;" horiz-adv-x="328" d="M206 439l-18 302h115l-18 -302h-79zM44 439l-19 302h117l-20 -302h-78z" />
<glyph unicode="#" d="M386 3q-146 0 -249.5 104t-103.5 250t103.5 250t249.5 104t250 -104t104 -250t-104 -250t-250 -104zM386 51q127 0 216 90t89 216t-89 215.5t-216 89.5q-126 0 -216 -89.5t-90 -215.5t90 -216t216 -90zM386 72q-117 0 -201 83.5t-84 201.5q0 117 84 199.5t201 82.5 t200.5 -82.5t83.5 -199.5q0 -118 -83.5 -201.5t-200.5 -83.5zM386 116q53 0 93.5 32t66.5 75q-156 -41 -320 0q26 -43 66.5 -75t93.5 -32zM216 238q169 -39 341 0l54 86h-450zM349 357h76l-38 91zM294 427q3 -4 18.5 3.5t14.5 10.5q-7 14 -22 54t-27 58q-4 5 -19.5 -2.5 t-28 -18t-10.5 -13.5zM480 427l72 92q2 3 -10.5 13.5t-27.5 18t-19 2.5q-11 -14 -19 -33t-15 -42.5t-13 -36.5q-3 -2 9 -9q17 -10 23 -5zM645 12v38h-15v11h41v-11h-15v-38h-11zM676 12v49h15l9 -38l9 38h14v-49h-9v38l-10 -38h-9l-10 38v-38h-9z" />
<glyph unicode="$" horiz-adv-x="447" d="M28 160l102 72q7 -27 34 -47t55 -21q45 -4 61 33q10 25 -3 50t-48 40q-11 5 -42.5 18t-43 19t-36 19.5t-35 26t-24 31t-18.5 41.5t-5 51q0 159 153 175l-3 59h96l-3 -58q88 -4 141 -71l-91 -94q-6 27 -31 43.5t-53 16.5q-31 1 -53.5 -17t-21.5 -49q0 -21 9 -37.5 t27.5 -27.5t34 -18t40.5 -15.5t36 -12.5q118 -49 115 -166q-1 -64 -42 -111t-108 -49l4 -61h-96l3 59q-103 11 -154 101z" />
<glyph unicode="%" d="M386 3q-146 0 -249.5 104t-103.5 250t103.5 250t249.5 104t250 -104t104 -250t-104 -250t-250 -104zM386 51q127 0 216 90t89 216t-89 215.5t-216 89.5q-126 0 -216 -89.5t-90 -215.5t90 -216t216 -90zM386 72q-117 0 -201 83.5t-84 201.5q0 117 84 199.5t201 82.5 t200.5 -82.5t83.5 -199.5q0 -118 -83.5 -201.5t-200.5 -83.5zM386 116q53 0 93.5 32t66.5 75q-156 -41 -320 0q26 -43 66.5 -75t93.5 -32zM216 238q169 -39 341 0l54 86h-450zM349 357h76l-38 91zM294 427q3 -4 18.5 3.5t14.5 10.5q-7 14 -22 54t-27 58q-4 5 -19.5 -2.5 t-28 -18t-10.5 -13.5zM480 427l72 92q2 3 -10.5 13.5t-27.5 18t-19 2.5q-11 -14 -19 -33t-15 -42.5t-13 -36.5q-3 -2 9 -9q17 -10 23 -5zM645 12v38h-15v11h41v-11h-15v-38h-11zM676 12v49h15l9 -38l9 38h14v-49h-9v38l-10 -38h-9l-10 38v-38h-9z" />
<glyph unicode="&#x26;" horiz-adv-x="659" d="M299 450q36 8 59.5 35.5t24.5 61.5q2 33 -16 53.5t-49 20.5q-36 0 -52.5 -20.5t-14.5 -55.5q2 -28 15.5 -55.5t32.5 -39.5zM379 165q-63 55 -130 147q-35 -10 -54.5 -39.5t-18.5 -67.5q2 -42 29.5 -65.5t69.5 -23.5q31 0 60 12.5t44 36.5zM654 89l-91 -97q-48 42 -88 80 q-64 -71 -168 -83q-113 -14 -185 33q-71 50 -87 136q-16 83 22 153.5t116 100.5q-62 69 -56 161q6 88 67.5 133t147.5 39t131.5 -62t39.5 -145q-3 -61 -36.5 -99t-94.5 -67q35 -52 90 -104q27 33 56 76l105 -82q-29 -40 -64 -84q50 -50 95 -89z" />
<glyph unicode="'" horiz-adv-x="167" d="M44 439l-19 302h117l-20 -302h-78z" />
<glyph unicode="(" d="M386 3q-146 0 -249.5 104t-103.5 250t103.5 250t249.5 104t250 -104t104 -250t-104 -250t-250 -104zM386 51q127 0 216 90t89 216t-89 215.5t-216 89.5q-126 0 -216 -89.5t-90 -215.5t90 -216t216 -90zM386 72q-117 0 -201 83.5t-84 201.5q0 117 84 199.5t201 82.5 t200.5 -82.5t83.5 -199.5q0 -118 -83.5 -201.5t-200.5 -83.5zM386 116q53 0 93.5 32t66.5 75q-156 -41 -320 0q26 -43 66.5 -75t93.5 -32zM216 238q169 -39 341 0l54 86h-450zM349 357h76l-38 91zM294 427q3 -4 18.5 3.5t14.5 10.5q-7 14 -22 54t-27 58q-4 5 -19.5 -2.5 t-28 -18t-10.5 -13.5zM480 427l72 92q2 3 -10.5 13.5t-27.5 18t-19 2.5q-11 -14 -19 -33t-15 -42.5t-13 -36.5q-3 -2 9 -9q17 -10 23 -5zM645 12v38h-15v11h41v-11h-15v-38h-11zM676 12v49h15l9 -38l9 38h14v-49h-9v38l-10 -38h-9l-10 38v-38h-9z" />
<glyph unicode=")" d="M386 3q-146 0 -249.5 104t-103.5 250t103.5 250t249.5 104t250 -104t104 -250t-104 -250t-250 -104zM386 51q127 0 216 90t89 216t-89 215.5t-216 89.5q-126 0 -216 -89.5t-90 -215.5t90 -216t216 -90zM386 72q-117 0 -201 83.5t-84 201.5q0 117 84 199.5t201 82.5 t200.5 -82.5t83.5 -199.5q0 -118 -83.5 -201.5t-200.5 -83.5zM386 116q53 0 93.5 32t66.5 75q-156 -41 -320 0q26 -43 66.5 -75t93.5 -32zM216 238q169 -39 341 0l54 86h-450zM349 357h76l-38 91zM294 427q3 -4 18.5 3.5t14.5 10.5q-7 14 -22 54t-27 58q-4 5 -19.5 -2.5 t-28 -18t-10.5 -13.5zM480 427l72 92q2 3 -10.5 13.5t-27.5 18t-19 2.5q-11 -14 -19 -33t-15 -42.5t-13 -36.5q-3 -2 9 -9q17 -10 23 -5zM645 12v38h-15v11h41v-11h-15v-38h-11zM676 12v49h15l9 -38l9 38h14v-49h-9v38l-10 -38h-9l-10 38v-38h-9z" />
<glyph unicode="*" d="M386 3q-146 0 -249.5 104t-103.5 250t103.5 250t249.5 104t250 -104t104 -250t-104 -250t-250 -104zM386 51q127 0 216 90t89 216t-89 215.5t-216 89.5q-126 0 -216 -89.5t-90 -215.5t90 -216t216 -90zM386 72q-117 0 -201 83.5t-84 201.5q0 117 84 199.5t201 82.5 t200.5 -82.5t83.5 -199.5q0 -118 -83.5 -201.5t-200.5 -83.5zM386 116q53 0 93.5 32t66.5 75q-156 -41 -320 0q26 -43 66.5 -75t93.5 -32zM216 238q169 -39 341 0l54 86h-450zM349 357h76l-38 91zM294 427q3 -4 18.5 3.5t14.5 10.5q-7 14 -22 54t-27 58q-4 5 -19.5 -2.5 t-28 -18t-10.5 -13.5zM480 427l72 92q2 3 -10.5 13.5t-27.5 18t-19 2.5q-11 -14 -19 -33t-15 -42.5t-13 -36.5q-3 -2 9 -9q17 -10 23 -5zM645 12v38h-15v11h41v-11h-15v-38h-11zM676 12v49h15l9 -38l9 38h14v-49h-9v38l-10 -38h-9l-10 38v-38h-9z" />
<glyph unicode="+" d="M386 3q-146 0 -249.5 104t-103.5 250t103.5 250t249.5 104t250 -104t104 -250t-104 -250t-250 -104zM386 51q127 0 216 90t89 216t-89 215.5t-216 89.5q-126 0 -216 -89.5t-90 -215.5t90 -216t216 -90zM386 72q-117 0 -201 83.5t-84 201.5q0 117 84 199.5t201 82.5 t200.5 -82.5t83.5 -199.5q0 -118 -83.5 -201.5t-200.5 -83.5zM386 116q53 0 93.5 32t66.5 75q-156 -41 -320 0q26 -43 66.5 -75t93.5 -32zM216 238q169 -39 341 0l54 86h-450zM349 357h76l-38 91zM294 427q3 -4 18.5 3.5t14.5 10.5q-7 14 -22 54t-27 58q-4 5 -19.5 -2.5 t-28 -18t-10.5 -13.5zM480 427l72 92q2 3 -10.5 13.5t-27.5 18t-19 2.5q-11 -14 -19 -33t-15 -42.5t-13 -36.5q-3 -2 9 -9q17 -10 23 -5zM645 12v38h-15v11h41v-11h-15v-38h-11zM676 12v49h15l9 -38l9 38h14v-49h-9v38l-10 -38h-9l-10 38v-38h-9z" />
<glyph unicode="," horiz-adv-x="237" d="M118 160q36 0 62.5 -26t26.5 -63q0 -89 -80 -161h-29q18 21 24 55q3 20 -7 18q-40 0 -62.5 24t-22.5 64q0 39 25.5 64t62.5 25z" />
<glyph unicode="-" horiz-adv-x="317" d="M40 387h237v-131h-237v131z" />
<glyph unicode="." horiz-adv-x="236" d="M119 -17q-37 0 -63 25.5t-26 62.5t26 63t63 26q36 0 61.5 -26t25.5 -63t-25.5 -62.5t-61.5 -25.5z" />
<glyph unicode="/" d="M386 3q-146 0 -249.5 104t-103.5 250t103.5 250t249.5 104t250 -104t104 -250t-104 -250t-250 -104zM386 51q127 0 216 90t89 216t-89 215.5t-216 89.5q-126 0 -216 -89.5t-90 -215.5t90 -216t216 -90zM386 72q-117 0 -201 83.5t-84 201.5q0 117 84 199.5t201 82.5 t200.5 -82.5t83.5 -199.5q0 -118 -83.5 -201.5t-200.5 -83.5zM386 116q53 0 93.5 32t66.5 75q-156 -41 -320 0q26 -43 66.5 -75t93.5 -32zM216 238q169 -39 341 0l54 86h-450zM349 357h76l-38 91zM294 427q3 -4 18.5 3.5t14.5 10.5q-7 14 -22 54t-27 58q-4 5 -19.5 -2.5 t-28 -18t-10.5 -13.5zM480 427l72 92q2 3 -10.5 13.5t-27.5 18t-19 2.5q-11 -14 -19 -33t-15 -42.5t-13 -36.5q-3 -2 9 -9q17 -10 23 -5zM645 12v38h-15v11h41v-11h-15v-38h-11zM676 12v49h15l9 -38l9 38h14v-49h-9v38l-10 -38h-9l-10 38v-38h-9z" />
<glyph unicode="0" horiz-adv-x="594" d="M297 597q-53 0 -78.5 -54.5t-25.5 -176.5q0 -250 104 -250t104 250q0 122 -25.5 176.5t-78.5 54.5zM297 746q64 0 113.5 -23t79 -59.5t48.5 -88t26 -102t7 -107.5t-7 -107.5t-26 -102t-48.5 -88t-79 -59.5t-113.5 -23t-113.5 23t-79 59.5t-48.5 88t-26 102t-7 107.5 t7 107.5t26 102t48.5 88t79 59.5t113.5 23z" />
<glyph unicode="1" horiz-adv-x="298" d="M20 590l89 137h149v-727h-166v590h-72z" />
<glyph unicode="2" horiz-adv-x="493" d="M100 501l-85 158q96 89 234 88q75 -1 125.5 -27.5t71.5 -71.5t24 -104.5t-18 -126.5q-20 -72 -60.5 -136t-103.5 -139h172v-142h-406v113q82 73 125 129q2 3 14 18.5t16.5 21.5l16.5 22t18 25.5t15.5 25t16 27.5t13 27t10.5 29q9 30 10 58.5t-6.5 53.5t-31.5 38.5 t-61 9.5q-40 -4 -69.5 -31.5t-40.5 -65.5z" />
<glyph unicode="3" horiz-adv-x="480" d="M34 696q85 50 210 50q61 0 113.5 -27t72.5 -82q29 -71 6 -149t-90 -107q54 -15 84 -65.5t30 -112.5q0 -100 -50 -153q-60 -62 -190 -64q-121 0 -197 58l25 150q23 -34 63 -55t82 -21q46 0 75 23t28 69q-2 57 -34.5 77t-99.5 20h-73v120h39q39 0 71.5 7t59.5 31t28 63 t-22 58.5t-63 19.5q-37 0 -76 -19t-62 -46z" />
<glyph unicode="4" horiz-adv-x="533" d="M290 580l-121 -301h129v301h-8zM453 727v-448h57v-130h-57v-149h-155v149h-275v123l196 455h234z" />
<glyph unicode="5" horiz-adv-x="501" d="M415 590h-207l-18 -169q39 23 103 23q83 0 134 -56.5t53 -148.5q4 -119 -60.5 -183.5t-187.5 -69.5q-120 -2 -192 45l9 163q57 -88 154 -88q41 0 71.5 23.5t36.5 67.5q9 57 -17.5 91t-83.5 30q-58 -5 -105 -49l-77 33l52 425h335v-137z" />
<glyph unicode="6" horiz-adv-x="536" d="M451 703l-20 -183q-31 75 -97 75q-65 0 -104.5 -61t-37.5 -122q48 46 131 48q88 2 138 -54t54 -167q3 -77 -28 -139q-58 -114 -210 -114q-69 0 -120 28t-79 76.5t-41.5 107t-13.5 127.5q0 87 21 168t59 135q86 118 227 118q72 0 121 -43zM272 337q-46 0 -69 -31.5 t-23 -80.5q0 -45 22.5 -78t65.5 -34q49 -1 73 28t24 82q0 114 -93 114z" />
<glyph unicode="7" horiz-adv-x="461" d="M25 590v137h411v-107l-223 -620h-173l217 575v15h-232z" />
<glyph unicode="8" horiz-adv-x="542" d="M270 -14q-99 0 -164.5 42t-77.5 123q-12 76 10 139t86 87q-79 44 -77 164q2 98 61.5 152t161.5 53q103 1 163 -53t62 -152q2 -122 -75 -164q64 -24 85 -86.5t9 -139.5q-12 -81 -78 -123t-166 -42zM270 117q40 0 65 26.5t26 73.5q1 55 -25 82t-66 27q-39 0 -65 -27 t-25 -82q2 -47 26.5 -73.5t63.5 -26.5zM270 426q39 0 60.5 27.5t22.5 60.5q1 41 -20.5 68t-62.5 27q-39 0 -61 -28t-21 -68q1 -33 22.5 -60t59.5 -27z" />
<glyph unicode="9" horiz-adv-x="554" d="M233 109q78 0 110.5 59.5t18.5 132.5q-16 -39 -63 -60t-98 -16q-82 7 -128 66q-47 62 -49 176q-2 104 41 176q53 91 166 103q96 11 166.5 -28t103.5 -129q30 -85 30 -214q0 -384 -274 -389q-110 -2 -182 45l9 163q47 -85 149 -85zM275 359q45 3 68.5 42t21.5 85 q-2 52 -24.5 87t-66.5 35q-45 0 -69.5 -36t-26.5 -84q-2 -63 21.5 -97.5t75.5 -31.5z" />
<glyph unicode=":" horiz-adv-x="236" d="M117 -17q-36 0 -61.5 25.5t-25.5 62.5t25.5 63t61.5 26q37 0 63 -26t26 -63t-26 -62.5t-63 -25.5zM117 339q-36 0 -61.5 26t-25.5 63t25.5 62.5t61.5 25.5q37 0 63 -25.5t26 -62.5t-26 -63t-63 -26z" />
<glyph unicode=";" horiz-adv-x="237" d="M118 160q36 0 62.5 -26t26.5 -63q0 -88 -80 -161h-29q18 21 23 55q4 20 -6 18q-40 0 -62.5 24t-22.5 64q0 39 25.5 64t62.5 25zM118 516q36 0 62.5 -26t26.5 -62q0 -37 -26.5 -63t-62.5 -26q-37 0 -62.5 26t-25.5 63t25.5 62.5t62.5 25.5z" />
<glyph unicode="&#x3c;" d="M386 3q-146 0 -249.5 104t-103.5 250t103.5 250t249.5 104t250 -104t104 -250t-104 -250t-250 -104zM386 51q127 0 216 90t89 216t-89 215.5t-216 89.5q-126 0 -216 -89.5t-90 -215.5t90 -216t216 -90zM386 72q-117 0 -201 83.5t-84 201.5q0 117 84 199.5t201 82.5 t200.5 -82.5t83.5 -199.5q0 -118 -83.5 -201.5t-200.5 -83.5zM386 116q53 0 93.5 32t66.5 75q-156 -41 -320 0q26 -43 66.5 -75t93.5 -32zM216 238q169 -39 341 0l54 86h-450zM349 357h76l-38 91zM294 427q3 -4 18.5 3.5t14.5 10.5q-7 14 -22 54t-27 58q-4 5 -19.5 -2.5 t-28 -18t-10.5 -13.5zM480 427l72 92q2 3 -10.5 13.5t-27.5 18t-19 2.5q-11 -14 -19 -33t-15 -42.5t-13 -36.5q-3 -2 9 -9q17 -10 23 -5zM645 12v38h-15v11h41v-11h-15v-38h-11zM676 12v49h15l9 -38l9 38h14v-49h-9v38l-10 -38h-9l-10 38v-38h-9z" />
<glyph unicode="=" d="M386 3q-146 0 -249.5 104t-103.5 250t103.5 250t249.5 104t250 -104t104 -250t-104 -250t-250 -104zM386 51q127 0 216 90t89 216t-89 215.5t-216 89.5q-126 0 -216 -89.5t-90 -215.5t90 -216t216 -90zM386 72q-117 0 -201 83.5t-84 201.5q0 117 84 199.5t201 82.5 t200.5 -82.5t83.5 -199.5q0 -118 -83.5 -201.5t-200.5 -83.5zM386 116q53 0 93.5 32t66.5 75q-156 -41 -320 0q26 -43 66.5 -75t93.5 -32zM216 238q169 -39 341 0l54 86h-450zM349 357h76l-38 91zM294 427q3 -4 18.5 3.5t14.5 10.5q-7 14 -22 54t-27 58q-4 5 -19.5 -2.5 t-28 -18t-10.5 -13.5zM480 427l72 92q2 3 -10.5 13.5t-27.5 18t-19 2.5q-11 -14 -19 -33t-15 -42.5t-13 -36.5q-3 -2 9 -9q17 -10 23 -5zM645 12v38h-15v11h41v-11h-15v-38h-11zM676 12v49h15l9 -38l9 38h14v-49h-9v38l-10 -38h-9l-10 38v-38h-9z" />
<glyph unicode="&#x3e;" d="M386 3q-146 0 -249.5 104t-103.5 250t103.5 250t249.5 104t250 -104t104 -250t-104 -250t-250 -104zM386 51q127 0 216 90t89 216t-89 215.5t-216 89.5q-126 0 -216 -89.5t-90 -215.5t90 -216t216 -90zM386 72q-117 0 -201 83.5t-84 201.5q0 117 84 199.5t201 82.5 t200.5 -82.5t83.5 -199.5q0 -118 -83.5 -201.5t-200.5 -83.5zM386 116q53 0 93.5 32t66.5 75q-156 -41 -320 0q26 -43 66.5 -75t93.5 -32zM216 238q169 -39 341 0l54 86h-450zM349 357h76l-38 91zM294 427q3 -4 18.5 3.5t14.5 10.5q-7 14 -22 54t-27 58q-4 5 -19.5 -2.5 t-28 -18t-10.5 -13.5zM480 427l72 92q2 3 -10.5 13.5t-27.5 18t-19 2.5q-11 -14 -19 -33t-15 -42.5t-13 -36.5q-3 -2 9 -9q17 -10 23 -5zM645 12v38h-15v11h41v-11h-15v-38h-11zM676 12v49h15l9 -38l9 38h14v-49h-9v38l-10 -38h-9l-10 38v-38h-9z" />
<glyph unicode="?" horiz-adv-x="473" d="M260 207h-115q-8 76 24 129q12 21 45 51t55.5 61.5t22.5 70.5q0 33 -20.5 53t-57.5 20q-73 0 -133 -74l-61 154q90 75 217 72q97 -4 156 -53.5t60 -138.5q0 -129 -94 -199q-59 -44 -73 -60q-32 -36 -26 -86zM203 160q37 0 62.5 -26t25.5 -62t-26 -62.5t-62 -26.5 t-61.5 26.5t-25.5 62.5t25.5 62t61.5 26z" />
<glyph unicode="@" horiz-adv-x="808" d="M558 134q-34 0 -54 18.5t-21 48.5q-17 -37 -53 -54.5t-77 -17.5q-52 0 -86.5 26t-47.5 67.5t-12.5 89t14.5 92.5q25 78 75 118.5t112 38.5q51 0 76 -37l4 30l116 -12l-52 -305q-6 -35 18 -33q25 2 52 31q51 52 51 184q0 94 -30 138q-37 57 -141 72q-81 12 -159.5 -5.5 t-121.5 -73.5q-57 -73 -73.5 -176.5t15.5 -191.5q50 -130 253 -130q165 0 245 91l11 -54q-44 -50 -121 -76.5t-166 -28.5q-146 -2 -236 53q-49 30 -79 84.5t-38 117.5t-4.5 124t18.5 115q23 81 73.5 141t115.5 88q74 32 172.5 37.5t173.5 -15.5q64 -17 112.5 -56t70.5 -94 q22 -63 18 -140t-28 -139q-23 -61 -80.5 -113.5t-115.5 -52.5zM330 270q10 -48 50 -48q34 0 47.5 16t19.5 51l25 165q-8 28 -42 28q-24 0 -45 -16q-31 -24 -47 -90t-8 -106z" />
<glyph unicode="A" horiz-adv-x="542" d="M345 138h-145l-15 -138h-170l129 727h254l129 -727h-165zM285 589h-25l-40 -319h107z" />
<glyph unicode="B" horiz-adv-x="548" d="M196 320v-184q75 -17 112 5.5t36 80.5q-1 67 -39 87t-109 11zM196 595v-163q38 -3 66.5 -1t45 23t16.5 65q0 110 -128 76zM40 0v727q22 1 96 8.5t117 7.5q117 0 168 -44q62 -54 62 -152q0 -51 -26 -92.5t-75 -59.5q72 -12 109.5 -62t35.5 -127q0 -108 -77 -168 q-66 -51 -225 -42q-13 1 -35.5 2.5t-41 2.5t-34.5 1q-26 0 -74 -2z" />
<glyph unicode="C" horiz-adv-x="464" d="M418 517q-39 75 -97 75q-44 -1 -75.5 -41.5t-44 -93.5t-11.5 -108q0 -88 27.5 -154.5t84.5 -73.5q26 -3 59.5 13t60.5 55l4 -170q-61 -33 -126 -33q-134 -1 -204 101t-72 273q-2 78 14 145.5t49.5 122.5t92.5 86.5t137 31.5q75 0 122 -43z" />
<glyph unicode="D" horiz-adv-x="541" d="M196 131q41 -13 76.5 -3.5t48.5 36.5q39 91 28 284q-6 103 -47.5 135.5t-105.5 8.5v-461zM40 0v727q17 1 93 9t133 7q69 -1 127.5 -33t86.5 -92q35 -76 36 -239.5t-32 -240.5q-36 -90 -96 -119t-163 -23q-76 6 -111 6q-26 0 -74 -2z" />
<glyph unicode="E" horiz-adv-x="393" d="M368 0h-328v727h328v-137h-168v-159h160v-130h-160v-159h168v-142z" />
<glyph unicode="F" horiz-adv-x="404" d="M40 0v727h339v-137h-180v-159h172v-130h-172v-301h-159z" />
<glyph unicode="G" horiz-adv-x="560" d="M485 700l-28 -183q-31 70 -96 77q-41 4 -72.5 -10.5t-50 -44.5t-29 -62t-16.5 -72q-3 -23 -3 -63t6 -92.5t30 -90t64 -38.5q32 -1 53 18.5t27.5 48.5t9 61.5t-2.5 56.5h-69v129h219q7 -84 8 -142t-12.5 -127t-46.5 -111q-67 -78 -208 -68q-70 5 -120.5 39t-76.5 89.5 t-37 116t-11 133.5q0 159 70 265q80 116 236 116q94 0 156 -46z" />
<glyph unicode="H" horiz-adv-x="526" d="M35 0v727h162v-291h132v291h162v-727h-162v306h-132v-306h-162z" />
<glyph unicode="I" horiz-adv-x="249" d="M43 0v727h163v-727h-163z" />
<glyph unicode="J" horiz-adv-x="429" d="M229 188v539h160v-557q0 -97 -61.5 -140.5t-157.5 -43.5q-92 0 -150 38l4 157q51 -71 123 -71q39 0 60 15.5t22 62.5z" />
<glyph unicode="K" horiz-adv-x="524" d="M202 466l137 261h175l-159 -295l152 -432h-175l-96 288l-34 -68v-220h-162v727h162v-261z" />
<glyph unicode="L" horiz-adv-x="402" d="M375 0h-335v727h158v-585h177v-142z" />
<glyph unicode="M" horiz-adv-x="619" d="M421 349l-111 -314l-112 314v-349h-158v727h167l103 -327l102 327h167v-727h-158v349z" />
<glyph unicode="N" horiz-adv-x="522" d="M196 0h-156v727h135l153 -357v357h154v-727h-128l-158 356v-356z" />
<glyph unicode="O" horiz-adv-x="607" d="M304 597q-33 -2 -56 -24t-34.5 -58t-16.5 -73t-5 -78q0 -42 5 -81t16.5 -78t34.5 -63.5t56 -25.5q32 1 55.5 25.5t34.5 63.5t16 78t5 81q0 41 -5 78t-16.5 73t-34.5 58t-55 24zM304 -14q-77 0 -133.5 32.5t-87 89t-44.5 120.5t-15 138q0 73 14.5 137t45.5 120.5 t87.5 89.5t132.5 33t132 -33t87 -89.5t45 -120.5t14 -137q0 -74 -14 -138t-44.5 -120.5t-86.5 -89t-133 -32.5z" />
<glyph unicode="P" horiz-adv-x="521" d="M196 0h-156v727q19 0 93.5 8t131.5 8q67 0 121.5 -33t81.5 -94q33 -81 32.5 -169.5t-28.5 -150.5q-38 -85 -114.5 -115t-161.5 7v-188zM196 598v-269q23 -29 68 -21q34 8 55.5 47.5t20.5 101.5q-5 188 -144 141z" />
<glyph unicode="Q" horiz-adv-x="619" d="M289 -13q-59 2 -105 25.5t-75.5 60t-49 86t-27.5 101t-8 107.5q0 58 9 111t30 102.5t53 85.5t81.5 58t111.5 22q63 0 112.5 -22t81.5 -58.5t53 -86.5t29.5 -103t8.5 -111q-1 -129 -46.5 -229t-143.5 -136q7 -25 7 -57q-1 -47 -36 -74t-83 -27q-38 -1 -73.5 17t-50.5 47 l47 63q16 -28 49 -26q31 3 25 44zM425 284q-14 2 -30 -3t-24 -16q-13 -24 -12.5 -60.5t10.5 -75.5q23 27 39 73.5t17 81.5zM263 117q-15 46 -11.5 107t31.5 97q22 29 65.5 39t80.5 3v1q1 57 -9 105.5t-39 87t-73 40.5q-43 -2 -71 -40t-37.5 -86.5t-9.5 -105.5 q0 -176 73 -248z" />
<glyph unicode="R" horiz-adv-x="512" d="M370 235l121 -235h-171l-107 224h-17v-224h-156v727q18 0 88.5 8t95.5 8q98 0 150 -27q124 -63 117 -275q-14 -168 -121 -206zM196 343q67 -25 103 16t36 116q0 53 -21 91t-67 38q-26 0 -51 -5v-256z" />
<glyph unicode="S" horiz-adv-x="458" d="M60 31l10 161q24 -42 70 -66t86.5 -16t48.5 50q10 66 -43 103q-22 15 -69.5 32t-80 40.5t-48.5 68.5q-17 57 -13 114t20 92q29 65 89 102.5t150 33.5q27 -1 61 -12t56 -29l-23 -187q-33 70 -96 72q-42 0 -67.5 -25t-28.5 -67q-3 -37 14 -59.5t54 -38.5q89 -37 118 -59 q58 -45 68 -137q8 -85 -30 -143q-49 -75 -171 -75q-46 0 -95.5 12.5t-79.5 32.5z" />
<glyph unicode="T" horiz-adv-x="489" d="M166 590h-146l11 137h425l13 -137h-139v-590h-164v590z" />
<glyph unicode="U" horiz-adv-x="540" d="M270 -14q-230 0 -230 214v527h160v-518q0 -23 2 -35.5t8.5 -26.5t21 -20t38.5 -6t38.5 6t21 20t8.5 26.5t2 35.5v518h160v-527q0 -214 -230 -214z" />
<glyph unicode="V" horiz-adv-x="532" d="M267 162l7 61l76 504h167l-151 -727h-199l-152 727h168l76 -504z" />
<glyph unicode="W" horiz-adv-x="721" d="M301 727h119l72 -432l47 432h167l-133 -727h-149l-64 403l-63 -403h-150l-132 727h165l48 -432z" />
<glyph unicode="X" horiz-adv-x="530" d="M344 0l-79 261l-79 -261h-174l145 375l-138 352h169l77 -252l77 252h169l-138 -352l145 -375h-174z" />
<glyph unicode="Y" horiz-adv-x="573" d="M205 235l-193 492h177l98 -316l96 316h178l-195 -492v-235h-161v235z" />
<glyph unicode="Z" horiz-adv-x="456" d="M43 590v137h388v-104l-211 -481h177v-142h-372v92l225 498h-207z" />
<glyph unicode="[" d="M386 3q-146 0 -249.5 104t-103.5 250t103.5 250t249.5 104t250 -104t104 -250t-104 -250t-250 -104zM386 51q127 0 216 90t89 216t-89 215.5t-216 89.5q-126 0 -216 -89.5t-90 -215.5t90 -216t216 -90zM386 72q-117 0 -201 83.5t-84 201.5q0 117 84 199.5t201 82.5 t200.5 -82.5t83.5 -199.5q0 -118 -83.5 -201.5t-200.5 -83.5zM386 116q53 0 93.5 32t66.5 75q-156 -41 -320 0q26 -43 66.5 -75t93.5 -32zM216 238q169 -39 341 0l54 86h-450zM349 357h76l-38 91zM294 427q3 -4 18.5 3.5t14.5 10.5q-7 14 -22 54t-27 58q-4 5 -19.5 -2.5 t-28 -18t-10.5 -13.5zM480 427l72 92q2 3 -10.5 13.5t-27.5 18t-19 2.5q-11 -14 -19 -33t-15 -42.5t-13 -36.5q-3 -2 9 -9q17 -10 23 -5zM645 12v38h-15v11h41v-11h-15v-38h-11zM676 12v49h15l9 -38l9 38h14v-49h-9v38l-10 -38h-9l-10 38v-38h-9z" />
<glyph unicode="\" d="M386 3q-146 0 -249.5 104t-103.5 250t103.5 250t249.5 104t250 -104t104 -250t-104 -250t-250 -104zM386 51q127 0 216 90t89 216t-89 215.5t-216 89.5q-126 0 -216 -89.5t-90 -215.5t90 -216t216 -90zM386 72q-117 0 -201 83.5t-84 201.5q0 117 84 199.5t201 82.5 t200.5 -82.5t83.5 -199.5q0 -118 -83.5 -201.5t-200.5 -83.5zM386 116q53 0 93.5 32t66.5 75q-156 -41 -320 0q26 -43 66.5 -75t93.5 -32zM216 238q169 -39 341 0l54 86h-450zM349 357h76l-38 91zM294 427q3 -4 18.5 3.5t14.5 10.5q-7 14 -22 54t-27 58q-4 5 -19.5 -2.5 t-28 -18t-10.5 -13.5zM480 427l72 92q2 3 -10.5 13.5t-27.5 18t-19 2.5q-11 -14 -19 -33t-15 -42.5t-13 -36.5q-3 -2 9 -9q17 -10 23 -5zM645 12v38h-15v11h41v-11h-15v-38h-11zM676 12v49h15l9 -38l9 38h14v-49h-9v38l-10 -38h-9l-10 38v-38h-9z" />
<glyph unicode="]" d="M386 3q-146 0 -249.5 104t-103.5 250t103.5 250t249.5 104t250 -104t104 -250t-104 -250t-250 -104zM386 51q127 0 216 90t89 216t-89 215.5t-216 89.5q-126 0 -216 -89.5t-90 -215.5t90 -216t216 -90zM386 72q-117 0 -201 83.5t-84 201.5q0 117 84 199.5t201 82.5 t200.5 -82.5t83.5 -199.5q0 -118 -83.5 -201.5t-200.5 -83.5zM386 116q53 0 93.5 32t66.5 75q-156 -41 -320 0q26 -43 66.5 -75t93.5 -32zM216 238q169 -39 341 0l54 86h-450zM349 357h76l-38 91zM294 427q3 -4 18.5 3.5t14.5 10.5q-7 14 -22 54t-27 58q-4 5 -19.5 -2.5 t-28 -18t-10.5 -13.5zM480 427l72 92q2 3 -10.5 13.5t-27.5 18t-19 2.5q-11 -14 -19 -33t-15 -42.5t-13 -36.5q-3 -2 9 -9q17 -10 23 -5zM645 12v38h-15v11h41v-11h-15v-38h-11zM676 12v49h15l9 -38l9 38h14v-49h-9v38l-10 -38h-9l-10 38v-38h-9z" />
<glyph unicode="^" d="M386 3q-146 0 -249.5 104t-103.5 250t103.5 250t249.5 104t250 -104t104 -250t-104 -250t-250 -104zM386 51q127 0 216 90t89 216t-89 215.5t-216 89.5q-126 0 -216 -89.5t-90 -215.5t90 -216t216 -90zM386 72q-117 0 -201 83.5t-84 201.5q0 117 84 199.5t201 82.5 t200.5 -82.5t83.5 -199.5q0 -118 -83.5 -201.5t-200.5 -83.5zM386 116q53 0 93.5 32t66.5 75q-156 -41 -320 0q26 -43 66.5 -75t93.5 -32zM216 238q169 -39 341 0l54 86h-450zM349 357h76l-38 91zM294 427q3 -4 18.5 3.5t14.5 10.5q-7 14 -22 54t-27 58q-4 5 -19.5 -2.5 t-28 -18t-10.5 -13.5zM480 427l72 92q2 3 -10.5 13.5t-27.5 18t-19 2.5q-11 -14 -19 -33t-15 -42.5t-13 -36.5q-3 -2 9 -9q17 -10 23 -5zM645 12v38h-15v11h41v-11h-15v-38h-11zM676 12v49h15l9 -38l9 38h14v-49h-9v38l-10 -38h-9l-10 38v-38h-9z" />
<glyph unicode="_" horiz-adv-x="367" d="M337 -17v-114h-307v114h307z" />
<glyph unicode="`" d="M386 3q-146 0 -249.5 104t-103.5 250t103.5 250t249.5 104t250 -104t104 -250t-104 -250t-250 -104zM386 51q127 0 216 90t89 216t-89 215.5t-216 89.5q-126 0 -216 -89.5t-90 -215.5t90 -216t216 -90zM386 72q-117 0 -201 83.5t-84 201.5q0 117 84 199.5t201 82.5 t200.5 -82.5t83.5 -199.5q0 -118 -83.5 -201.5t-200.5 -83.5zM386 116q53 0 93.5 32t66.5 75q-156 -41 -320 0q26 -43 66.5 -75t93.5 -32zM216 238q169 -39 341 0l54 86h-450zM349 357h76l-38 91zM294 427q3 -4 18.5 3.5t14.5 10.5q-7 14 -22 54t-27 58q-4 5 -19.5 -2.5 t-28 -18t-10.5 -13.5zM480 427l72 92q2 3 -10.5 13.5t-27.5 18t-19 2.5q-11 -14 -19 -33t-15 -42.5t-13 -36.5q-3 -2 9 -9q17 -10 23 -5zM645 12v38h-15v11h41v-11h-15v-38h-11zM676 12v49h15l9 -38l9 38h14v-49h-9v38l-10 -38h-9l-10 38v-38h-9z" />
<glyph unicode="a" horiz-adv-x="542" d="M345 138h-145l-15 -138h-170l129 727h254l129 -727h-165zM285 589h-25l-40 -319h107z" />
<glyph unicode="b" horiz-adv-x="548" d="M196 320v-184q75 -17 112 5.5t36 80.5q-1 67 -39 87t-109 11zM196 595v-163q38 -3 66.5 -1t45 23t16.5 65q0 110 -128 76zM40 0v727q22 1 96 8.5t117 7.5q117 0 168 -44q62 -54 62 -152q0 -51 -26 -92.5t-75 -59.5q72 -12 109.5 -62t35.5 -127q0 -108 -77 -168 q-66 -51 -225 -42q-13 1 -35.5 2.5t-41 2.5t-34.5 1q-26 0 -74 -2z" />
<glyph unicode="c" horiz-adv-x="464" d="M418 517q-39 75 -97 75q-44 -1 -75.5 -41.5t-44 -93.5t-11.5 -108q0 -88 27.5 -154.5t84.5 -73.5q26 -3 59.5 13t60.5 55l4 -170q-61 -33 -126 -33q-134 -1 -204 101t-72 273q-2 78 14 145.5t49.5 122.5t92.5 86.5t137 31.5q75 0 122 -43z" />
<glyph unicode="d" horiz-adv-x="541" d="M196 131q41 -13 76.5 -3.5t48.5 36.5q39 91 28 284q-6 103 -47.5 135.5t-105.5 8.5v-461zM40 0v727q17 1 93 9t133 7q69 -1 127.5 -33t86.5 -92q35 -76 36 -239.5t-32 -240.5q-36 -90 -96 -119t-163 -23q-76 6 -111 6q-26 0 -74 -2z" />
<glyph unicode="e" horiz-adv-x="393" d="M368 0h-328v727h328v-137h-168v-159h160v-130h-160v-159h168v-142z" />
<glyph unicode="f" horiz-adv-x="404" d="M40 0v727h339v-137h-180v-159h172v-130h-172v-301h-159z" />
<glyph unicode="g" horiz-adv-x="560" d="M485 700l-28 -183q-31 70 -96 77q-41 4 -72.5 -10.5t-50 -44.5t-29 -62t-16.5 -72q-3 -23 -3 -63t6 -92.5t30 -90t64 -38.5q32 -1 53 18.5t27.5 48.5t9 61.5t-2.5 56.5h-69v129h219q7 -84 8 -142t-12.5 -127t-46.5 -111q-67 -78 -208 -68q-70 5 -120.5 39t-76.5 89.5 t-37 116t-11 133.5q0 159 70 265q80 116 236 116q94 0 156 -46z" />
<glyph unicode="h" horiz-adv-x="526" d="M35 0v727h162v-291h132v291h162v-727h-162v306h-132v-306h-162z" />
<glyph unicode="i" horiz-adv-x="249" d="M43 0v727h163v-727h-163z" />
<glyph unicode="j" horiz-adv-x="429" d="M229 188v539h160v-557q0 -97 -61.5 -140.5t-157.5 -43.5q-92 0 -150 38l4 157q51 -71 123 -71q39 0 60 15.5t22 62.5z" />
<glyph unicode="k" horiz-adv-x="524" d="M202 466l137 261h175l-159 -295l152 -432h-175l-96 288l-34 -68v-220h-162v727h162v-261z" />
<glyph unicode="l" horiz-adv-x="402" d="M375 0h-335v727h158v-585h177v-142z" />
<glyph unicode="m" horiz-adv-x="619" d="M421 349l-111 -314l-112 314v-349h-158v727h167l103 -327l102 327h167v-727h-158v349z" />
<glyph unicode="n" horiz-adv-x="522" d="M196 0h-156v727h135l153 -357v357h154v-727h-128l-158 356v-356z" />
<glyph unicode="o" horiz-adv-x="607" d="M304 597q-33 -2 -56 -24t-34.5 -58t-16.5 -73t-5 -78q0 -42 5 -81t16.5 -78t34.5 -63.5t56 -25.5q32 1 55.5 25.5t34.5 63.5t16 78t5 81q0 41 -5 78t-16.5 73t-34.5 58t-55 24zM304 -14q-77 0 -133.5 32.5t-87 89t-44.5 120.5t-15 138q0 73 14.5 137t45.5 120.5 t87.5 89.5t132.5 33t132 -33t87 -89.5t45 -120.5t14 -137q0 -74 -14 -138t-44.5 -120.5t-86.5 -89t-133 -32.5z" />
<glyph unicode="p" horiz-adv-x="521" d="M196 0h-156v727q19 0 93.5 8t131.5 8q67 0 121.5 -33t81.5 -94q33 -81 32.5 -169.5t-28.5 -150.5q-38 -85 -114.5 -115t-161.5 7v-188zM196 598v-269q23 -29 68 -21q34 8 55.5 47.5t20.5 101.5q-5 188 -144 141z" />
<glyph unicode="q" horiz-adv-x="619" d="M289 -13q-59 2 -105 25.5t-75.5 60t-49 86t-27.5 101t-8 107.5q0 58 9 111t30 102.5t53 85.5t81.5 58t111.5 22q63 0 112.5 -22t81.5 -58.5t53 -86.5t29.5 -103t8.5 -111q-1 -129 -46.5 -229t-143.5 -136q7 -25 7 -57q-1 -47 -36 -74t-83 -27q-38 -1 -73.5 17t-50.5 47 l47 63q16 -28 49 -26q31 3 25 44zM425 284q-14 2 -30 -3t-24 -16q-13 -24 -12.5 -60.5t10.5 -75.5q23 27 39 73.5t17 81.5zM263 117q-15 46 -11.5 107t31.5 97q22 29 65.5 39t80.5 3v1q1 57 -9 105.5t-39 87t-73 40.5q-43 -2 -71 -40t-37.5 -86.5t-9.5 -105.5 q0 -176 73 -248z" />
<glyph unicode="r" horiz-adv-x="512" d="M370 235l121 -235h-171l-107 224h-17v-224h-156v727q18 0 88.5 8t95.5 8q98 0 150 -27q124 -63 117 -275q-14 -168 -121 -206zM196 343q67 -25 103 16t36 116q0 53 -21 91t-67 38q-26 0 -51 -5v-256z" />
<glyph unicode="s" horiz-adv-x="458" d="M60 31l10 161q24 -42 70 -66t86.5 -16t48.5 50q10 66 -43 103q-22 15 -69.5 32t-80 40.5t-48.5 68.5q-17 57 -13 114t20 92q29 65 89 102.5t150 33.5q27 -1 61 -12t56 -29l-23 -187q-33 70 -96 72q-42 0 -67.5 -25t-28.5 -67q-3 -37 14 -59.5t54 -38.5q89 -37 118 -59 q58 -45 68 -137q8 -85 -30 -143q-49 -75 -171 -75q-46 0 -95.5 12.5t-79.5 32.5z" />
<glyph unicode="t" horiz-adv-x="489" d="M166 590h-146l11 137h425l13 -137h-139v-590h-164v590z" />
<glyph unicode="u" horiz-adv-x="540" d="M270 -14q-230 0 -230 214v527h160v-518q0 -23 2 -35.5t8.5 -26.5t21 -20t38.5 -6t38.5 6t21 20t8.5 26.5t2 35.5v518h160v-527q0 -214 -230 -214z" />
<glyph unicode="v" horiz-adv-x="532" d="M267 162l7 61l76 504h167l-151 -727h-199l-152 727h168l76 -504z" />
<glyph unicode="w" horiz-adv-x="721" d="M301 727h119l72 -432l47 432h167l-133 -727h-149l-64 403l-63 -403h-150l-132 727h165l48 -432z" />
<glyph unicode="x" horiz-adv-x="530" d="M344 0l-79 261l-79 -261h-174l145 375l-138 352h169l77 -252l77 252h169l-138 -352l145 -375h-174z" />
<glyph unicode="y" horiz-adv-x="573" d="M205 235l-193 492h177l98 -316l96 316h178l-195 -492v-235h-161v235z" />
<glyph unicode="z" horiz-adv-x="456" d="M43 590v137h388v-104l-211 -481h177v-142h-372v92l225 498h-207z" />
<glyph unicode="{" d="M386 3q-146 0 -249.5 104t-103.5 250t103.5 250t249.5 104t250 -104t104 -250t-104 -250t-250 -104zM386 51q127 0 216 90t89 216t-89 215.5t-216 89.5q-126 0 -216 -89.5t-90 -215.5t90 -216t216 -90zM386 72q-117 0 -201 83.5t-84 201.5q0 117 84 199.5t201 82.5 t200.5 -82.5t83.5 -199.5q0 -118 -83.5 -201.5t-200.5 -83.5zM386 116q53 0 93.5 32t66.5 75q-156 -41 -320 0q26 -43 66.5 -75t93.5 -32zM216 238q169 -39 341 0l54 86h-450zM349 357h76l-38 91zM294 427q3 -4 18.5 3.5t14.5 10.5q-7 14 -22 54t-27 58q-4 5 -19.5 -2.5 t-28 -18t-10.5 -13.5zM480 427l72 92q2 3 -10.5 13.5t-27.5 18t-19 2.5q-11 -14 -19 -33t-15 -42.5t-13 -36.5q-3 -2 9 -9q17 -10 23 -5zM645 12v38h-15v11h41v-11h-15v-38h-11zM676 12v49h15l9 -38l9 38h14v-49h-9v38l-10 -38h-9l-10 38v-38h-9z" />
<glyph unicode="|" d="M386 3q-146 0 -249.5 104t-103.5 250t103.5 250t249.5 104t250 -104t104 -250t-104 -250t-250 -104zM386 51q127 0 216 90t89 216t-89 215.5t-216 89.5q-126 0 -216 -89.5t-90 -215.5t90 -216t216 -90zM386 72q-117 0 -201 83.5t-84 201.5q0 117 84 199.5t201 82.5 t200.5 -82.5t83.5 -199.5q0 -118 -83.5 -201.5t-200.5 -83.5zM386 116q53 0 93.5 32t66.5 75q-156 -41 -320 0q26 -43 66.5 -75t93.5 -32zM216 238q169 -39 341 0l54 86h-450zM349 357h76l-38 91zM294 427q3 -4 18.5 3.5t14.5 10.5q-7 14 -22 54t-27 58q-4 5 -19.5 -2.5 t-28 -18t-10.5 -13.5zM480 427l72 92q2 3 -10.5 13.5t-27.5 18t-19 2.5q-11 -14 -19 -33t-15 -42.5t-13 -36.5q-3 -2 9 -9q17 -10 23 -5zM645 12v38h-15v11h41v-11h-15v-38h-11zM676 12v49h15l9 -38l9 38h14v-49h-9v38l-10 -38h-9l-10 38v-38h-9z" />
<glyph unicode="}" d="M386 3q-146 0 -249.5 104t-103.5 250t103.5 250t249.5 104t250 -104t104 -250t-104 -250t-250 -104zM386 51q127 0 216 90t89 216t-89 215.5t-216 89.5q-126 0 -216 -89.5t-90 -215.5t90 -216t216 -90zM386 72q-117 0 -201 83.5t-84 201.5q0 117 84 199.5t201 82.5 t200.5 -82.5t83.5 -199.5q0 -118 -83.5 -201.5t-200.5 -83.5zM386 116q53 0 93.5 32t66.5 75q-156 -41 -320 0q26 -43 66.5 -75t93.5 -32zM216 238q169 -39 341 0l54 86h-450zM349 357h76l-38 91zM294 427q3 -4 18.5 3.5t14.5 10.5q-7 14 -22 54t-27 58q-4 5 -19.5 -2.5 t-28 -18t-10.5 -13.5zM480 427l72 92q2 3 -10.5 13.5t-27.5 18t-19 2.5q-11 -14 -19 -33t-15 -42.5t-13 -36.5q-3 -2 9 -9q17 -10 23 -5zM645 12v38h-15v11h41v-11h-15v-38h-11zM676 12v49h15l9 -38l9 38h14v-49h-9v38l-10 -38h-9l-10 38v-38h-9z" />
<glyph unicode="~" d="M386 3q-146 0 -249.5 104t-103.5 250t103.5 250t249.5 104t250 -104t104 -250t-104 -250t-250 -104zM386 51q127 0 216 90t89 216t-89 215.5t-216 89.5q-126 0 -216 -89.5t-90 -215.5t90 -216t216 -90zM386 72q-117 0 -201 83.5t-84 201.5q0 117 84 199.5t201 82.5 t200.5 -82.5t83.5 -199.5q0 -118 -83.5 -201.5t-200.5 -83.5zM386 116q53 0 93.5 32t66.5 75q-156 -41 -320 0q26 -43 66.5 -75t93.5 -32zM216 238q169 -39 341 0l54 86h-450zM349 357h76l-38 91zM294 427q3 -4 18.5 3.5t14.5 10.5q-7 14 -22 54t-27 58q-4 5 -19.5 -2.5 t-28 -18t-10.5 -13.5zM480 427l72 92q2 3 -10.5 13.5t-27.5 18t-19 2.5q-11 -14 -19 -33t-15 -42.5t-13 -36.5q-3 -2 9 -9q17 -10 23 -5zM645 12v38h-15v11h41v-11h-15v-38h-11zM676 12v49h15l9 -38l9 38h14v-49h-9v38l-10 -38h-9l-10 38v-38h-9z" />
<glyph unicode="&#xa1;" d="M386 3q-146 0 -249.5 104t-103.5 250t103.5 250t249.5 104t250 -104t104 -250t-104 -250t-250 -104zM386 51q127 0 216 90t89 216t-89 215.5t-216 89.5q-126 0 -216 -89.5t-90 -215.5t90 -216t216 -90zM386 72q-117 0 -201 83.5t-84 201.5q0 117 84 199.5t201 82.5 t200.5 -82.5t83.5 -199.5q0 -118 -83.5 -201.5t-200.5 -83.5zM386 116q53 0 93.5 32t66.5 75q-156 -41 -320 0q26 -43 66.5 -75t93.5 -32zM216 238q169 -39 341 0l54 86h-450zM349 357h76l-38 91zM294 427q3 -4 18.5 3.5t14.5 10.5q-7 14 -22 54t-27 58q-4 5 -19.5 -2.5 t-28 -18t-10.5 -13.5zM480 427l72 92q2 3 -10.5 13.5t-27.5 18t-19 2.5q-11 -14 -19 -33t-15 -42.5t-13 -36.5q-3 -2 9 -9q17 -10 23 -5zM645 12v38h-15v11h41v-11h-15v-38h-11zM676 12v49h15l9 -38l9 38h14v-49h-9v38l-10 -38h-9l-10 38v-38h-9z" />
<glyph unicode="&#xa2;" d="M386 3q-146 0 -249.5 104t-103.5 250t103.5 250t249.5 104t250 -104t104 -250t-104 -250t-250 -104zM386 51q127 0 216 90t89 216t-89 215.5t-216 89.5q-126 0 -216 -89.5t-90 -215.5t90 -216t216 -90zM386 72q-117 0 -201 83.5t-84 201.5q0 117 84 199.5t201 82.5 t200.5 -82.5t83.5 -199.5q0 -118 -83.5 -201.5t-200.5 -83.5zM386 116q53 0 93.5 32t66.5 75q-156 -41 -320 0q26 -43 66.5 -75t93.5 -32zM216 238q169 -39 341 0l54 86h-450zM349 357h76l-38 91zM294 427q3 -4 18.5 3.5t14.5 10.5q-7 14 -22 54t-27 58q-4 5 -19.5 -2.5 t-28 -18t-10.5 -13.5zM480 427l72 92q2 3 -10.5 13.5t-27.5 18t-19 2.5q-11 -14 -19 -33t-15 -42.5t-13 -36.5q-3 -2 9 -9q17 -10 23 -5zM645 12v38h-15v11h41v-11h-15v-38h-11zM676 12v49h15l9 -38l9 38h14v-49h-9v38l-10 -38h-9l-10 38v-38h-9z" />
<glyph unicode="&#xa3;" d="M386 3q-146 0 -249.5 104t-103.5 250t103.5 250t249.5 104t250 -104t104 -250t-104 -250t-250 -104zM386 51q127 0 216 90t89 216t-89 215.5t-216 89.5q-126 0 -216 -89.5t-90 -215.5t90 -216t216 -90zM386 72q-117 0 -201 83.5t-84 201.5q0 117 84 199.5t201 82.5 t200.5 -82.5t83.5 -199.5q0 -118 -83.5 -201.5t-200.5 -83.5zM386 116q53 0 93.5 32t66.5 75q-156 -41 -320 0q26 -43 66.5 -75t93.5 -32zM216 238q169 -39 341 0l54 86h-450zM349 357h76l-38 91zM294 427q3 -4 18.5 3.5t14.5 10.5q-7 14 -22 54t-27 58q-4 5 -19.5 -2.5 t-28 -18t-10.5 -13.5zM480 427l72 92q2 3 -10.5 13.5t-27.5 18t-19 2.5q-11 -14 -19 -33t-15 -42.5t-13 -36.5q-3 -2 9 -9q17 -10 23 -5zM645 12v38h-15v11h41v-11h-15v-38h-11zM676 12v49h15l9 -38l9 38h14v-49h-9v38l-10 -38h-9l-10 38v-38h-9z" />
<glyph unicode="&#xa4;" d="M386 3q-146 0 -249.5 104t-103.5 250t103.5 250t249.5 104t250 -104t104 -250t-104 -250t-250 -104zM386 51q127 0 216 90t89 216t-89 215.5t-216 89.5q-126 0 -216 -89.5t-90 -215.5t90 -216t216 -90zM386 72q-117 0 -201 83.5t-84 201.5q0 117 84 199.5t201 82.5 t200.5 -82.5t83.5 -199.5q0 -118 -83.5 -201.5t-200.5 -83.5zM386 116q53 0 93.5 32t66.5 75q-156 -41 -320 0q26 -43 66.5 -75t93.5 -32zM216 238q169 -39 341 0l54 86h-450zM349 357h76l-38 91zM294 427q3 -4 18.5 3.5t14.5 10.5q-7 14 -22 54t-27 58q-4 5 -19.5 -2.5 t-28 -18t-10.5 -13.5zM480 427l72 92q2 3 -10.5 13.5t-27.5 18t-19 2.5q-11 -14 -19 -33t-15 -42.5t-13 -36.5q-3 -2 9 -9q17 -10 23 -5zM645 12v38h-15v11h41v-11h-15v-38h-11zM676 12v49h15l9 -38l9 38h14v-49h-9v38l-10 -38h-9l-10 38v-38h-9z" />
<glyph unicode="&#xa5;" d="M386 3q-146 0 -249.5 104t-103.5 250t103.5 250t249.5 104t250 -104t104 -250t-104 -250t-250 -104zM386 51q127 0 216 90t89 216t-89 215.5t-216 89.5q-126 0 -216 -89.5t-90 -215.5t90 -216t216 -90zM386 72q-117 0 -201 83.5t-84 201.5q0 117 84 199.5t201 82.5 t200.5 -82.5t83.5 -199.5q0 -118 -83.5 -201.5t-200.5 -83.5zM386 116q53 0 93.5 32t66.5 75q-156 -41 -320 0q26 -43 66.5 -75t93.5 -32zM216 238q169 -39 341 0l54 86h-450zM349 357h76l-38 91zM294 427q3 -4 18.5 3.5t14.5 10.5q-7 14 -22 54t-27 58q-4 5 -19.5 -2.5 t-28 -18t-10.5 -13.5zM480 427l72 92q2 3 -10.5 13.5t-27.5 18t-19 2.5q-11 -14 -19 -33t-15 -42.5t-13 -36.5q-3 -2 9 -9q17 -10 23 -5zM645 12v38h-15v11h41v-11h-15v-38h-11zM676 12v49h15l9 -38l9 38h14v-49h-9v38l-10 -38h-9l-10 38v-38h-9z" />
<glyph unicode="&#xa6;" d="M386 3q-146 0 -249.5 104t-103.5 250t103.5 250t249.5 104t250 -104t104 -250t-104 -250t-250 -104zM386 51q127 0 216 90t89 216t-89 215.5t-216 89.5q-126 0 -216 -89.5t-90 -215.5t90 -216t216 -90zM386 72q-117 0 -201 83.5t-84 201.5q0 117 84 199.5t201 82.5 t200.5 -82.5t83.5 -199.5q0 -118 -83.5 -201.5t-200.5 -83.5zM386 116q53 0 93.5 32t66.5 75q-156 -41 -320 0q26 -43 66.5 -75t93.5 -32zM216 238q169 -39 341 0l54 86h-450zM349 357h76l-38 91zM294 427q3 -4 18.5 3.5t14.5 10.5q-7 14 -22 54t-27 58q-4 5 -19.5 -2.5 t-28 -18t-10.5 -13.5zM480 427l72 92q2 3 -10.5 13.5t-27.5 18t-19 2.5q-11 -14 -19 -33t-15 -42.5t-13 -36.5q-3 -2 9 -9q17 -10 23 -5zM645 12v38h-15v11h41v-11h-15v-38h-11zM676 12v49h15l9 -38l9 38h14v-49h-9v38l-10 -38h-9l-10 38v-38h-9z" />
<glyph unicode="&#xa7;" d="M386 3q-146 0 -249.5 104t-103.5 250t103.5 250t249.5 104t250 -104t104 -250t-104 -250t-250 -104zM386 51q127 0 216 90t89 216t-89 215.5t-216 89.5q-126 0 -216 -89.5t-90 -215.5t90 -216t216 -90zM386 72q-117 0 -201 83.5t-84 201.5q0 117 84 199.5t201 82.5 t200.5 -82.5t83.5 -199.5q0 -118 -83.5 -201.5t-200.5 -83.5zM386 116q53 0 93.5 32t66.5 75q-156 -41 -320 0q26 -43 66.5 -75t93.5 -32zM216 238q169 -39 341 0l54 86h-450zM349 357h76l-38 91zM294 427q3 -4 18.5 3.5t14.5 10.5q-7 14 -22 54t-27 58q-4 5 -19.5 -2.5 t-28 -18t-10.5 -13.5zM480 427l72 92q2 3 -10.5 13.5t-27.5 18t-19 2.5q-11 -14 -19 -33t-15 -42.5t-13 -36.5q-3 -2 9 -9q17 -10 23 -5zM645 12v38h-15v11h41v-11h-15v-38h-11zM676 12v49h15l9 -38l9 38h14v-49h-9v38l-10 -38h-9l-10 38v-38h-9z" />
<glyph unicode="&#xa8;" d="M386 3q-146 0 -249.5 104t-103.5 250t103.5 250t249.5 104t250 -104t104 -250t-104 -250t-250 -104zM386 51q127 0 216 90t89 216t-89 215.5t-216 89.5q-126 0 -216 -89.5t-90 -215.5t90 -216t216 -90zM386 72q-117 0 -201 83.5t-84 201.5q0 117 84 199.5t201 82.5 t200.5 -82.5t83.5 -199.5q0 -118 -83.5 -201.5t-200.5 -83.5zM386 116q53 0 93.5 32t66.5 75q-156 -41 -320 0q26 -43 66.5 -75t93.5 -32zM216 238q169 -39 341 0l54 86h-450zM349 357h76l-38 91zM294 427q3 -4 18.5 3.5t14.5 10.5q-7 14 -22 54t-27 58q-4 5 -19.5 -2.5 t-28 -18t-10.5 -13.5zM480 427l72 92q2 3 -10.5 13.5t-27.5 18t-19 2.5q-11 -14 -19 -33t-15 -42.5t-13 -36.5q-3 -2 9 -9q17 -10 23 -5zM645 12v38h-15v11h41v-11h-15v-38h-11zM676 12v49h15l9 -38l9 38h14v-49h-9v38l-10 -38h-9l-10 38v-38h-9z" />
<glyph unicode="&#xa9;" d="M386 3q-146 0 -249.5 104t-103.5 250t103.5 250t249.5 104t250 -104t104 -250t-104 -250t-250 -104zM386 51q127 0 216 90t89 216t-89 215.5t-216 89.5q-126 0 -216 -89.5t-90 -215.5t90 -216t216 -90zM386 72q-117 0 -201 83.5t-84 201.5q0 117 84 199.5t201 82.5 t200.5 -82.5t83.5 -199.5q0 -118 -83.5 -201.5t-200.5 -83.5zM386 116q53 0 93.5 32t66.5 75q-156 -41 -320 0q26 -43 66.5 -75t93.5 -32zM216 238q169 -39 341 0l54 86h-450zM349 357h76l-38 91zM294 427q3 -4 18.5 3.5t14.5 10.5q-7 14 -22 54t-27 58q-4 5 -19.5 -2.5 t-28 -18t-10.5 -13.5zM480 427l72 92q2 3 -10.5 13.5t-27.5 18t-19 2.5q-11 -14 -19 -33t-15 -42.5t-13 -36.5q-3 -2 9 -9q17 -10 23 -5zM645 12v38h-15v11h41v-11h-15v-38h-11zM676 12v49h15l9 -38l9 38h14v-49h-9v38l-10 -38h-9l-10 38v-38h-9z" />
<glyph unicode="&#xaa;" d="M386 3q-146 0 -249.5 104t-103.5 250t103.5 250t249.5 104t250 -104t104 -250t-104 -250t-250 -104zM386 51q127 0 216 90t89 216t-89 215.5t-216 89.5q-126 0 -216 -89.5t-90 -215.5t90 -216t216 -90zM386 72q-117 0 -201 83.5t-84 201.5q0 117 84 199.5t201 82.5 t200.5 -82.5t83.5 -199.5q0 -118 -83.5 -201.5t-200.5 -83.5zM386 116q53 0 93.5 32t66.5 75q-156 -41 -320 0q26 -43 66.5 -75t93.5 -32zM216 238q169 -39 341 0l54 86h-450zM349 357h76l-38 91zM294 427q3 -4 18.5 3.5t14.5 10.5q-7 14 -22 54t-27 58q-4 5 -19.5 -2.5 t-28 -18t-10.5 -13.5zM480 427l72 92q2 3 -10.5 13.5t-27.5 18t-19 2.5q-11 -14 -19 -33t-15 -42.5t-13 -36.5q-3 -2 9 -9q17 -10 23 -5zM645 12v38h-15v11h41v-11h-15v-38h-11zM676 12v49h15l9 -38l9 38h14v-49h-9v38l-10 -38h-9l-10 38v-38h-9z" />
<glyph unicode="&#xab;" d="M386 3q-146 0 -249.5 104t-103.5 250t103.5 250t249.5 104t250 -104t104 -250t-104 -250t-250 -104zM386 51q127 0 216 90t89 216t-89 215.5t-216 89.5q-126 0 -216 -89.5t-90 -215.5t90 -216t216 -90zM386 72q-117 0 -201 83.5t-84 201.5q0 117 84 199.5t201 82.5 t200.5 -82.5t83.5 -199.5q0 -118 -83.5 -201.5t-200.5 -83.5zM386 116q53 0 93.5 32t66.5 75q-156 -41 -320 0q26 -43 66.5 -75t93.5 -32zM216 238q169 -39 341 0l54 86h-450zM349 357h76l-38 91zM294 427q3 -4 18.5 3.5t14.5 10.5q-7 14 -22 54t-27 58q-4 5 -19.5 -2.5 t-28 -18t-10.5 -13.5zM480 427l72 92q2 3 -10.5 13.5t-27.5 18t-19 2.5q-11 -14 -19 -33t-15 -42.5t-13 -36.5q-3 -2 9 -9q17 -10 23 -5zM645 12v38h-15v11h41v-11h-15v-38h-11zM676 12v49h15l9 -38l9 38h14v-49h-9v38l-10 -38h-9l-10 38v-38h-9z" />
<glyph unicode="&#xac;" d="M386 3q-146 0 -249.5 104t-103.5 250t103.5 250t249.5 104t250 -104t104 -250t-104 -250t-250 -104zM386 51q127 0 216 90t89 216t-89 215.5t-216 89.5q-126 0 -216 -89.5t-90 -215.5t90 -216t216 -90zM386 72q-117 0 -201 83.5t-84 201.5q0 117 84 199.5t201 82.5 t200.5 -82.5t83.5 -199.5q0 -118 -83.5 -201.5t-200.5 -83.5zM386 116q53 0 93.5 32t66.5 75q-156 -41 -320 0q26 -43 66.5 -75t93.5 -32zM216 238q169 -39 341 0l54 86h-450zM349 357h76l-38 91zM294 427q3 -4 18.5 3.5t14.5 10.5q-7 14 -22 54t-27 58q-4 5 -19.5 -2.5 t-28 -18t-10.5 -13.5zM480 427l72 92q2 3 -10.5 13.5t-27.5 18t-19 2.5q-11 -14 -19 -33t-15 -42.5t-13 -36.5q-3 -2 9 -9q17 -10 23 -5zM645 12v38h-15v11h41v-11h-15v-38h-11zM676 12v49h15l9 -38l9 38h14v-49h-9v38l-10 -38h-9l-10 38v-38h-9z" />
<glyph unicode="&#xad;" d="M386 3q-146 0 -249.5 104t-103.5 250t103.5 250t249.5 104t250 -104t104 -250t-104 -250t-250 -104zM386 51q127 0 216 90t89 216t-89 215.5t-216 89.5q-126 0 -216 -89.5t-90 -215.5t90 -216t216 -90zM386 72q-117 0 -201 83.5t-84 201.5q0 117 84 199.5t201 82.5 t200.5 -82.5t83.5 -199.5q0 -118 -83.5 -201.5t-200.5 -83.5zM386 116q53 0 93.5 32t66.5 75q-156 -41 -320 0q26 -43 66.5 -75t93.5 -32zM216 238q169 -39 341 0l54 86h-450zM349 357h76l-38 91zM294 427q3 -4 18.5 3.5t14.5 10.5q-7 14 -22 54t-27 58q-4 5 -19.5 -2.5 t-28 -18t-10.5 -13.5zM480 427l72 92q2 3 -10.5 13.5t-27.5 18t-19 2.5q-11 -14 -19 -33t-15 -42.5t-13 -36.5q-3 -2 9 -9q17 -10 23 -5zM645 12v38h-15v11h41v-11h-15v-38h-11zM676 12v49h15l9 -38l9 38h14v-49h-9v38l-10 -38h-9l-10 38v-38h-9z" />
<glyph unicode="&#xae;" d="M386 3q-146 0 -249.5 104t-103.5 250t103.5 250t249.5 104t250 -104t104 -250t-104 -250t-250 -104zM386 51q127 0 216 90t89 216t-89 215.5t-216 89.5q-126 0 -216 -89.5t-90 -215.5t90 -216t216 -90zM386 72q-117 0 -201 83.5t-84 201.5q0 117 84 199.5t201 82.5 t200.5 -82.5t83.5 -199.5q0 -118 -83.5 -201.5t-200.5 -83.5zM386 116q53 0 93.5 32t66.5 75q-156 -41 -320 0q26 -43 66.5 -75t93.5 -32zM216 238q169 -39 341 0l54 86h-450zM349 357h76l-38 91zM294 427q3 -4 18.5 3.5t14.5 10.5q-7 14 -22 54t-27 58q-4 5 -19.5 -2.5 t-28 -18t-10.5 -13.5zM480 427l72 92q2 3 -10.5 13.5t-27.5 18t-19 2.5q-11 -14 -19 -33t-15 -42.5t-13 -36.5q-3 -2 9 -9q17 -10 23 -5zM645 12v38h-15v11h41v-11h-15v-38h-11zM676 12v49h15l9 -38l9 38h14v-49h-9v38l-10 -38h-9l-10 38v-38h-9z" />
<glyph unicode="&#xaf;" d="M386 3q-146 0 -249.5 104t-103.5 250t103.5 250t249.5 104t250 -104t104 -250t-104 -250t-250 -104zM386 51q127 0 216 90t89 216t-89 215.5t-216 89.5q-126 0 -216 -89.5t-90 -215.5t90 -216t216 -90zM386 72q-117 0 -201 83.5t-84 201.5q0 117 84 199.5t201 82.5 t200.5 -82.5t83.5 -199.5q0 -118 -83.5 -201.5t-200.5 -83.5zM386 116q53 0 93.5 32t66.5 75q-156 -41 -320 0q26 -43 66.5 -75t93.5 -32zM216 238q169 -39 341 0l54 86h-450zM349 357h76l-38 91zM294 427q3 -4 18.5 3.5t14.5 10.5q-7 14 -22 54t-27 58q-4 5 -19.5 -2.5 t-28 -18t-10.5 -13.5zM480 427l72 92q2 3 -10.5 13.5t-27.5 18t-19 2.5q-11 -14 -19 -33t-15 -42.5t-13 -36.5q-3 -2 9 -9q17 -10 23 -5zM645 12v38h-15v11h41v-11h-15v-38h-11zM676 12v49h15l9 -38l9 38h14v-49h-9v38l-10 -38h-9l-10 38v-38h-9z" />
<glyph unicode="&#xb0;" d="M386 3q-146 0 -249.5 104t-103.5 250t103.5 250t249.5 104t250 -104t104 -250t-104 -250t-250 -104zM386 51q127 0 216 90t89 216t-89 215.5t-216 89.5q-126 0 -216 -89.5t-90 -215.5t90 -216t216 -90zM386 72q-117 0 -201 83.5t-84 201.5q0 117 84 199.5t201 82.5 t200.5 -82.5t83.5 -199.5q0 -118 -83.5 -201.5t-200.5 -83.5zM386 116q53 0 93.5 32t66.5 75q-156 -41 -320 0q26 -43 66.5 -75t93.5 -32zM216 238q169 -39 341 0l54 86h-450zM349 357h76l-38 91zM294 427q3 -4 18.5 3.5t14.5 10.5q-7 14 -22 54t-27 58q-4 5 -19.5 -2.5 t-28 -18t-10.5 -13.5zM480 427l72 92q2 3 -10.5 13.5t-27.5 18t-19 2.5q-11 -14 -19 -33t-15 -42.5t-13 -36.5q-3 -2 9 -9q17 -10 23 -5zM645 12v38h-15v11h41v-11h-15v-38h-11zM676 12v49h15l9 -38l9 38h14v-49h-9v38l-10 -38h-9l-10 38v-38h-9z" />
<glyph unicode="&#xb1;" d="M386 3q-146 0 -249.5 104t-103.5 250t103.5 250t249.5 104t250 -104t104 -250t-104 -250t-250 -104zM386 51q127 0 216 90t89 216t-89 215.5t-216 89.5q-126 0 -216 -89.5t-90 -215.5t90 -216t216 -90zM386 72q-117 0 -201 83.5t-84 201.5q0 117 84 199.5t201 82.5 t200.5 -82.5t83.5 -199.5q0 -118 -83.5 -201.5t-200.5 -83.5zM386 116q53 0 93.5 32t66.5 75q-156 -41 -320 0q26 -43 66.5 -75t93.5 -32zM216 238q169 -39 341 0l54 86h-450zM349 357h76l-38 91zM294 427q3 -4 18.5 3.5t14.5 10.5q-7 14 -22 54t-27 58q-4 5 -19.5 -2.5 t-28 -18t-10.5 -13.5zM480 427l72 92q2 3 -10.5 13.5t-27.5 18t-19 2.5q-11 -14 -19 -33t-15 -42.5t-13 -36.5q-3 -2 9 -9q17 -10 23 -5zM645 12v38h-15v11h41v-11h-15v-38h-11zM676 12v49h15l9 -38l9 38h14v-49h-9v38l-10 -38h-9l-10 38v-38h-9z" />
<glyph unicode="&#xb2;" d="M386 3q-146 0 -249.5 104t-103.5 250t103.5 250t249.5 104t250 -104t104 -250t-104 -250t-250 -104zM386 51q127 0 216 90t89 216t-89 215.5t-216 89.5q-126 0 -216 -89.5t-90 -215.5t90 -216t216 -90zM386 72q-117 0 -201 83.5t-84 201.5q0 117 84 199.5t201 82.5 t200.5 -82.5t83.5 -199.5q0 -118 -83.5 -201.5t-200.5 -83.5zM386 116q53 0 93.5 32t66.5 75q-156 -41 -320 0q26 -43 66.5 -75t93.5 -32zM216 238q169 -39 341 0l54 86h-450zM349 357h76l-38 91zM294 427q3 -4 18.5 3.5t14.5 10.5q-7 14 -22 54t-27 58q-4 5 -19.5 -2.5 t-28 -18t-10.5 -13.5zM480 427l72 92q2 3 -10.5 13.5t-27.5 18t-19 2.5q-11 -14 -19 -33t-15 -42.5t-13 -36.5q-3 -2 9 -9q17 -10 23 -5zM645 12v38h-15v11h41v-11h-15v-38h-11zM676 12v49h15l9 -38l9 38h14v-49h-9v38l-10 -38h-9l-10 38v-38h-9z" />
<glyph unicode="&#xb3;" d="M386 3q-146 0 -249.5 104t-103.5 250t103.5 250t249.5 104t250 -104t104 -250t-104 -250t-250 -104zM386 51q127 0 216 90t89 216t-89 215.5t-216 89.5q-126 0 -216 -89.5t-90 -215.5t90 -216t216 -90zM386 72q-117 0 -201 83.5t-84 201.5q0 117 84 199.5t201 82.5 t200.5 -82.5t83.5 -199.5q0 -118 -83.5 -201.5t-200.5 -83.5zM386 116q53 0 93.5 32t66.5 75q-156 -41 -320 0q26 -43 66.5 -75t93.5 -32zM216 238q169 -39 341 0l54 86h-450zM349 357h76l-38 91zM294 427q3 -4 18.5 3.5t14.5 10.5q-7 14 -22 54t-27 58q-4 5 -19.5 -2.5 t-28 -18t-10.5 -13.5zM480 427l72 92q2 3 -10.5 13.5t-27.5 18t-19 2.5q-11 -14 -19 -33t-15 -42.5t-13 -36.5q-3 -2 9 -9q17 -10 23 -5zM645 12v38h-15v11h41v-11h-15v-38h-11zM676 12v49h15l9 -38l9 38h14v-49h-9v38l-10 -38h-9l-10 38v-38h-9z" />
<glyph unicode="&#xb4;" d="M386 3q-146 0 -249.5 104t-103.5 250t103.5 250t249.5 104t250 -104t104 -250t-104 -250t-250 -104zM386 51q127 0 216 90t89 216t-89 215.5t-216 89.5q-126 0 -216 -89.5t-90 -215.5t90 -216t216 -90zM386 72q-117 0 -201 83.5t-84 201.5q0 117 84 199.5t201 82.5 t200.5 -82.5t83.5 -199.5q0 -118 -83.5 -201.5t-200.5 -83.5zM386 116q53 0 93.5 32t66.5 75q-156 -41 -320 0q26 -43 66.5 -75t93.5 -32zM216 238q169 -39 341 0l54 86h-450zM349 357h76l-38 91zM294 427q3 -4 18.5 3.5t14.5 10.5q-7 14 -22 54t-27 58q-4 5 -19.5 -2.5 t-28 -18t-10.5 -13.5zM480 427l72 92q2 3 -10.5 13.5t-27.5 18t-19 2.5q-11 -14 -19 -33t-15 -42.5t-13 -36.5q-3 -2 9 -9q17 -10 23 -5zM645 12v38h-15v11h41v-11h-15v-38h-11zM676 12v49h15l9 -38l9 38h14v-49h-9v38l-10 -38h-9l-10 38v-38h-9z" />
<glyph unicode="&#xb5;" d="M386 3q-146 0 -249.5 104t-103.5 250t103.5 250t249.5 104t250 -104t104 -250t-104 -250t-250 -104zM386 51q127 0 216 90t89 216t-89 215.5t-216 89.5q-126 0 -216 -89.5t-90 -215.5t90 -216t216 -90zM386 72q-117 0 -201 83.5t-84 201.5q0 117 84 199.5t201 82.5 t200.5 -82.5t83.5 -199.5q0 -118 -83.5 -201.5t-200.5 -83.5zM386 116q53 0 93.5 32t66.5 75q-156 -41 -320 0q26 -43 66.5 -75t93.5 -32zM216 238q169 -39 341 0l54 86h-450zM349 357h76l-38 91zM294 427q3 -4 18.5 3.5t14.5 10.5q-7 14 -22 54t-27 58q-4 5 -19.5 -2.5 t-28 -18t-10.5 -13.5zM480 427l72 92q2 3 -10.5 13.5t-27.5 18t-19 2.5q-11 -14 -19 -33t-15 -42.5t-13 -36.5q-3 -2 9 -9q17 -10 23 -5zM645 12v38h-15v11h41v-11h-15v-38h-11zM676 12v49h15l9 -38l9 38h14v-49h-9v38l-10 -38h-9l-10 38v-38h-9z" />
<glyph unicode="&#xb6;" d="M386 3q-146 0 -249.5 104t-103.5 250t103.5 250t249.5 104t250 -104t104 -250t-104 -250t-250 -104zM386 51q127 0 216 90t89 216t-89 215.5t-216 89.5q-126 0 -216 -89.5t-90 -215.5t90 -216t216 -90zM386 72q-117 0 -201 83.5t-84 201.5q0 117 84 199.5t201 82.5 t200.5 -82.5t83.5 -199.5q0 -118 -83.5 -201.5t-200.5 -83.5zM386 116q53 0 93.5 32t66.5 75q-156 -41 -320 0q26 -43 66.5 -75t93.5 -32zM216 238q169 -39 341 0l54 86h-450zM349 357h76l-38 91zM294 427q3 -4 18.5 3.5t14.5 10.5q-7 14 -22 54t-27 58q-4 5 -19.5 -2.5 t-28 -18t-10.5 -13.5zM480 427l72 92q2 3 -10.5 13.5t-27.5 18t-19 2.5q-11 -14 -19 -33t-15 -42.5t-13 -36.5q-3 -2 9 -9q17 -10 23 -5zM645 12v38h-15v11h41v-11h-15v-38h-11zM676 12v49h15l9 -38l9 38h14v-49h-9v38l-10 -38h-9l-10 38v-38h-9z" />
<glyph unicode="&#xb7;" d="M386 3q-146 0 -249.5 104t-103.5 250t103.5 250t249.5 104t250 -104t104 -250t-104 -250t-250 -104zM386 51q127 0 216 90t89 216t-89 215.5t-216 89.5q-126 0 -216 -89.5t-90 -215.5t90 -216t216 -90zM386 72q-117 0 -201 83.5t-84 201.5q0 117 84 199.5t201 82.5 t200.5 -82.5t83.5 -199.5q0 -118 -83.5 -201.5t-200.5 -83.5zM386 116q53 0 93.5 32t66.5 75q-156 -41 -320 0q26 -43 66.5 -75t93.5 -32zM216 238q169 -39 341 0l54 86h-450zM349 357h76l-38 91zM294 427q3 -4 18.5 3.5t14.5 10.5q-7 14 -22 54t-27 58q-4 5 -19.5 -2.5 t-28 -18t-10.5 -13.5zM480 427l72 92q2 3 -10.5 13.5t-27.5 18t-19 2.5q-11 -14 -19 -33t-15 -42.5t-13 -36.5q-3 -2 9 -9q17 -10 23 -5zM645 12v38h-15v11h41v-11h-15v-38h-11zM676 12v49h15l9 -38l9 38h14v-49h-9v38l-10 -38h-9l-10 38v-38h-9z" />
<glyph unicode="&#xb8;" d="M386 3q-146 0 -249.5 104t-103.5 250t103.5 250t249.5 104t250 -104t104 -250t-104 -250t-250 -104zM386 51q127 0 216 90t89 216t-89 215.5t-216 89.5q-126 0 -216 -89.5t-90 -215.5t90 -216t216 -90zM386 72q-117 0 -201 83.5t-84 201.5q0 117 84 199.5t201 82.5 t200.5 -82.5t83.5 -199.5q0 -118 -83.5 -201.5t-200.5 -83.5zM386 116q53 0 93.5 32t66.5 75q-156 -41 -320 0q26 -43 66.5 -75t93.5 -32zM216 238q169 -39 341 0l54 86h-450zM349 357h76l-38 91zM294 427q3 -4 18.5 3.5t14.5 10.5q-7 14 -22 54t-27 58q-4 5 -19.5 -2.5 t-28 -18t-10.5 -13.5zM480 427l72 92q2 3 -10.5 13.5t-27.5 18t-19 2.5q-11 -14 -19 -33t-15 -42.5t-13 -36.5q-3 -2 9 -9q17 -10 23 -5zM645 12v38h-15v11h41v-11h-15v-38h-11zM676 12v49h15l9 -38l9 38h14v-49h-9v38l-10 -38h-9l-10 38v-38h-9z" />
<glyph unicode="&#xb9;" d="M386 3q-146 0 -249.5 104t-103.5 250t103.5 250t249.5 104t250 -104t104 -250t-104 -250t-250 -104zM386 51q127 0 216 90t89 216t-89 215.5t-216 89.5q-126 0 -216 -89.5t-90 -215.5t90 -216t216 -90zM386 72q-117 0 -201 83.5t-84 201.5q0 117 84 199.5t201 82.5 t200.5 -82.5t83.5 -199.5q0 -118 -83.5 -201.5t-200.5 -83.5zM386 116q53 0 93.5 32t66.5 75q-156 -41 -320 0q26 -43 66.5 -75t93.5 -32zM216 238q169 -39 341 0l54 86h-450zM349 357h76l-38 91zM294 427q3 -4 18.5 3.5t14.5 10.5q-7 14 -22 54t-27 58q-4 5 -19.5 -2.5 t-28 -18t-10.5 -13.5zM480 427l72 92q2 3 -10.5 13.5t-27.5 18t-19 2.5q-11 -14 -19 -33t-15 -42.5t-13 -36.5q-3 -2 9 -9q17 -10 23 -5zM645 12v38h-15v11h41v-11h-15v-38h-11zM676 12v49h15l9 -38l9 38h14v-49h-9v38l-10 -38h-9l-10 38v-38h-9z" />
<glyph unicode="&#xba;" d="M386 3q-146 0 -249.5 104t-103.5 250t103.5 250t249.5 104t250 -104t104 -250t-104 -250t-250 -104zM386 51q127 0 216 90t89 216t-89 215.5t-216 89.5q-126 0 -216 -89.5t-90 -215.5t90 -216t216 -90zM386 72q-117 0 -201 83.5t-84 201.5q0 117 84 199.5t201 82.5 t200.5 -82.5t83.5 -199.5q0 -118 -83.5 -201.5t-200.5 -83.5zM386 116q53 0 93.5 32t66.5 75q-156 -41 -320 0q26 -43 66.5 -75t93.5 -32zM216 238q169 -39 341 0l54 86h-450zM349 357h76l-38 91zM294 427q3 -4 18.5 3.5t14.5 10.5q-7 14 -22 54t-27 58q-4 5 -19.5 -2.5 t-28 -18t-10.5 -13.5zM480 427l72 92q2 3 -10.5 13.5t-27.5 18t-19 2.5q-11 -14 -19 -33t-15 -42.5t-13 -36.5q-3 -2 9 -9q17 -10 23 -5zM645 12v38h-15v11h41v-11h-15v-38h-11zM676 12v49h15l9 -38l9 38h14v-49h-9v38l-10 -38h-9l-10 38v-38h-9z" />
<glyph unicode="&#xbb;" d="M386 3q-146 0 -249.5 104t-103.5 250t103.5 250t249.5 104t250 -104t104 -250t-104 -250t-250 -104zM386 51q127 0 216 90t89 216t-89 215.5t-216 89.5q-126 0 -216 -89.5t-90 -215.5t90 -216t216 -90zM386 72q-117 0 -201 83.5t-84 201.5q0 117 84 199.5t201 82.5 t200.5 -82.5t83.5 -199.5q0 -118 -83.5 -201.5t-200.5 -83.5zM386 116q53 0 93.5 32t66.5 75q-156 -41 -320 0q26 -43 66.5 -75t93.5 -32zM216 238q169 -39 341 0l54 86h-450zM349 357h76l-38 91zM294 427q3 -4 18.5 3.5t14.5 10.5q-7 14 -22 54t-27 58q-4 5 -19.5 -2.5 t-28 -18t-10.5 -13.5zM480 427l72 92q2 3 -10.5 13.5t-27.5 18t-19 2.5q-11 -14 -19 -33t-15 -42.5t-13 -36.5q-3 -2 9 -9q17 -10 23 -5zM645 12v38h-15v11h41v-11h-15v-38h-11zM676 12v49h15l9 -38l9 38h14v-49h-9v38l-10 -38h-9l-10 38v-38h-9z" />
<glyph unicode="&#xbc;" d="M386 3q-146 0 -249.5 104t-103.5 250t103.5 250t249.5 104t250 -104t104 -250t-104 -250t-250 -104zM386 51q127 0 216 90t89 216t-89 215.5t-216 89.5q-126 0 -216 -89.5t-90 -215.5t90 -216t216 -90zM386 72q-117 0 -201 83.5t-84 201.5q0 117 84 199.5t201 82.5 t200.5 -82.5t83.5 -199.5q0 -118 -83.5 -201.5t-200.5 -83.5zM386 116q53 0 93.5 32t66.5 75q-156 -41 -320 0q26 -43 66.5 -75t93.5 -32zM216 238q169 -39 341 0l54 86h-450zM349 357h76l-38 91zM294 427q3 -4 18.5 3.5t14.5 10.5q-7 14 -22 54t-27 58q-4 5 -19.5 -2.5 t-28 -18t-10.5 -13.5zM480 427l72 92q2 3 -10.5 13.5t-27.5 18t-19 2.5q-11 -14 -19 -33t-15 -42.5t-13 -36.5q-3 -2 9 -9q17 -10 23 -5zM645 12v38h-15v11h41v-11h-15v-38h-11zM676 12v49h15l9 -38l9 38h14v-49h-9v38l-10 -38h-9l-10 38v-38h-9z" />
<glyph unicode="&#xbd;" d="M386 3q-146 0 -249.5 104t-103.5 250t103.5 250t249.5 104t250 -104t104 -250t-104 -250t-250 -104zM386 51q127 0 216 90t89 216t-89 215.5t-216 89.5q-126 0 -216 -89.5t-90 -215.5t90 -216t216 -90zM386 72q-117 0 -201 83.5t-84 201.5q0 117 84 199.5t201 82.5 t200.5 -82.5t83.5 -199.5q0 -118 -83.5 -201.5t-200.5 -83.5zM386 116q53 0 93.5 32t66.5 75q-156 -41 -320 0q26 -43 66.5 -75t93.5 -32zM216 238q169 -39 341 0l54 86h-450zM349 357h76l-38 91zM294 427q3 -4 18.5 3.5t14.5 10.5q-7 14 -22 54t-27 58q-4 5 -19.5 -2.5 t-28 -18t-10.5 -13.5zM480 427l72 92q2 3 -10.5 13.5t-27.5 18t-19 2.5q-11 -14 -19 -33t-15 -42.5t-13 -36.5q-3 -2 9 -9q17 -10 23 -5zM645 12v38h-15v11h41v-11h-15v-38h-11zM676 12v49h15l9 -38l9 38h14v-49h-9v38l-10 -38h-9l-10 38v-38h-9z" />
<glyph unicode="&#xbe;" d="M386 3q-146 0 -249.5 104t-103.5 250t103.5 250t249.5 104t250 -104t104 -250t-104 -250t-250 -104zM386 51q127 0 216 90t89 216t-89 215.5t-216 89.5q-126 0 -216 -89.5t-90 -215.5t90 -216t216 -90zM386 72q-117 0 -201 83.5t-84 201.5q0 117 84 199.5t201 82.5 t200.5 -82.5t83.5 -199.5q0 -118 -83.5 -201.5t-200.5 -83.5zM386 116q53 0 93.5 32t66.5 75q-156 -41 -320 0q26 -43 66.5 -75t93.5 -32zM216 238q169 -39 341 0l54 86h-450zM349 357h76l-38 91zM294 427q3 -4 18.5 3.5t14.5 10.5q-7 14 -22 54t-27 58q-4 5 -19.5 -2.5 t-28 -18t-10.5 -13.5zM480 427l72 92q2 3 -10.5 13.5t-27.5 18t-19 2.5q-11 -14 -19 -33t-15 -42.5t-13 -36.5q-3 -2 9 -9q17 -10 23 -5zM645 12v38h-15v11h41v-11h-15v-38h-11zM676 12v49h15l9 -38l9 38h14v-49h-9v38l-10 -38h-9l-10 38v-38h-9z" />
<glyph unicode="&#xbf;" d="M386 3q-146 0 -249.5 104t-103.5 250t103.5 250t249.5 104t250 -104t104 -250t-104 -250t-250 -104zM386 51q127 0 216 90t89 216t-89 215.5t-216 89.5q-126 0 -216 -89.5t-90 -215.5t90 -216t216 -90zM386 72q-117 0 -201 83.5t-84 201.5q0 117 84 199.5t201 82.5 t200.5 -82.5t83.5 -199.5q0 -118 -83.5 -201.5t-200.5 -83.5zM386 116q53 0 93.5 32t66.5 75q-156 -41 -320 0q26 -43 66.5 -75t93.5 -32zM216 238q169 -39 341 0l54 86h-450zM349 357h76l-38 91zM294 427q3 -4 18.5 3.5t14.5 10.5q-7 14 -22 54t-27 58q-4 5 -19.5 -2.5 t-28 -18t-10.5 -13.5zM480 427l72 92q2 3 -10.5 13.5t-27.5 18t-19 2.5q-11 -14 -19 -33t-15 -42.5t-13 -36.5q-3 -2 9 -9q17 -10 23 -5zM645 12v38h-15v11h41v-11h-15v-38h-11zM676 12v49h15l9 -38l9 38h14v-49h-9v38l-10 -38h-9l-10 38v-38h-9z" />
<glyph unicode="&#xc0;" d="M386 3q-146 0 -249.5 104t-103.5 250t103.5 250t249.5 104t250 -104t104 -250t-104 -250t-250 -104zM386 51q127 0 216 90t89 216t-89 215.5t-216 89.5q-126 0 -216 -89.5t-90 -215.5t90 -216t216 -90zM386 72q-117 0 -201 83.5t-84 201.5q0 117 84 199.5t201 82.5 t200.5 -82.5t83.5 -199.5q0 -118 -83.5 -201.5t-200.5 -83.5zM386 116q53 0 93.5 32t66.5 75q-156 -41 -320 0q26 -43 66.5 -75t93.5 -32zM216 238q169 -39 341 0l54 86h-450zM349 357h76l-38 91zM294 427q3 -4 18.5 3.5t14.5 10.5q-7 14 -22 54t-27 58q-4 5 -19.5 -2.5 t-28 -18t-10.5 -13.5zM480 427l72 92q2 3 -10.5 13.5t-27.5 18t-19 2.5q-11 -14 -19 -33t-15 -42.5t-13 -36.5q-3 -2 9 -9q17 -10 23 -5zM645 12v38h-15v11h41v-11h-15v-38h-11zM676 12v49h15l9 -38l9 38h14v-49h-9v38l-10 -38h-9l-10 38v-38h-9z" />
<glyph unicode="&#xc1;" d="M386 3q-146 0 -249.5 104t-103.5 250t103.5 250t249.5 104t250 -104t104 -250t-104 -250t-250 -104zM386 51q127 0 216 90t89 216t-89 215.5t-216 89.5q-126 0 -216 -89.5t-90 -215.5t90 -216t216 -90zM386 72q-117 0 -201 83.5t-84 201.5q0 117 84 199.5t201 82.5 t200.5 -82.5t83.5 -199.5q0 -118 -83.5 -201.5t-200.5 -83.5zM386 116q53 0 93.5 32t66.5 75q-156 -41 -320 0q26 -43 66.5 -75t93.5 -32zM216 238q169 -39 341 0l54 86h-450zM349 357h76l-38 91zM294 427q3 -4 18.5 3.5t14.5 10.5q-7 14 -22 54t-27 58q-4 5 -19.5 -2.5 t-28 -18t-10.5 -13.5zM480 427l72 92q2 3 -10.5 13.5t-27.5 18t-19 2.5q-11 -14 -19 -33t-15 -42.5t-13 -36.5q-3 -2 9 -9q17 -10 23 -5zM645 12v38h-15v11h41v-11h-15v-38h-11zM676 12v49h15l9 -38l9 38h14v-49h-9v38l-10 -38h-9l-10 38v-38h-9z" />
<glyph unicode="&#xc2;" d="M386 3q-146 0 -249.5 104t-103.5 250t103.5 250t249.5 104t250 -104t104 -250t-104 -250t-250 -104zM386 51q127 0 216 90t89 216t-89 215.5t-216 89.5q-126 0 -216 -89.5t-90 -215.5t90 -216t216 -90zM386 72q-117 0 -201 83.5t-84 201.5q0 117 84 199.5t201 82.5 t200.5 -82.5t83.5 -199.5q0 -118 -83.5 -201.5t-200.5 -83.5zM386 116q53 0 93.5 32t66.5 75q-156 -41 -320 0q26 -43 66.5 -75t93.5 -32zM216 238q169 -39 341 0l54 86h-450zM349 357h76l-38 91zM294 427q3 -4 18.5 3.5t14.5 10.5q-7 14 -22 54t-27 58q-4 5 -19.5 -2.5 t-28 -18t-10.5 -13.5zM480 427l72 92q2 3 -10.5 13.5t-27.5 18t-19 2.5q-11 -14 -19 -33t-15 -42.5t-13 -36.5q-3 -2 9 -9q17 -10 23 -5zM645 12v38h-15v11h41v-11h-15v-38h-11zM676 12v49h15l9 -38l9 38h14v-49h-9v38l-10 -38h-9l-10 38v-38h-9z" />
<glyph unicode="&#xc3;" d="M386 3q-146 0 -249.5 104t-103.5 250t103.5 250t249.5 104t250 -104t104 -250t-104 -250t-250 -104zM386 51q127 0 216 90t89 216t-89 215.5t-216 89.5q-126 0 -216 -89.5t-90 -215.5t90 -216t216 -90zM386 72q-117 0 -201 83.5t-84 201.5q0 117 84 199.5t201 82.5 t200.5 -82.5t83.5 -199.5q0 -118 -83.5 -201.5t-200.5 -83.5zM386 116q53 0 93.5 32t66.5 75q-156 -41 -320 0q26 -43 66.5 -75t93.5 -32zM216 238q169 -39 341 0l54 86h-450zM349 357h76l-38 91zM294 427q3 -4 18.5 3.5t14.5 10.5q-7 14 -22 54t-27 58q-4 5 -19.5 -2.5 t-28 -18t-10.5 -13.5zM480 427l72 92q2 3 -10.5 13.5t-27.5 18t-19 2.5q-11 -14 -19 -33t-15 -42.5t-13 -36.5q-3 -2 9 -9q17 -10 23 -5zM645 12v38h-15v11h41v-11h-15v-38h-11zM676 12v49h15l9 -38l9 38h14v-49h-9v38l-10 -38h-9l-10 38v-38h-9z" />
<glyph unicode="&#xc4;" d="M386 3q-146 0 -249.5 104t-103.5 250t103.5 250t249.5 104t250 -104t104 -250t-104 -250t-250 -104zM386 51q127 0 216 90t89 216t-89 215.5t-216 89.5q-126 0 -216 -89.5t-90 -215.5t90 -216t216 -90zM386 72q-117 0 -201 83.5t-84 201.5q0 117 84 199.5t201 82.5 t200.5 -82.5t83.5 -199.5q0 -118 -83.5 -201.5t-200.5 -83.5zM386 116q53 0 93.5 32t66.5 75q-156 -41 -320 0q26 -43 66.5 -75t93.5 -32zM216 238q169 -39 341 0l54 86h-450zM349 357h76l-38 91zM294 427q3 -4 18.5 3.5t14.5 10.5q-7 14 -22 54t-27 58q-4 5 -19.5 -2.5 t-28 -18t-10.5 -13.5zM480 427l72 92q2 3 -10.5 13.5t-27.5 18t-19 2.5q-11 -14 -19 -33t-15 -42.5t-13 -36.5q-3 -2 9 -9q17 -10 23 -5zM645 12v38h-15v11h41v-11h-15v-38h-11zM676 12v49h15l9 -38l9 38h14v-49h-9v38l-10 -38h-9l-10 38v-38h-9z" />
<glyph unicode="&#xc5;" d="M386 3q-146 0 -249.5 104t-103.5 250t103.5 250t249.5 104t250 -104t104 -250t-104 -250t-250 -104zM386 51q127 0 216 90t89 216t-89 215.5t-216 89.5q-126 0 -216 -89.5t-90 -215.5t90 -216t216 -90zM386 72q-117 0 -201 83.5t-84 201.5q0 117 84 199.5t201 82.5 t200.5 -82.5t83.5 -199.5q0 -118 -83.5 -201.5t-200.5 -83.5zM386 116q53 0 93.5 32t66.5 75q-156 -41 -320 0q26 -43 66.5 -75t93.5 -32zM216 238q169 -39 341 0l54 86h-450zM349 357h76l-38 91zM294 427q3 -4 18.5 3.5t14.5 10.5q-7 14 -22 54t-27 58q-4 5 -19.5 -2.5 t-28 -18t-10.5 -13.5zM480 427l72 92q2 3 -10.5 13.5t-27.5 18t-19 2.5q-11 -14 -19 -33t-15 -42.5t-13 -36.5q-3 -2 9 -9q17 -10 23 -5zM645 12v38h-15v11h41v-11h-15v-38h-11zM676 12v49h15l9 -38l9 38h14v-49h-9v38l-10 -38h-9l-10 38v-38h-9z" />
<glyph unicode="&#xc6;" d="M386 3q-146 0 -249.5 104t-103.5 250t103.5 250t249.5 104t250 -104t104 -250t-104 -250t-250 -104zM386 51q127 0 216 90t89 216t-89 215.5t-216 89.5q-126 0 -216 -89.5t-90 -215.5t90 -216t216 -90zM386 72q-117 0 -201 83.5t-84 201.5q0 117 84 199.5t201 82.5 t200.5 -82.5t83.5 -199.5q0 -118 -83.5 -201.5t-200.5 -83.5zM386 116q53 0 93.5 32t66.5 75q-156 -41 -320 0q26 -43 66.5 -75t93.5 -32zM216 238q169 -39 341 0l54 86h-450zM349 357h76l-38 91zM294 427q3 -4 18.5 3.5t14.5 10.5q-7 14 -22 54t-27 58q-4 5 -19.5 -2.5 t-28 -18t-10.5 -13.5zM480 427l72 92q2 3 -10.5 13.5t-27.5 18t-19 2.5q-11 -14 -19 -33t-15 -42.5t-13 -36.5q-3 -2 9 -9q17 -10 23 -5zM645 12v38h-15v11h41v-11h-15v-38h-11zM676 12v49h15l9 -38l9 38h14v-49h-9v38l-10 -38h-9l-10 38v-38h-9z" />
<glyph unicode="&#xc7;" d="M386 3q-146 0 -249.5 104t-103.5 250t103.5 250t249.5 104t250 -104t104 -250t-104 -250t-250 -104zM386 51q127 0 216 90t89 216t-89 215.5t-216 89.5q-126 0 -216 -89.5t-90 -215.5t90 -216t216 -90zM386 72q-117 0 -201 83.5t-84 201.5q0 117 84 199.5t201 82.5 t200.5 -82.5t83.5 -199.5q0 -118 -83.5 -201.5t-200.5 -83.5zM386 116q53 0 93.5 32t66.5 75q-156 -41 -320 0q26 -43 66.5 -75t93.5 -32zM216 238q169 -39 341 0l54 86h-450zM349 357h76l-38 91zM294 427q3 -4 18.5 3.5t14.5 10.5q-7 14 -22 54t-27 58q-4 5 -19.5 -2.5 t-28 -18t-10.5 -13.5zM480 427l72 92q2 3 -10.5 13.5t-27.5 18t-19 2.5q-11 -14 -19 -33t-15 -42.5t-13 -36.5q-3 -2 9 -9q17 -10 23 -5zM645 12v38h-15v11h41v-11h-15v-38h-11zM676 12v49h15l9 -38l9 38h14v-49h-9v38l-10 -38h-9l-10 38v-38h-9z" />
<glyph unicode="&#xc8;" d="M386 3q-146 0 -249.5 104t-103.5 250t103.5 250t249.5 104t250 -104t104 -250t-104 -250t-250 -104zM386 51q127 0 216 90t89 216t-89 215.5t-216 89.5q-126 0 -216 -89.5t-90 -215.5t90 -216t216 -90zM386 72q-117 0 -201 83.5t-84 201.5q0 117 84 199.5t201 82.5 t200.5 -82.5t83.5 -199.5q0 -118 -83.5 -201.5t-200.5 -83.5zM386 116q53 0 93.5 32t66.5 75q-156 -41 -320 0q26 -43 66.5 -75t93.5 -32zM216 238q169 -39 341 0l54 86h-450zM349 357h76l-38 91zM294 427q3 -4 18.5 3.5t14.5 10.5q-7 14 -22 54t-27 58q-4 5 -19.5 -2.5 t-28 -18t-10.5 -13.5zM480 427l72 92q2 3 -10.5 13.5t-27.5 18t-19 2.5q-11 -14 -19 -33t-15 -42.5t-13 -36.5q-3 -2 9 -9q17 -10 23 -5zM645 12v38h-15v11h41v-11h-15v-38h-11zM676 12v49h15l9 -38l9 38h14v-49h-9v38l-10 -38h-9l-10 38v-38h-9z" />
<glyph unicode="&#xc9;" d="M386 3q-146 0 -249.5 104t-103.5 250t103.5 250t249.5 104t250 -104t104 -250t-104 -250t-250 -104zM386 51q127 0 216 90t89 216t-89 215.5t-216 89.5q-126 0 -216 -89.5t-90 -215.5t90 -216t216 -90zM386 72q-117 0 -201 83.5t-84 201.5q0 117 84 199.5t201 82.5 t200.5 -82.5t83.5 -199.5q0 -118 -83.5 -201.5t-200.5 -83.5zM386 116q53 0 93.5 32t66.5 75q-156 -41 -320 0q26 -43 66.5 -75t93.5 -32zM216 238q169 -39 341 0l54 86h-450zM349 357h76l-38 91zM294 427q3 -4 18.5 3.5t14.5 10.5q-7 14 -22 54t-27 58q-4 5 -19.5 -2.5 t-28 -18t-10.5 -13.5zM480 427l72 92q2 3 -10.5 13.5t-27.5 18t-19 2.5q-11 -14 -19 -33t-15 -42.5t-13 -36.5q-3 -2 9 -9q17 -10 23 -5zM645 12v38h-15v11h41v-11h-15v-38h-11zM676 12v49h15l9 -38l9 38h14v-49h-9v38l-10 -38h-9l-10 38v-38h-9z" />
<glyph unicode="&#xca;" d="M386 3q-146 0 -249.5 104t-103.5 250t103.5 250t249.5 104t250 -104t104 -250t-104 -250t-250 -104zM386 51q127 0 216 90t89 216t-89 215.5t-216 89.5q-126 0 -216 -89.5t-90 -215.5t90 -216t216 -90zM386 72q-117 0 -201 83.5t-84 201.5q0 117 84 199.5t201 82.5 t200.5 -82.5t83.5 -199.5q0 -118 -83.5 -201.5t-200.5 -83.5zM386 116q53 0 93.5 32t66.5 75q-156 -41 -320 0q26 -43 66.5 -75t93.5 -32zM216 238q169 -39 341 0l54 86h-450zM349 357h76l-38 91zM294 427q3 -4 18.5 3.5t14.5 10.5q-7 14 -22 54t-27 58q-4 5 -19.5 -2.5 t-28 -18t-10.5 -13.5zM480 427l72 92q2 3 -10.5 13.5t-27.5 18t-19 2.5q-11 -14 -19 -33t-15 -42.5t-13 -36.5q-3 -2 9 -9q17 -10 23 -5zM645 12v38h-15v11h41v-11h-15v-38h-11zM676 12v49h15l9 -38l9 38h14v-49h-9v38l-10 -38h-9l-10 38v-38h-9z" />
<glyph unicode="&#xcb;" d="M386 3q-146 0 -249.5 104t-103.5 250t103.5 250t249.5 104t250 -104t104 -250t-104 -250t-250 -104zM386 51q127 0 216 90t89 216t-89 215.5t-216 89.5q-126 0 -216 -89.5t-90 -215.5t90 -216t216 -90zM386 72q-117 0 -201 83.5t-84 201.5q0 117 84 199.5t201 82.5 t200.5 -82.5t83.5 -199.5q0 -118 -83.5 -201.5t-200.5 -83.5zM386 116q53 0 93.5 32t66.5 75q-156 -41 -320 0q26 -43 66.5 -75t93.5 -32zM216 238q169 -39 341 0l54 86h-450zM349 357h76l-38 91zM294 427q3 -4 18.5 3.5t14.5 10.5q-7 14 -22 54t-27 58q-4 5 -19.5 -2.5 t-28 -18t-10.5 -13.5zM480 427l72 92q2 3 -10.5 13.5t-27.5 18t-19 2.5q-11 -14 -19 -33t-15 -42.5t-13 -36.5q-3 -2 9 -9q17 -10 23 -5zM645 12v38h-15v11h41v-11h-15v-38h-11zM676 12v49h15l9 -38l9 38h14v-49h-9v38l-10 -38h-9l-10 38v-38h-9z" />
<glyph unicode="&#xcc;" d="M386 3q-146 0 -249.5 104t-103.5 250t103.5 250t249.5 104t250 -104t104 -250t-104 -250t-250 -104zM386 51q127 0 216 90t89 216t-89 215.5t-216 89.5q-126 0 -216 -89.5t-90 -215.5t90 -216t216 -90zM386 72q-117 0 -201 83.5t-84 201.5q0 117 84 199.5t201 82.5 t200.5 -82.5t83.5 -199.5q0 -118 -83.5 -201.5t-200.5 -83.5zM386 116q53 0 93.5 32t66.5 75q-156 -41 -320 0q26 -43 66.5 -75t93.5 -32zM216 238q169 -39 341 0l54 86h-450zM349 357h76l-38 91zM294 427q3 -4 18.5 3.5t14.5 10.5q-7 14 -22 54t-27 58q-4 5 -19.5 -2.5 t-28 -18t-10.5 -13.5zM480 427l72 92q2 3 -10.5 13.5t-27.5 18t-19 2.5q-11 -14 -19 -33t-15 -42.5t-13 -36.5q-3 -2 9 -9q17 -10 23 -5zM645 12v38h-15v11h41v-11h-15v-38h-11zM676 12v49h15l9 -38l9 38h14v-49h-9v38l-10 -38h-9l-10 38v-38h-9z" />
<glyph unicode="&#xcd;" d="M386 3q-146 0 -249.5 104t-103.5 250t103.5 250t249.5 104t250 -104t104 -250t-104 -250t-250 -104zM386 51q127 0 216 90t89 216t-89 215.5t-216 89.5q-126 0 -216 -89.5t-90 -215.5t90 -216t216 -90zM386 72q-117 0 -201 83.5t-84 201.5q0 117 84 199.5t201 82.5 t200.5 -82.5t83.5 -199.5q0 -118 -83.5 -201.5t-200.5 -83.5zM386 116q53 0 93.5 32t66.5 75q-156 -41 -320 0q26 -43 66.5 -75t93.5 -32zM216 238q169 -39 341 0l54 86h-450zM349 357h76l-38 91zM294 427q3 -4 18.5 3.5t14.5 10.5q-7 14 -22 54t-27 58q-4 5 -19.5 -2.5 t-28 -18t-10.5 -13.5zM480 427l72 92q2 3 -10.5 13.5t-27.5 18t-19 2.5q-11 -14 -19 -33t-15 -42.5t-13 -36.5q-3 -2 9 -9q17 -10 23 -5zM645 12v38h-15v11h41v-11h-15v-38h-11zM676 12v49h15l9 -38l9 38h14v-49h-9v38l-10 -38h-9l-10 38v-38h-9z" />
<glyph unicode="&#xce;" d="M386 3q-146 0 -249.5 104t-103.5 250t103.5 250t249.5 104t250 -104t104 -250t-104 -250t-250 -104zM386 51q127 0 216 90t89 216t-89 215.5t-216 89.5q-126 0 -216 -89.5t-90 -215.5t90 -216t216 -90zM386 72q-117 0 -201 83.5t-84 201.5q0 117 84 199.5t201 82.5 t200.5 -82.5t83.5 -199.5q0 -118 -83.5 -201.5t-200.5 -83.5zM386 116q53 0 93.5 32t66.5 75q-156 -41 -320 0q26 -43 66.5 -75t93.5 -32zM216 238q169 -39 341 0l54 86h-450zM349 357h76l-38 91zM294 427q3 -4 18.5 3.5t14.5 10.5q-7 14 -22 54t-27 58q-4 5 -19.5 -2.5 t-28 -18t-10.5 -13.5zM480 427l72 92q2 3 -10.5 13.5t-27.5 18t-19 2.5q-11 -14 -19 -33t-15 -42.5t-13 -36.5q-3 -2 9 -9q17 -10 23 -5zM645 12v38h-15v11h41v-11h-15v-38h-11zM676 12v49h15l9 -38l9 38h14v-49h-9v38l-10 -38h-9l-10 38v-38h-9z" />
<glyph unicode="&#xcf;" d="M386 3q-146 0 -249.5 104t-103.5 250t103.5 250t249.5 104t250 -104t104 -250t-104 -250t-250 -104zM386 51q127 0 216 90t89 216t-89 215.5t-216 89.5q-126 0 -216 -89.5t-90 -215.5t90 -216t216 -90zM386 72q-117 0 -201 83.5t-84 201.5q0 117 84 199.5t201 82.5 t200.5 -82.5t83.5 -199.5q0 -118 -83.5 -201.5t-200.5 -83.5zM386 116q53 0 93.5 32t66.5 75q-156 -41 -320 0q26 -43 66.5 -75t93.5 -32zM216 238q169 -39 341 0l54 86h-450zM349 357h76l-38 91zM294 427q3 -4 18.5 3.5t14.5 10.5q-7 14 -22 54t-27 58q-4 5 -19.5 -2.5 t-28 -18t-10.5 -13.5zM480 427l72 92q2 3 -10.5 13.5t-27.5 18t-19 2.5q-11 -14 -19 -33t-15 -42.5t-13 -36.5q-3 -2 9 -9q17 -10 23 -5zM645 12v38h-15v11h41v-11h-15v-38h-11zM676 12v49h15l9 -38l9 38h14v-49h-9v38l-10 -38h-9l-10 38v-38h-9z" />
<glyph unicode="&#xd0;" d="M386 3q-146 0 -249.5 104t-103.5 250t103.5 250t249.5 104t250 -104t104 -250t-104 -250t-250 -104zM386 51q127 0 216 90t89 216t-89 215.5t-216 89.5q-126 0 -216 -89.5t-90 -215.5t90 -216t216 -90zM386 72q-117 0 -201 83.5t-84 201.5q0 117 84 199.5t201 82.5 t200.5 -82.5t83.5 -199.5q0 -118 -83.5 -201.5t-200.5 -83.5zM386 116q53 0 93.5 32t66.5 75q-156 -41 -320 0q26 -43 66.5 -75t93.5 -32zM216 238q169 -39 341 0l54 86h-450zM349 357h76l-38 91zM294 427q3 -4 18.5 3.5t14.5 10.5q-7 14 -22 54t-27 58q-4 5 -19.5 -2.5 t-28 -18t-10.5 -13.5zM480 427l72 92q2 3 -10.5 13.5t-27.5 18t-19 2.5q-11 -14 -19 -33t-15 -42.5t-13 -36.5q-3 -2 9 -9q17 -10 23 -5zM645 12v38h-15v11h41v-11h-15v-38h-11zM676 12v49h15l9 -38l9 38h14v-49h-9v38l-10 -38h-9l-10 38v-38h-9z" />
<glyph unicode="&#xd1;" d="M386 3q-146 0 -249.5 104t-103.5 250t103.5 250t249.5 104t250 -104t104 -250t-104 -250t-250 -104zM386 51q127 0 216 90t89 216t-89 215.5t-216 89.5q-126 0 -216 -89.5t-90 -215.5t90 -216t216 -90zM386 72q-117 0 -201 83.5t-84 201.5q0 117 84 199.5t201 82.5 t200.5 -82.5t83.5 -199.5q0 -118 -83.5 -201.5t-200.5 -83.5zM386 116q53 0 93.5 32t66.5 75q-156 -41 -320 0q26 -43 66.5 -75t93.5 -32zM216 238q169 -39 341 0l54 86h-450zM349 357h76l-38 91zM294 427q3 -4 18.5 3.5t14.5 10.5q-7 14 -22 54t-27 58q-4 5 -19.5 -2.5 t-28 -18t-10.5 -13.5zM480 427l72 92q2 3 -10.5 13.5t-27.5 18t-19 2.5q-11 -14 -19 -33t-15 -42.5t-13 -36.5q-3 -2 9 -9q17 -10 23 -5zM645 12v38h-15v11h41v-11h-15v-38h-11zM676 12v49h15l9 -38l9 38h14v-49h-9v38l-10 -38h-9l-10 38v-38h-9z" />
<glyph unicode="&#xd2;" d="M386 3q-146 0 -249.5 104t-103.5 250t103.5 250t249.5 104t250 -104t104 -250t-104 -250t-250 -104zM386 51q127 0 216 90t89 216t-89 215.5t-216 89.5q-126 0 -216 -89.5t-90 -215.5t90 -216t216 -90zM386 72q-117 0 -201 83.5t-84 201.5q0 117 84 199.5t201 82.5 t200.5 -82.5t83.5 -199.5q0 -118 -83.5 -201.5t-200.5 -83.5zM386 116q53 0 93.5 32t66.5 75q-156 -41 -320 0q26 -43 66.5 -75t93.5 -32zM216 238q169 -39 341 0l54 86h-450zM349 357h76l-38 91zM294 427q3 -4 18.5 3.5t14.5 10.5q-7 14 -22 54t-27 58q-4 5 -19.5 -2.5 t-28 -18t-10.5 -13.5zM480 427l72 92q2 3 -10.5 13.5t-27.5 18t-19 2.5q-11 -14 -19 -33t-15 -42.5t-13 -36.5q-3 -2 9 -9q17 -10 23 -5zM645 12v38h-15v11h41v-11h-15v-38h-11zM676 12v49h15l9 -38l9 38h14v-49h-9v38l-10 -38h-9l-10 38v-38h-9z" />
<glyph unicode="&#xd3;" d="M386 3q-146 0 -249.5 104t-103.5 250t103.5 250t249.5 104t250 -104t104 -250t-104 -250t-250 -104zM386 51q127 0 216 90t89 216t-89 215.5t-216 89.5q-126 0 -216 -89.5t-90 -215.5t90 -216t216 -90zM386 72q-117 0 -201 83.5t-84 201.5q0 117 84 199.5t201 82.5 t200.5 -82.5t83.5 -199.5q0 -118 -83.5 -201.5t-200.5 -83.5zM386 116q53 0 93.5 32t66.5 75q-156 -41 -320 0q26 -43 66.5 -75t93.5 -32zM216 238q169 -39 341 0l54 86h-450zM349 357h76l-38 91zM294 427q3 -4 18.5 3.5t14.5 10.5q-7 14 -22 54t-27 58q-4 5 -19.5 -2.5 t-28 -18t-10.5 -13.5zM480 427l72 92q2 3 -10.5 13.5t-27.5 18t-19 2.5q-11 -14 -19 -33t-15 -42.5t-13 -36.5q-3 -2 9 -9q17 -10 23 -5zM645 12v38h-15v11h41v-11h-15v-38h-11zM676 12v49h15l9 -38l9 38h14v-49h-9v38l-10 -38h-9l-10 38v-38h-9z" />
<glyph unicode="&#xd4;" d="M386 3q-146 0 -249.5 104t-103.5 250t103.5 250t249.5 104t250 -104t104 -250t-104 -250t-250 -104zM386 51q127 0 216 90t89 216t-89 215.5t-216 89.5q-126 0 -216 -89.5t-90 -215.5t90 -216t216 -90zM386 72q-117 0 -201 83.5t-84 201.5q0 117 84 199.5t201 82.5 t200.5 -82.5t83.5 -199.5q0 -118 -83.5 -201.5t-200.5 -83.5zM386 116q53 0 93.5 32t66.5 75q-156 -41 -320 0q26 -43 66.5 -75t93.5 -32zM216 238q169 -39 341 0l54 86h-450zM349 357h76l-38 91zM294 427q3 -4 18.5 3.5t14.5 10.5q-7 14 -22 54t-27 58q-4 5 -19.5 -2.5 t-28 -18t-10.5 -13.5zM480 427l72 92q2 3 -10.5 13.5t-27.5 18t-19 2.5q-11 -14 -19 -33t-15 -42.5t-13 -36.5q-3 -2 9 -9q17 -10 23 -5zM645 12v38h-15v11h41v-11h-15v-38h-11zM676 12v49h15l9 -38l9 38h14v-49h-9v38l-10 -38h-9l-10 38v-38h-9z" />
<glyph unicode="&#xd5;" d="M386 3q-146 0 -249.5 104t-103.5 250t103.5 250t249.5 104t250 -104t104 -250t-104 -250t-250 -104zM386 51q127 0 216 90t89 216t-89 215.5t-216 89.5q-126 0 -216 -89.5t-90 -215.5t90 -216t216 -90zM386 72q-117 0 -201 83.5t-84 201.5q0 117 84 199.5t201 82.5 t200.5 -82.5t83.5 -199.5q0 -118 -83.5 -201.5t-200.5 -83.5zM386 116q53 0 93.5 32t66.5 75q-156 -41 -320 0q26 -43 66.5 -75t93.5 -32zM216 238q169 -39 341 0l54 86h-450zM349 357h76l-38 91zM294 427q3 -4 18.5 3.5t14.5 10.5q-7 14 -22 54t-27 58q-4 5 -19.5 -2.5 t-28 -18t-10.5 -13.5zM480 427l72 92q2 3 -10.5 13.5t-27.5 18t-19 2.5q-11 -14 -19 -33t-15 -42.5t-13 -36.5q-3 -2 9 -9q17 -10 23 -5zM645 12v38h-15v11h41v-11h-15v-38h-11zM676 12v49h15l9 -38l9 38h14v-49h-9v38l-10 -38h-9l-10 38v-38h-9z" />
<glyph unicode="&#xd6;" d="M386 3q-146 0 -249.5 104t-103.5 250t103.5 250t249.5 104t250 -104t104 -250t-104 -250t-250 -104zM386 51q127 0 216 90t89 216t-89 215.5t-216 89.5q-126 0 -216 -89.5t-90 -215.5t90 -216t216 -90zM386 72q-117 0 -201 83.5t-84 201.5q0 117 84 199.5t201 82.5 t200.5 -82.5t83.5 -199.5q0 -118 -83.5 -201.5t-200.5 -83.5zM386 116q53 0 93.5 32t66.5 75q-156 -41 -320 0q26 -43 66.5 -75t93.5 -32zM216 238q169 -39 341 0l54 86h-450zM349 357h76l-38 91zM294 427q3 -4 18.5 3.5t14.5 10.5q-7 14 -22 54t-27 58q-4 5 -19.5 -2.5 t-28 -18t-10.5 -13.5zM480 427l72 92q2 3 -10.5 13.5t-27.5 18t-19 2.5q-11 -14 -19 -33t-15 -42.5t-13 -36.5q-3 -2 9 -9q17 -10 23 -5zM645 12v38h-15v11h41v-11h-15v-38h-11zM676 12v49h15l9 -38l9 38h14v-49h-9v38l-10 -38h-9l-10 38v-38h-9z" />
<glyph unicode="&#xd7;" d="M386 3q-146 0 -249.5 104t-103.5 250t103.5 250t249.5 104t250 -104t104 -250t-104 -250t-250 -104zM386 51q127 0 216 90t89 216t-89 215.5t-216 89.5q-126 0 -216 -89.5t-90 -215.5t90 -216t216 -90zM386 72q-117 0 -201 83.5t-84 201.5q0 117 84 199.5t201 82.5 t200.5 -82.5t83.5 -199.5q0 -118 -83.5 -201.5t-200.5 -83.5zM386 116q53 0 93.5 32t66.5 75q-156 -41 -320 0q26 -43 66.5 -75t93.5 -32zM216 238q169 -39 341 0l54 86h-450zM349 357h76l-38 91zM294 427q3 -4 18.5 3.5t14.5 10.5q-7 14 -22 54t-27 58q-4 5 -19.5 -2.5 t-28 -18t-10.5 -13.5zM480 427l72 92q2 3 -10.5 13.5t-27.5 18t-19 2.5q-11 -14 -19 -33t-15 -42.5t-13 -36.5q-3 -2 9 -9q17 -10 23 -5zM645 12v38h-15v11h41v-11h-15v-38h-11zM676 12v49h15l9 -38l9 38h14v-49h-9v38l-10 -38h-9l-10 38v-38h-9z" />
<glyph unicode="&#xd8;" d="M386 3q-146 0 -249.5 104t-103.5 250t103.5 250t249.5 104t250 -104t104 -250t-104 -250t-250 -104zM386 51q127 0 216 90t89 216t-89 215.5t-216 89.5q-126 0 -216 -89.5t-90 -215.5t90 -216t216 -90zM386 72q-117 0 -201 83.5t-84 201.5q0 117 84 199.5t201 82.5 t200.5 -82.5t83.5 -199.5q0 -118 -83.5 -201.5t-200.5 -83.5zM386 116q53 0 93.5 32t66.5 75q-156 -41 -320 0q26 -43 66.5 -75t93.5 -32zM216 238q169 -39 341 0l54 86h-450zM349 357h76l-38 91zM294 427q3 -4 18.5 3.5t14.5 10.5q-7 14 -22 54t-27 58q-4 5 -19.5 -2.5 t-28 -18t-10.5 -13.5zM480 427l72 92q2 3 -10.5 13.5t-27.5 18t-19 2.5q-11 -14 -19 -33t-15 -42.5t-13 -36.5q-3 -2 9 -9q17 -10 23 -5zM645 12v38h-15v11h41v-11h-15v-38h-11zM676 12v49h15l9 -38l9 38h14v-49h-9v38l-10 -38h-9l-10 38v-38h-9z" />
<glyph unicode="&#xd9;" d="M386 3q-146 0 -249.5 104t-103.5 250t103.5 250t249.5 104t250 -104t104 -250t-104 -250t-250 -104zM386 51q127 0 216 90t89 216t-89 215.5t-216 89.5q-126 0 -216 -89.5t-90 -215.5t90 -216t216 -90zM386 72q-117 0 -201 83.5t-84 201.5q0 117 84 199.5t201 82.5 t200.5 -82.5t83.5 -199.5q0 -118 -83.5 -201.5t-200.5 -83.5zM386 116q53 0 93.5 32t66.5 75q-156 -41 -320 0q26 -43 66.5 -75t93.5 -32zM216 238q169 -39 341 0l54 86h-450zM349 357h76l-38 91zM294 427q3 -4 18.5 3.5t14.5 10.5q-7 14 -22 54t-27 58q-4 5 -19.5 -2.5 t-28 -18t-10.5 -13.5zM480 427l72 92q2 3 -10.5 13.5t-27.5 18t-19 2.5q-11 -14 -19 -33t-15 -42.5t-13 -36.5q-3 -2 9 -9q17 -10 23 -5zM645 12v38h-15v11h41v-11h-15v-38h-11zM676 12v49h15l9 -38l9 38h14v-49h-9v38l-10 -38h-9l-10 38v-38h-9z" />
<glyph unicode="&#xda;" d="M386 3q-146 0 -249.5 104t-103.5 250t103.5 250t249.5 104t250 -104t104 -250t-104 -250t-250 -104zM386 51q127 0 216 90t89 216t-89 215.5t-216 89.5q-126 0 -216 -89.5t-90 -215.5t90 -216t216 -90zM386 72q-117 0 -201 83.5t-84 201.5q0 117 84 199.5t201 82.5 t200.5 -82.5t83.5 -199.5q0 -118 -83.5 -201.5t-200.5 -83.5zM386 116q53 0 93.5 32t66.5 75q-156 -41 -320 0q26 -43 66.5 -75t93.5 -32zM216 238q169 -39 341 0l54 86h-450zM349 357h76l-38 91zM294 427q3 -4 18.5 3.5t14.5 10.5q-7 14 -22 54t-27 58q-4 5 -19.5 -2.5 t-28 -18t-10.5 -13.5zM480 427l72 92q2 3 -10.5 13.5t-27.5 18t-19 2.5q-11 -14 -19 -33t-15 -42.5t-13 -36.5q-3 -2 9 -9q17 -10 23 -5zM645 12v38h-15v11h41v-11h-15v-38h-11zM676 12v49h15l9 -38l9 38h14v-49h-9v38l-10 -38h-9l-10 38v-38h-9z" />
<glyph unicode="&#xdb;" d="M386 3q-146 0 -249.5 104t-103.5 250t103.5 250t249.5 104t250 -104t104 -250t-104 -250t-250 -104zM386 51q127 0 216 90t89 216t-89 215.5t-216 89.5q-126 0 -216 -89.5t-90 -215.5t90 -216t216 -90zM386 72q-117 0 -201 83.5t-84 201.5q0 117 84 199.5t201 82.5 t200.5 -82.5t83.5 -199.5q0 -118 -83.5 -201.5t-200.5 -83.5zM386 116q53 0 93.5 32t66.5 75q-156 -41 -320 0q26 -43 66.5 -75t93.5 -32zM216 238q169 -39 341 0l54 86h-450zM349 357h76l-38 91zM294 427q3 -4 18.5 3.5t14.5 10.5q-7 14 -22 54t-27 58q-4 5 -19.5 -2.5 t-28 -18t-10.5 -13.5zM480 427l72 92q2 3 -10.5 13.5t-27.5 18t-19 2.5q-11 -14 -19 -33t-15 -42.5t-13 -36.5q-3 -2 9 -9q17 -10 23 -5zM645 12v38h-15v11h41v-11h-15v-38h-11zM676 12v49h15l9 -38l9 38h14v-49h-9v38l-10 -38h-9l-10 38v-38h-9z" />
<glyph unicode="&#xdc;" d="M386 3q-146 0 -249.5 104t-103.5 250t103.5 250t249.5 104t250 -104t104 -250t-104 -250t-250 -104zM386 51q127 0 216 90t89 216t-89 215.5t-216 89.5q-126 0 -216 -89.5t-90 -215.5t90 -216t216 -90zM386 72q-117 0 -201 83.5t-84 201.5q0 117 84 199.5t201 82.5 t200.5 -82.5t83.5 -199.5q0 -118 -83.5 -201.5t-200.5 -83.5zM386 116q53 0 93.5 32t66.5 75q-156 -41 -320 0q26 -43 66.5 -75t93.5 -32zM216 238q169 -39 341 0l54 86h-450zM349 357h76l-38 91zM294 427q3 -4 18.5 3.5t14.5 10.5q-7 14 -22 54t-27 58q-4 5 -19.5 -2.5 t-28 -18t-10.5 -13.5zM480 427l72 92q2 3 -10.5 13.5t-27.5 18t-19 2.5q-11 -14 -19 -33t-15 -42.5t-13 -36.5q-3 -2 9 -9q17 -10 23 -5zM645 12v38h-15v11h41v-11h-15v-38h-11zM676 12v49h15l9 -38l9 38h14v-49h-9v38l-10 -38h-9l-10 38v-38h-9z" />
<glyph unicode="&#xdd;" d="M386 3q-146 0 -249.5 104t-103.5 250t103.5 250t249.5 104t250 -104t104 -250t-104 -250t-250 -104zM386 51q127 0 216 90t89 216t-89 215.5t-216 89.5q-126 0 -216 -89.5t-90 -215.5t90 -216t216 -90zM386 72q-117 0 -201 83.5t-84 201.5q0 117 84 199.5t201 82.5 t200.5 -82.5t83.5 -199.5q0 -118 -83.5 -201.5t-200.5 -83.5zM386 116q53 0 93.5 32t66.5 75q-156 -41 -320 0q26 -43 66.5 -75t93.5 -32zM216 238q169 -39 341 0l54 86h-450zM349 357h76l-38 91zM294 427q3 -4 18.5 3.5t14.5 10.5q-7 14 -22 54t-27 58q-4 5 -19.5 -2.5 t-28 -18t-10.5 -13.5zM480 427l72 92q2 3 -10.5 13.5t-27.5 18t-19 2.5q-11 -14 -19 -33t-15 -42.5t-13 -36.5q-3 -2 9 -9q17 -10 23 -5zM645 12v38h-15v11h41v-11h-15v-38h-11zM676 12v49h15l9 -38l9 38h14v-49h-9v38l-10 -38h-9l-10 38v-38h-9z" />
<glyph unicode="&#xde;" d="M386 3q-146 0 -249.5 104t-103.5 250t103.5 250t249.5 104t250 -104t104 -250t-104 -250t-250 -104zM386 51q127 0 216 90t89 216t-89 215.5t-216 89.5q-126 0 -216 -89.5t-90 -215.5t90 -216t216 -90zM386 72q-117 0 -201 83.5t-84 201.5q0 117 84 199.5t201 82.5 t200.5 -82.5t83.5 -199.5q0 -118 -83.5 -201.5t-200.5 -83.5zM386 116q53 0 93.5 32t66.5 75q-156 -41 -320 0q26 -43 66.5 -75t93.5 -32zM216 238q169 -39 341 0l54 86h-450zM349 357h76l-38 91zM294 427q3 -4 18.5 3.5t14.5 10.5q-7 14 -22 54t-27 58q-4 5 -19.5 -2.5 t-28 -18t-10.5 -13.5zM480 427l72 92q2 3 -10.5 13.5t-27.5 18t-19 2.5q-11 -14 -19 -33t-15 -42.5t-13 -36.5q-3 -2 9 -9q17 -10 23 -5zM645 12v38h-15v11h41v-11h-15v-38h-11zM676 12v49h15l9 -38l9 38h14v-49h-9v38l-10 -38h-9l-10 38v-38h-9z" />
<glyph unicode="&#xdf;" d="M386 3q-146 0 -249.5 104t-103.5 250t103.5 250t249.5 104t250 -104t104 -250t-104 -250t-250 -104zM386 51q127 0 216 90t89 216t-89 215.5t-216 89.5q-126 0 -216 -89.5t-90 -215.5t90 -216t216 -90zM386 72q-117 0 -201 83.5t-84 201.5q0 117 84 199.5t201 82.5 t200.5 -82.5t83.5 -199.5q0 -118 -83.5 -201.5t-200.5 -83.5zM386 116q53 0 93.5 32t66.5 75q-156 -41 -320 0q26 -43 66.5 -75t93.5 -32zM216 238q169 -39 341 0l54 86h-450zM349 357h76l-38 91zM294 427q3 -4 18.5 3.5t14.5 10.5q-7 14 -22 54t-27 58q-4 5 -19.5 -2.5 t-28 -18t-10.5 -13.5zM480 427l72 92q2 3 -10.5 13.5t-27.5 18t-19 2.5q-11 -14 -19 -33t-15 -42.5t-13 -36.5q-3 -2 9 -9q17 -10 23 -5zM645 12v38h-15v11h41v-11h-15v-38h-11zM676 12v49h15l9 -38l9 38h14v-49h-9v38l-10 -38h-9l-10 38v-38h-9z" />
<glyph unicode="&#xe0;" d="M386 3q-146 0 -249.5 104t-103.5 250t103.5 250t249.5 104t250 -104t104 -250t-104 -250t-250 -104zM386 51q127 0 216 90t89 216t-89 215.5t-216 89.5q-126 0 -216 -89.5t-90 -215.5t90 -216t216 -90zM386 72q-117 0 -201 83.5t-84 201.5q0 117 84 199.5t201 82.5 t200.5 -82.5t83.5 -199.5q0 -118 -83.5 -201.5t-200.5 -83.5zM386 116q53 0 93.5 32t66.5 75q-156 -41 -320 0q26 -43 66.5 -75t93.5 -32zM216 238q169 -39 341 0l54 86h-450zM349 357h76l-38 91zM294 427q3 -4 18.5 3.5t14.5 10.5q-7 14 -22 54t-27 58q-4 5 -19.5 -2.5 t-28 -18t-10.5 -13.5zM480 427l72 92q2 3 -10.5 13.5t-27.5 18t-19 2.5q-11 -14 -19 -33t-15 -42.5t-13 -36.5q-3 -2 9 -9q17 -10 23 -5zM645 12v38h-15v11h41v-11h-15v-38h-11zM676 12v49h15l9 -38l9 38h14v-49h-9v38l-10 -38h-9l-10 38v-38h-9z" />
<glyph unicode="&#xe1;" d="M386 3q-146 0 -249.5 104t-103.5 250t103.5 250t249.5 104t250 -104t104 -250t-104 -250t-250 -104zM386 51q127 0 216 90t89 216t-89 215.5t-216 89.5q-126 0 -216 -89.5t-90 -215.5t90 -216t216 -90zM386 72q-117 0 -201 83.5t-84 201.5q0 117 84 199.5t201 82.5 t200.5 -82.5t83.5 -199.5q0 -118 -83.5 -201.5t-200.5 -83.5zM386 116q53 0 93.5 32t66.5 75q-156 -41 -320 0q26 -43 66.5 -75t93.5 -32zM216 238q169 -39 341 0l54 86h-450zM349 357h76l-38 91zM294 427q3 -4 18.5 3.5t14.5 10.5q-7 14 -22 54t-27 58q-4 5 -19.5 -2.5 t-28 -18t-10.5 -13.5zM480 427l72 92q2 3 -10.5 13.5t-27.5 18t-19 2.5q-11 -14 -19 -33t-15 -42.5t-13 -36.5q-3 -2 9 -9q17 -10 23 -5zM645 12v38h-15v11h41v-11h-15v-38h-11zM676 12v49h15l9 -38l9 38h14v-49h-9v38l-10 -38h-9l-10 38v-38h-9z" />
<glyph unicode="&#xe2;" d="M386 3q-146 0 -249.5 104t-103.5 250t103.5 250t249.5 104t250 -104t104 -250t-104 -250t-250 -104zM386 51q127 0 216 90t89 216t-89 215.5t-216 89.5q-126 0 -216 -89.5t-90 -215.5t90 -216t216 -90zM386 72q-117 0 -201 83.5t-84 201.5q0 117 84 199.5t201 82.5 t200.5 -82.5t83.5 -199.5q0 -118 -83.5 -201.5t-200.5 -83.5zM386 116q53 0 93.5 32t66.5 75q-156 -41 -320 0q26 -43 66.5 -75t93.5 -32zM216 238q169 -39 341 0l54 86h-450zM349 357h76l-38 91zM294 427q3 -4 18.5 3.5t14.5 10.5q-7 14 -22 54t-27 58q-4 5 -19.5 -2.5 t-28 -18t-10.5 -13.5zM480 427l72 92q2 3 -10.5 13.5t-27.5 18t-19 2.5q-11 -14 -19 -33t-15 -42.5t-13 -36.5q-3 -2 9 -9q17 -10 23 -5zM645 12v38h-15v11h41v-11h-15v-38h-11zM676 12v49h15l9 -38l9 38h14v-49h-9v38l-10 -38h-9l-10 38v-38h-9z" />
<glyph unicode="&#xe3;" d="M386 3q-146 0 -249.5 104t-103.5 250t103.5 250t249.5 104t250 -104t104 -250t-104 -250t-250 -104zM386 51q127 0 216 90t89 216t-89 215.5t-216 89.5q-126 0 -216 -89.5t-90 -215.5t90 -216t216 -90zM386 72q-117 0 -201 83.5t-84 201.5q0 117 84 199.5t201 82.5 t200.5 -82.5t83.5 -199.5q0 -118 -83.5 -201.5t-200.5 -83.5zM386 116q53 0 93.5 32t66.5 75q-156 -41 -320 0q26 -43 66.5 -75t93.5 -32zM216 238q169 -39 341 0l54 86h-450zM349 357h76l-38 91zM294 427q3 -4 18.5 3.5t14.5 10.5q-7 14 -22 54t-27 58q-4 5 -19.5 -2.5 t-28 -18t-10.5 -13.5zM480 427l72 92q2 3 -10.5 13.5t-27.5 18t-19 2.5q-11 -14 -19 -33t-15 -42.5t-13 -36.5q-3 -2 9 -9q17 -10 23 -5zM645 12v38h-15v11h41v-11h-15v-38h-11zM676 12v49h15l9 -38l9 38h14v-49h-9v38l-10 -38h-9l-10 38v-38h-9z" />
<glyph unicode="&#xe4;" d="M386 3q-146 0 -249.5 104t-103.5 250t103.5 250t249.5 104t250 -104t104 -250t-104 -250t-250 -104zM386 51q127 0 216 90t89 216t-89 215.5t-216 89.5q-126 0 -216 -89.5t-90 -215.5t90 -216t216 -90zM386 72q-117 0 -201 83.5t-84 201.5q0 117 84 199.5t201 82.5 t200.5 -82.5t83.5 -199.5q0 -118 -83.5 -201.5t-200.5 -83.5zM386 116q53 0 93.5 32t66.5 75q-156 -41 -320 0q26 -43 66.5 -75t93.5 -32zM216 238q169 -39 341 0l54 86h-450zM349 357h76l-38 91zM294 427q3 -4 18.5 3.5t14.5 10.5q-7 14 -22 54t-27 58q-4 5 -19.5 -2.5 t-28 -18t-10.5 -13.5zM480 427l72 92q2 3 -10.5 13.5t-27.5 18t-19 2.5q-11 -14 -19 -33t-15 -42.5t-13 -36.5q-3 -2 9 -9q17 -10 23 -5zM645 12v38h-15v11h41v-11h-15v-38h-11zM676 12v49h15l9 -38l9 38h14v-49h-9v38l-10 -38h-9l-10 38v-38h-9z" />
<glyph unicode="&#xe5;" d="M386 3q-146 0 -249.5 104t-103.5 250t103.5 250t249.5 104t250 -104t104 -250t-104 -250t-250 -104zM386 51q127 0 216 90t89 216t-89 215.5t-216 89.5q-126 0 -216 -89.5t-90 -215.5t90 -216t216 -90zM386 72q-117 0 -201 83.5t-84 201.5q0 117 84 199.5t201 82.5 t200.5 -82.5t83.5 -199.5q0 -118 -83.5 -201.5t-200.5 -83.5zM386 116q53 0 93.5 32t66.5 75q-156 -41 -320 0q26 -43 66.5 -75t93.5 -32zM216 238q169 -39 341 0l54 86h-450zM349 357h76l-38 91zM294 427q3 -4 18.5 3.5t14.5 10.5q-7 14 -22 54t-27 58q-4 5 -19.5 -2.5 t-28 -18t-10.5 -13.5zM480 427l72 92q2 3 -10.5 13.5t-27.5 18t-19 2.5q-11 -14 -19 -33t-15 -42.5t-13 -36.5q-3 -2 9 -9q17 -10 23 -5zM645 12v38h-15v11h41v-11h-15v-38h-11zM676 12v49h15l9 -38l9 38h14v-49h-9v38l-10 -38h-9l-10 38v-38h-9z" />
<glyph unicode="&#xe6;" d="M386 3q-146 0 -249.5 104t-103.5 250t103.5 250t249.5 104t250 -104t104 -250t-104 -250t-250 -104zM386 51q127 0 216 90t89 216t-89 215.5t-216 89.5q-126 0 -216 -89.5t-90 -215.5t90 -216t216 -90zM386 72q-117 0 -201 83.5t-84 201.5q0 117 84 199.5t201 82.5 t200.5 -82.5t83.5 -199.5q0 -118 -83.5 -201.5t-200.5 -83.5zM386 116q53 0 93.5 32t66.5 75q-156 -41 -320 0q26 -43 66.5 -75t93.5 -32zM216 238q169 -39 341 0l54 86h-450zM349 357h76l-38 91zM294 427q3 -4 18.5 3.5t14.5 10.5q-7 14 -22 54t-27 58q-4 5 -19.5 -2.5 t-28 -18t-10.5 -13.5zM480 427l72 92q2 3 -10.5 13.5t-27.5 18t-19 2.5q-11 -14 -19 -33t-15 -42.5t-13 -36.5q-3 -2 9 -9q17 -10 23 -5zM645 12v38h-15v11h41v-11h-15v-38h-11zM676 12v49h15l9 -38l9 38h14v-49h-9v38l-10 -38h-9l-10 38v-38h-9z" />
<glyph unicode="&#xe7;" d="M386 3q-146 0 -249.5 104t-103.5 250t103.5 250t249.5 104t250 -104t104 -250t-104 -250t-250 -104zM386 51q127 0 216 90t89 216t-89 215.5t-216 89.5q-126 0 -216 -89.5t-90 -215.5t90 -216t216 -90zM386 72q-117 0 -201 83.5t-84 201.5q0 117 84 199.5t201 82.5 t200.5 -82.5t83.5 -199.5q0 -118 -83.5 -201.5t-200.5 -83.5zM386 116q53 0 93.5 32t66.5 75q-156 -41 -320 0q26 -43 66.5 -75t93.5 -32zM216 238q169 -39 341 0l54 86h-450zM349 357h76l-38 91zM294 427q3 -4 18.5 3.5t14.5 10.5q-7 14 -22 54t-27 58q-4 5 -19.5 -2.5 t-28 -18t-10.5 -13.5zM480 427l72 92q2 3 -10.5 13.5t-27.5 18t-19 2.5q-11 -14 -19 -33t-15 -42.5t-13 -36.5q-3 -2 9 -9q17 -10 23 -5zM645 12v38h-15v11h41v-11h-15v-38h-11zM676 12v49h15l9 -38l9 38h14v-49h-9v38l-10 -38h-9l-10 38v-38h-9z" />
<glyph unicode="&#xe8;" d="M386 3q-146 0 -249.5 104t-103.5 250t103.5 250t249.5 104t250 -104t104 -250t-104 -250t-250 -104zM386 51q127 0 216 90t89 216t-89 215.5t-216 89.5q-126 0 -216 -89.5t-90 -215.5t90 -216t216 -90zM386 72q-117 0 -201 83.5t-84 201.5q0 117 84 199.5t201 82.5 t200.5 -82.5t83.5 -199.5q0 -118 -83.5 -201.5t-200.5 -83.5zM386 116q53 0 93.5 32t66.5 75q-156 -41 -320 0q26 -43 66.5 -75t93.5 -32zM216 238q169 -39 341 0l54 86h-450zM349 357h76l-38 91zM294 427q3 -4 18.5 3.5t14.5 10.5q-7 14 -22 54t-27 58q-4 5 -19.5 -2.5 t-28 -18t-10.5 -13.5zM480 427l72 92q2 3 -10.5 13.5t-27.5 18t-19 2.5q-11 -14 -19 -33t-15 -42.5t-13 -36.5q-3 -2 9 -9q17 -10 23 -5zM645 12v38h-15v11h41v-11h-15v-38h-11zM676 12v49h15l9 -38l9 38h14v-49h-9v38l-10 -38h-9l-10 38v-38h-9z" />
<glyph unicode="&#xe9;" d="M386 3q-146 0 -249.5 104t-103.5 250t103.5 250t249.5 104t250 -104t104 -250t-104 -250t-250 -104zM386 51q127 0 216 90t89 216t-89 215.5t-216 89.5q-126 0 -216 -89.5t-90 -215.5t90 -216t216 -90zM386 72q-117 0 -201 83.5t-84 201.5q0 117 84 199.5t201 82.5 t200.5 -82.5t83.5 -199.5q0 -118 -83.5 -201.5t-200.5 -83.5zM386 116q53 0 93.5 32t66.5 75q-156 -41 -320 0q26 -43 66.5 -75t93.5 -32zM216 238q169 -39 341 0l54 86h-450zM349 357h76l-38 91zM294 427q3 -4 18.5 3.5t14.5 10.5q-7 14 -22 54t-27 58q-4 5 -19.5 -2.5 t-28 -18t-10.5 -13.5zM480 427l72 92q2 3 -10.5 13.5t-27.5 18t-19 2.5q-11 -14 -19 -33t-15 -42.5t-13 -36.5q-3 -2 9 -9q17 -10 23 -5zM645 12v38h-15v11h41v-11h-15v-38h-11zM676 12v49h15l9 -38l9 38h14v-49h-9v38l-10 -38h-9l-10 38v-38h-9z" />
<glyph unicode="&#xea;" d="M386 3q-146 0 -249.5 104t-103.5 250t103.5 250t249.5 104t250 -104t104 -250t-104 -250t-250 -104zM386 51q127 0 216 90t89 216t-89 215.5t-216 89.5q-126 0 -216 -89.5t-90 -215.5t90 -216t216 -90zM386 72q-117 0 -201 83.5t-84 201.5q0 117 84 199.5t201 82.5 t200.5 -82.5t83.5 -199.5q0 -118 -83.5 -201.5t-200.5 -83.5zM386 116q53 0 93.5 32t66.5 75q-156 -41 -320 0q26 -43 66.5 -75t93.5 -32zM216 238q169 -39 341 0l54 86h-450zM349 357h76l-38 91zM294 427q3 -4 18.5 3.5t14.5 10.5q-7 14 -22 54t-27 58q-4 5 -19.5 -2.5 t-28 -18t-10.5 -13.5zM480 427l72 92q2 3 -10.5 13.5t-27.5 18t-19 2.5q-11 -14 -19 -33t-15 -42.5t-13 -36.5q-3 -2 9 -9q17 -10 23 -5zM645 12v38h-15v11h41v-11h-15v-38h-11zM676 12v49h15l9 -38l9 38h14v-49h-9v38l-10 -38h-9l-10 38v-38h-9z" />
<glyph unicode="&#xeb;" d="M386 3q-146 0 -249.5 104t-103.5 250t103.5 250t249.5 104t250 -104t104 -250t-104 -250t-250 -104zM386 51q127 0 216 90t89 216t-89 215.5t-216 89.5q-126 0 -216 -89.5t-90 -215.5t90 -216t216 -90zM386 72q-117 0 -201 83.5t-84 201.5q0 117 84 199.5t201 82.5 t200.5 -82.5t83.5 -199.5q0 -118 -83.5 -201.5t-200.5 -83.5zM386 116q53 0 93.5 32t66.5 75q-156 -41 -320 0q26 -43 66.5 -75t93.5 -32zM216 238q169 -39 341 0l54 86h-450zM349 357h76l-38 91zM294 427q3 -4 18.5 3.5t14.5 10.5q-7 14 -22 54t-27 58q-4 5 -19.5 -2.5 t-28 -18t-10.5 -13.5zM480 427l72 92q2 3 -10.5 13.5t-27.5 18t-19 2.5q-11 -14 -19 -33t-15 -42.5t-13 -36.5q-3 -2 9 -9q17 -10 23 -5zM645 12v38h-15v11h41v-11h-15v-38h-11zM676 12v49h15l9 -38l9 38h14v-49h-9v38l-10 -38h-9l-10 38v-38h-9z" />
<glyph unicode="&#xec;" d="M386 3q-146 0 -249.5 104t-103.5 250t103.5 250t249.5 104t250 -104t104 -250t-104 -250t-250 -104zM386 51q127 0 216 90t89 216t-89 215.5t-216 89.5q-126 0 -216 -89.5t-90 -215.5t90 -216t216 -90zM386 72q-117 0 -201 83.5t-84 201.5q0 117 84 199.5t201 82.5 t200.5 -82.5t83.5 -199.5q0 -118 -83.5 -201.5t-200.5 -83.5zM386 116q53 0 93.5 32t66.5 75q-156 -41 -320 0q26 -43 66.5 -75t93.5 -32zM216 238q169 -39 341 0l54 86h-450zM349 357h76l-38 91zM294 427q3 -4 18.5 3.5t14.5 10.5q-7 14 -22 54t-27 58q-4 5 -19.5 -2.5 t-28 -18t-10.5 -13.5zM480 427l72 92q2 3 -10.5 13.5t-27.5 18t-19 2.5q-11 -14 -19 -33t-15 -42.5t-13 -36.5q-3 -2 9 -9q17 -10 23 -5zM645 12v38h-15v11h41v-11h-15v-38h-11zM676 12v49h15l9 -38l9 38h14v-49h-9v38l-10 -38h-9l-10 38v-38h-9z" />
<glyph unicode="&#xed;" d="M386 3q-146 0 -249.5 104t-103.5 250t103.5 250t249.5 104t250 -104t104 -250t-104 -250t-250 -104zM386 51q127 0 216 90t89 216t-89 215.5t-216 89.5q-126 0 -216 -89.5t-90 -215.5t90 -216t216 -90zM386 72q-117 0 -201 83.5t-84 201.5q0 117 84 199.5t201 82.5 t200.5 -82.5t83.5 -199.5q0 -118 -83.5 -201.5t-200.5 -83.5zM386 116q53 0 93.5 32t66.5 75q-156 -41 -320 0q26 -43 66.5 -75t93.5 -32zM216 238q169 -39 341 0l54 86h-450zM349 357h76l-38 91zM294 427q3 -4 18.5 3.5t14.5 10.5q-7 14 -22 54t-27 58q-4 5 -19.5 -2.5 t-28 -18t-10.5 -13.5zM480 427l72 92q2 3 -10.5 13.5t-27.5 18t-19 2.5q-11 -14 -19 -33t-15 -42.5t-13 -36.5q-3 -2 9 -9q17 -10 23 -5zM645 12v38h-15v11h41v-11h-15v-38h-11zM676 12v49h15l9 -38l9 38h14v-49h-9v38l-10 -38h-9l-10 38v-38h-9z" />
<glyph unicode="&#xee;" d="M386 3q-146 0 -249.5 104t-103.5 250t103.5 250t249.5 104t250 -104t104 -250t-104 -250t-250 -104zM386 51q127 0 216 90t89 216t-89 215.5t-216 89.5q-126 0 -216 -89.5t-90 -215.5t90 -216t216 -90zM386 72q-117 0 -201 83.5t-84 201.5q0 117 84 199.5t201 82.5 t200.5 -82.5t83.5 -199.5q0 -118 -83.5 -201.5t-200.5 -83.5zM386 116q53 0 93.5 32t66.5 75q-156 -41 -320 0q26 -43 66.5 -75t93.5 -32zM216 238q169 -39 341 0l54 86h-450zM349 357h76l-38 91zM294 427q3 -4 18.5 3.5t14.5 10.5q-7 14 -22 54t-27 58q-4 5 -19.5 -2.5 t-28 -18t-10.5 -13.5zM480 427l72 92q2 3 -10.5 13.5t-27.5 18t-19 2.5q-11 -14 -19 -33t-15 -42.5t-13 -36.5q-3 -2 9 -9q17 -10 23 -5zM645 12v38h-15v11h41v-11h-15v-38h-11zM676 12v49h15l9 -38l9 38h14v-49h-9v38l-10 -38h-9l-10 38v-38h-9z" />
<glyph unicode="&#xef;" d="M386 3q-146 0 -249.5 104t-103.5 250t103.5 250t249.5 104t250 -104t104 -250t-104 -250t-250 -104zM386 51q127 0 216 90t89 216t-89 215.5t-216 89.5q-126 0 -216 -89.5t-90 -215.5t90 -216t216 -90zM386 72q-117 0 -201 83.5t-84 201.5q0 117 84 199.5t201 82.5 t200.5 -82.5t83.5 -199.5q0 -118 -83.5 -201.5t-200.5 -83.5zM386 116q53 0 93.5 32t66.5 75q-156 -41 -320 0q26 -43 66.5 -75t93.5 -32zM216 238q169 -39 341 0l54 86h-450zM349 357h76l-38 91zM294 427q3 -4 18.5 3.5t14.5 10.5q-7 14 -22 54t-27 58q-4 5 -19.5 -2.5 t-28 -18t-10.5 -13.5zM480 427l72 92q2 3 -10.5 13.5t-27.5 18t-19 2.5q-11 -14 -19 -33t-15 -42.5t-13 -36.5q-3 -2 9 -9q17 -10 23 -5zM645 12v38h-15v11h41v-11h-15v-38h-11zM676 12v49h15l9 -38l9 38h14v-49h-9v38l-10 -38h-9l-10 38v-38h-9z" />
<glyph unicode="&#xf0;" d="M386 3q-146 0 -249.5 104t-103.5 250t103.5 250t249.5 104t250 -104t104 -250t-104 -250t-250 -104zM386 51q127 0 216 90t89 216t-89 215.5t-216 89.5q-126 0 -216 -89.5t-90 -215.5t90 -216t216 -90zM386 72q-117 0 -201 83.5t-84 201.5q0 117 84 199.5t201 82.5 t200.5 -82.5t83.5 -199.5q0 -118 -83.5 -201.5t-200.5 -83.5zM386 116q53 0 93.5 32t66.5 75q-156 -41 -320 0q26 -43 66.5 -75t93.5 -32zM216 238q169 -39 341 0l54 86h-450zM349 357h76l-38 91zM294 427q3 -4 18.5 3.5t14.5 10.5q-7 14 -22 54t-27 58q-4 5 -19.5 -2.5 t-28 -18t-10.5 -13.5zM480 427l72 92q2 3 -10.5 13.5t-27.5 18t-19 2.5q-11 -14 -19 -33t-15 -42.5t-13 -36.5q-3 -2 9 -9q17 -10 23 -5zM645 12v38h-15v11h41v-11h-15v-38h-11zM676 12v49h15l9 -38l9 38h14v-49h-9v38l-10 -38h-9l-10 38v-38h-9z" />
<glyph unicode="&#xf1;" d="M386 3q-146 0 -249.5 104t-103.5 250t103.5 250t249.5 104t250 -104t104 -250t-104 -250t-250 -104zM386 51q127 0 216 90t89 216t-89 215.5t-216 89.5q-126 0 -216 -89.5t-90 -215.5t90 -216t216 -90zM386 72q-117 0 -201 83.5t-84 201.5q0 117 84 199.5t201 82.5 t200.5 -82.5t83.5 -199.5q0 -118 -83.5 -201.5t-200.5 -83.5zM386 116q53 0 93.5 32t66.5 75q-156 -41 -320 0q26 -43 66.5 -75t93.5 -32zM216 238q169 -39 341 0l54 86h-450zM349 357h76l-38 91zM294 427q3 -4 18.5 3.5t14.5 10.5q-7 14 -22 54t-27 58q-4 5 -19.5 -2.5 t-28 -18t-10.5 -13.5zM480 427l72 92q2 3 -10.5 13.5t-27.5 18t-19 2.5q-11 -14 -19 -33t-15 -42.5t-13 -36.5q-3 -2 9 -9q17 -10 23 -5zM645 12v38h-15v11h41v-11h-15v-38h-11zM676 12v49h15l9 -38l9 38h14v-49h-9v38l-10 -38h-9l-10 38v-38h-9z" />
<glyph unicode="&#xf2;" d="M386 3q-146 0 -249.5 104t-103.5 250t103.5 250t249.5 104t250 -104t104 -250t-104 -250t-250 -104zM386 51q127 0 216 90t89 216t-89 215.5t-216 89.5q-126 0 -216 -89.5t-90 -215.5t90 -216t216 -90zM386 72q-117 0 -201 83.5t-84 201.5q0 117 84 199.5t201 82.5 t200.5 -82.5t83.5 -199.5q0 -118 -83.5 -201.5t-200.5 -83.5zM386 116q53 0 93.5 32t66.5 75q-156 -41 -320 0q26 -43 66.5 -75t93.5 -32zM216 238q169 -39 341 0l54 86h-450zM349 357h76l-38 91zM294 427q3 -4 18.5 3.5t14.5 10.5q-7 14 -22 54t-27 58q-4 5 -19.5 -2.5 t-28 -18t-10.5 -13.5zM480 427l72 92q2 3 -10.5 13.5t-27.5 18t-19 2.5q-11 -14 -19 -33t-15 -42.5t-13 -36.5q-3 -2 9 -9q17 -10 23 -5zM645 12v38h-15v11h41v-11h-15v-38h-11zM676 12v49h15l9 -38l9 38h14v-49h-9v38l-10 -38h-9l-10 38v-38h-9z" />
<glyph unicode="&#xf3;" d="M386 3q-146 0 -249.5 104t-103.5 250t103.5 250t249.5 104t250 -104t104 -250t-104 -250t-250 -104zM386 51q127 0 216 90t89 216t-89 215.5t-216 89.5q-126 0 -216 -89.5t-90 -215.5t90 -216t216 -90zM386 72q-117 0 -201 83.5t-84 201.5q0 117 84 199.5t201 82.5 t200.5 -82.5t83.5 -199.5q0 -118 -83.5 -201.5t-200.5 -83.5zM386 116q53 0 93.5 32t66.5 75q-156 -41 -320 0q26 -43 66.5 -75t93.5 -32zM216 238q169 -39 341 0l54 86h-450zM349 357h76l-38 91zM294 427q3 -4 18.5 3.5t14.5 10.5q-7 14 -22 54t-27 58q-4 5 -19.5 -2.5 t-28 -18t-10.5 -13.5zM480 427l72 92q2 3 -10.5 13.5t-27.5 18t-19 2.5q-11 -14 -19 -33t-15 -42.5t-13 -36.5q-3 -2 9 -9q17 -10 23 -5zM645 12v38h-15v11h41v-11h-15v-38h-11zM676 12v49h15l9 -38l9 38h14v-49h-9v38l-10 -38h-9l-10 38v-38h-9z" />
<glyph unicode="&#xf4;" d="M386 3q-146 0 -249.5 104t-103.5 250t103.5 250t249.5 104t250 -104t104 -250t-104 -250t-250 -104zM386 51q127 0 216 90t89 216t-89 215.5t-216 89.5q-126 0 -216 -89.5t-90 -215.5t90 -216t216 -90zM386 72q-117 0 -201 83.5t-84 201.5q0 117 84 199.5t201 82.5 t200.5 -82.5t83.5 -199.5q0 -118 -83.5 -201.5t-200.5 -83.5zM386 116q53 0 93.5 32t66.5 75q-156 -41 -320 0q26 -43 66.5 -75t93.5 -32zM216 238q169 -39 341 0l54 86h-450zM349 357h76l-38 91zM294 427q3 -4 18.5 3.5t14.5 10.5q-7 14 -22 54t-27 58q-4 5 -19.5 -2.5 t-28 -18t-10.5 -13.5zM480 427l72 92q2 3 -10.5 13.5t-27.5 18t-19 2.5q-11 -14 -19 -33t-15 -42.5t-13 -36.5q-3 -2 9 -9q17 -10 23 -5zM645 12v38h-15v11h41v-11h-15v-38h-11zM676 12v49h15l9 -38l9 38h14v-49h-9v38l-10 -38h-9l-10 38v-38h-9z" />
<glyph unicode="&#xf5;" d="M386 3q-146 0 -249.5 104t-103.5 250t103.5 250t249.5 104t250 -104t104 -250t-104 -250t-250 -104zM386 51q127 0 216 90t89 216t-89 215.5t-216 89.5q-126 0 -216 -89.5t-90 -215.5t90 -216t216 -90zM386 72q-117 0 -201 83.5t-84 201.5q0 117 84 199.5t201 82.5 t200.5 -82.5t83.5 -199.5q0 -118 -83.5 -201.5t-200.5 -83.5zM386 116q53 0 93.5 32t66.5 75q-156 -41 -320 0q26 -43 66.5 -75t93.5 -32zM216 238q169 -39 341 0l54 86h-450zM349 357h76l-38 91zM294 427q3 -4 18.5 3.5t14.5 10.5q-7 14 -22 54t-27 58q-4 5 -19.5 -2.5 t-28 -18t-10.5 -13.5zM480 427l72 92q2 3 -10.5 13.5t-27.5 18t-19 2.5q-11 -14 -19 -33t-15 -42.5t-13 -36.5q-3 -2 9 -9q17 -10 23 -5zM645 12v38h-15v11h41v-11h-15v-38h-11zM676 12v49h15l9 -38l9 38h14v-49h-9v38l-10 -38h-9l-10 38v-38h-9z" />
<glyph unicode="&#xf6;" d="M386 3q-146 0 -249.5 104t-103.5 250t103.5 250t249.5 104t250 -104t104 -250t-104 -250t-250 -104zM386 51q127 0 216 90t89 216t-89 215.5t-216 89.5q-126 0 -216 -89.5t-90 -215.5t90 -216t216 -90zM386 72q-117 0 -201 83.5t-84 201.5q0 117 84 199.5t201 82.5 t200.5 -82.5t83.5 -199.5q0 -118 -83.5 -201.5t-200.5 -83.5zM386 116q53 0 93.5 32t66.5 75q-156 -41 -320 0q26 -43 66.5 -75t93.5 -32zM216 238q169 -39 341 0l54 86h-450zM349 357h76l-38 91zM294 427q3 -4 18.5 3.5t14.5 10.5q-7 14 -22 54t-27 58q-4 5 -19.5 -2.5 t-28 -18t-10.5 -13.5zM480 427l72 92q2 3 -10.5 13.5t-27.5 18t-19 2.5q-11 -14 -19 -33t-15 -42.5t-13 -36.5q-3 -2 9 -9q17 -10 23 -5zM645 12v38h-15v11h41v-11h-15v-38h-11zM676 12v49h15l9 -38l9 38h14v-49h-9v38l-10 -38h-9l-10 38v-38h-9z" />
<glyph unicode="&#xf7;" d="M386 3q-146 0 -249.5 104t-103.5 250t103.5 250t249.5 104t250 -104t104 -250t-104 -250t-250 -104zM386 51q127 0 216 90t89 216t-89 215.5t-216 89.5q-126 0 -216 -89.5t-90 -215.5t90 -216t216 -90zM386 72q-117 0 -201 83.5t-84 201.5q0 117 84 199.5t201 82.5 t200.5 -82.5t83.5 -199.5q0 -118 -83.5 -201.5t-200.5 -83.5zM386 116q53 0 93.5 32t66.5 75q-156 -41 -320 0q26 -43 66.5 -75t93.5 -32zM216 238q169 -39 341 0l54 86h-450zM349 357h76l-38 91zM294 427q3 -4 18.5 3.5t14.5 10.5q-7 14 -22 54t-27 58q-4 5 -19.5 -2.5 t-28 -18t-10.5 -13.5zM480 427l72 92q2 3 -10.5 13.5t-27.5 18t-19 2.5q-11 -14 -19 -33t-15 -42.5t-13 -36.5q-3 -2 9 -9q17 -10 23 -5zM645 12v38h-15v11h41v-11h-15v-38h-11zM676 12v49h15l9 -38l9 38h14v-49h-9v38l-10 -38h-9l-10 38v-38h-9z" />
<glyph unicode="&#xf8;" d="M386 3q-146 0 -249.5 104t-103.5 250t103.5 250t249.5 104t250 -104t104 -250t-104 -250t-250 -104zM386 51q127 0 216 90t89 216t-89 215.5t-216 89.5q-126 0 -216 -89.5t-90 -215.5t90 -216t216 -90zM386 72q-117 0 -201 83.5t-84 201.5q0 117 84 199.5t201 82.5 t200.5 -82.5t83.5 -199.5q0 -118 -83.5 -201.5t-200.5 -83.5zM386 116q53 0 93.5 32t66.5 75q-156 -41 -320 0q26 -43 66.5 -75t93.5 -32zM216 238q169 -39 341 0l54 86h-450zM349 357h76l-38 91zM294 427q3 -4 18.5 3.5t14.5 10.5q-7 14 -22 54t-27 58q-4 5 -19.5 -2.5 t-28 -18t-10.5 -13.5zM480 427l72 92q2 3 -10.5 13.5t-27.5 18t-19 2.5q-11 -14 -19 -33t-15 -42.5t-13 -36.5q-3 -2 9 -9q17 -10 23 -5zM645 12v38h-15v11h41v-11h-15v-38h-11zM676 12v49h15l9 -38l9 38h14v-49h-9v38l-10 -38h-9l-10 38v-38h-9z" />
<glyph unicode="&#xf9;" d="M386 3q-146 0 -249.5 104t-103.5 250t103.5 250t249.5 104t250 -104t104 -250t-104 -250t-250 -104zM386 51q127 0 216 90t89 216t-89 215.5t-216 89.5q-126 0 -216 -89.5t-90 -215.5t90 -216t216 -90zM386 72q-117 0 -201 83.5t-84 201.5q0 117 84 199.5t201 82.5 t200.5 -82.5t83.5 -199.5q0 -118 -83.5 -201.5t-200.5 -83.5zM386 116q53 0 93.5 32t66.5 75q-156 -41 -320 0q26 -43 66.5 -75t93.5 -32zM216 238q169 -39 341 0l54 86h-450zM349 357h76l-38 91zM294 427q3 -4 18.5 3.5t14.5 10.5q-7 14 -22 54t-27 58q-4 5 -19.5 -2.5 t-28 -18t-10.5 -13.5zM480 427l72 92q2 3 -10.5 13.5t-27.5 18t-19 2.5q-11 -14 -19 -33t-15 -42.5t-13 -36.5q-3 -2 9 -9q17 -10 23 -5zM645 12v38h-15v11h41v-11h-15v-38h-11zM676 12v49h15l9 -38l9 38h14v-49h-9v38l-10 -38h-9l-10 38v-38h-9z" />
<glyph unicode="&#xfa;" d="M386 3q-146 0 -249.5 104t-103.5 250t103.5 250t249.5 104t250 -104t104 -250t-104 -250t-250 -104zM386 51q127 0 216 90t89 216t-89 215.5t-216 89.5q-126 0 -216 -89.5t-90 -215.5t90 -216t216 -90zM386 72q-117 0 -201 83.5t-84 201.5q0 117 84 199.5t201 82.5 t200.5 -82.5t83.5 -199.5q0 -118 -83.5 -201.5t-200.5 -83.5zM386 116q53 0 93.5 32t66.5 75q-156 -41 -320 0q26 -43 66.5 -75t93.5 -32zM216 238q169 -39 341 0l54 86h-450zM349 357h76l-38 91zM294 427q3 -4 18.5 3.5t14.5 10.5q-7 14 -22 54t-27 58q-4 5 -19.5 -2.5 t-28 -18t-10.5 -13.5zM480 427l72 92q2 3 -10.5 13.5t-27.5 18t-19 2.5q-11 -14 -19 -33t-15 -42.5t-13 -36.5q-3 -2 9 -9q17 -10 23 -5zM645 12v38h-15v11h41v-11h-15v-38h-11zM676 12v49h15l9 -38l9 38h14v-49h-9v38l-10 -38h-9l-10 38v-38h-9z" />
<glyph unicode="&#xfb;" d="M386 3q-146 0 -249.5 104t-103.5 250t103.5 250t249.5 104t250 -104t104 -250t-104 -250t-250 -104zM386 51q127 0 216 90t89 216t-89 215.5t-216 89.5q-126 0 -216 -89.5t-90 -215.5t90 -216t216 -90zM386 72q-117 0 -201 83.5t-84 201.5q0 117 84 199.5t201 82.5 t200.5 -82.5t83.5 -199.5q0 -118 -83.5 -201.5t-200.5 -83.5zM386 116q53 0 93.5 32t66.5 75q-156 -41 -320 0q26 -43 66.5 -75t93.5 -32zM216 238q169 -39 341 0l54 86h-450zM349 357h76l-38 91zM294 427q3 -4 18.5 3.5t14.5 10.5q-7 14 -22 54t-27 58q-4 5 -19.5 -2.5 t-28 -18t-10.5 -13.5zM480 427l72 92q2 3 -10.5 13.5t-27.5 18t-19 2.5q-11 -14 -19 -33t-15 -42.5t-13 -36.5q-3 -2 9 -9q17 -10 23 -5zM645 12v38h-15v11h41v-11h-15v-38h-11zM676 12v49h15l9 -38l9 38h14v-49h-9v38l-10 -38h-9l-10 38v-38h-9z" />
<glyph unicode="&#xfc;" d="M386 3q-146 0 -249.5 104t-103.5 250t103.5 250t249.5 104t250 -104t104 -250t-104 -250t-250 -104zM386 51q127 0 216 90t89 216t-89 215.5t-216 89.5q-126 0 -216 -89.5t-90 -215.5t90 -216t216 -90zM386 72q-117 0 -201 83.5t-84 201.5q0 117 84 199.5t201 82.5 t200.5 -82.5t83.5 -199.5q0 -118 -83.5 -201.5t-200.5 -83.5zM386 116q53 0 93.5 32t66.5 75q-156 -41 -320 0q26 -43 66.5 -75t93.5 -32zM216 238q169 -39 341 0l54 86h-450zM349 357h76l-38 91zM294 427q3 -4 18.5 3.5t14.5 10.5q-7 14 -22 54t-27 58q-4 5 -19.5 -2.5 t-28 -18t-10.5 -13.5zM480 427l72 92q2 3 -10.5 13.5t-27.5 18t-19 2.5q-11 -14 -19 -33t-15 -42.5t-13 -36.5q-3 -2 9 -9q17 -10 23 -5zM645 12v38h-15v11h41v-11h-15v-38h-11zM676 12v49h15l9 -38l9 38h14v-49h-9v38l-10 -38h-9l-10 38v-38h-9z" />
<glyph unicode="&#xfd;" d="M386 3q-146 0 -249.5 104t-103.5 250t103.5 250t249.5 104t250 -104t104 -250t-104 -250t-250 -104zM386 51q127 0 216 90t89 216t-89 215.5t-216 89.5q-126 0 -216 -89.5t-90 -215.5t90 -216t216 -90zM386 72q-117 0 -201 83.5t-84 201.5q0 117 84 199.5t201 82.5 t200.5 -82.5t83.5 -199.5q0 -118 -83.5 -201.5t-200.5 -83.5zM386 116q53 0 93.5 32t66.5 75q-156 -41 -320 0q26 -43 66.5 -75t93.5 -32zM216 238q169 -39 341 0l54 86h-450zM349 357h76l-38 91zM294 427q3 -4 18.5 3.5t14.5 10.5q-7 14 -22 54t-27 58q-4 5 -19.5 -2.5 t-28 -18t-10.5 -13.5zM480 427l72 92q2 3 -10.5 13.5t-27.5 18t-19 2.5q-11 -14 -19 -33t-15 -42.5t-13 -36.5q-3 -2 9 -9q17 -10 23 -5zM645 12v38h-15v11h41v-11h-15v-38h-11zM676 12v49h15l9 -38l9 38h14v-49h-9v38l-10 -38h-9l-10 38v-38h-9z" />
<glyph unicode="&#xfe;" d="M386 3q-146 0 -249.5 104t-103.5 250t103.5 250t249.5 104t250 -104t104 -250t-104 -250t-250 -104zM386 51q127 0 216 90t89 216t-89 215.5t-216 89.5q-126 0 -216 -89.5t-90 -215.5t90 -216t216 -90zM386 72q-117 0 -201 83.5t-84 201.5q0 117 84 199.5t201 82.5 t200.5 -82.5t83.5 -199.5q0 -118 -83.5 -201.5t-200.5 -83.5zM386 116q53 0 93.5 32t66.5 75q-156 -41 -320 0q26 -43 66.5 -75t93.5 -32zM216 238q169 -39 341 0l54 86h-450zM349 357h76l-38 91zM294 427q3 -4 18.5 3.5t14.5 10.5q-7 14 -22 54t-27 58q-4 5 -19.5 -2.5 t-28 -18t-10.5 -13.5zM480 427l72 92q2 3 -10.5 13.5t-27.5 18t-19 2.5q-11 -14 -19 -33t-15 -42.5t-13 -36.5q-3 -2 9 -9q17 -10 23 -5zM645 12v38h-15v11h41v-11h-15v-38h-11zM676 12v49h15l9 -38l9 38h14v-49h-9v38l-10 -38h-9l-10 38v-38h-9z" />
<glyph unicode="&#xff;" d="M386 3q-146 0 -249.5 104t-103.5 250t103.5 250t249.5 104t250 -104t104 -250t-104 -250t-250 -104zM386 51q127 0 216 90t89 216t-89 215.5t-216 89.5q-126 0 -216 -89.5t-90 -215.5t90 -216t216 -90zM386 72q-117 0 -201 83.5t-84 201.5q0 117 84 199.5t201 82.5 t200.5 -82.5t83.5 -199.5q0 -118 -83.5 -201.5t-200.5 -83.5zM386 116q53 0 93.5 32t66.5 75q-156 -41 -320 0q26 -43 66.5 -75t93.5 -32zM216 238q169 -39 341 0l54 86h-450zM349 357h76l-38 91zM294 427q3 -4 18.5 3.5t14.5 10.5q-7 14 -22 54t-27 58q-4 5 -19.5 -2.5 t-28 -18t-10.5 -13.5zM480 427l72 92q2 3 -10.5 13.5t-27.5 18t-19 2.5q-11 -14 -19 -33t-15 -42.5t-13 -36.5q-3 -2 9 -9q17 -10 23 -5zM645 12v38h-15v11h41v-11h-15v-38h-11zM676 12v49h15l9 -38l9 38h14v-49h-9v38l-10 -38h-9l-10 38v-38h-9z" />
<glyph unicode="&#x152;" d="M386 3q-146 0 -249.5 104t-103.5 250t103.5 250t249.5 104t250 -104t104 -250t-104 -250t-250 -104zM386 51q127 0 216 90t89 216t-89 215.5t-216 89.5q-126 0 -216 -89.5t-90 -215.5t90 -216t216 -90zM386 72q-117 0 -201 83.5t-84 201.5q0 117 84 199.5t201 82.5 t200.5 -82.5t83.5 -199.5q0 -118 -83.5 -201.5t-200.5 -83.5zM386 116q53 0 93.5 32t66.5 75q-156 -41 -320 0q26 -43 66.5 -75t93.5 -32zM216 238q169 -39 341 0l54 86h-450zM349 357h76l-38 91zM294 427q3 -4 18.5 3.5t14.5 10.5q-7 14 -22 54t-27 58q-4 5 -19.5 -2.5 t-28 -18t-10.5 -13.5zM480 427l72 92q2 3 -10.5 13.5t-27.5 18t-19 2.5q-11 -14 -19 -33t-15 -42.5t-13 -36.5q-3 -2 9 -9q17 -10 23 -5zM645 12v38h-15v11h41v-11h-15v-38h-11zM676 12v49h15l9 -38l9 38h14v-49h-9v38l-10 -38h-9l-10 38v-38h-9z" />
<glyph unicode="&#x153;" d="M386 3q-146 0 -249.5 104t-103.5 250t103.5 250t249.5 104t250 -104t104 -250t-104 -250t-250 -104zM386 51q127 0 216 90t89 216t-89 215.5t-216 89.5q-126 0 -216 -89.5t-90 -215.5t90 -216t216 -90zM386 72q-117 0 -201 83.5t-84 201.5q0 117 84 199.5t201 82.5 t200.5 -82.5t83.5 -199.5q0 -118 -83.5 -201.5t-200.5 -83.5zM386 116q53 0 93.5 32t66.5 75q-156 -41 -320 0q26 -43 66.5 -75t93.5 -32zM216 238q169 -39 341 0l54 86h-450zM349 357h76l-38 91zM294 427q3 -4 18.5 3.5t14.5 10.5q-7 14 -22 54t-27 58q-4 5 -19.5 -2.5 t-28 -18t-10.5 -13.5zM480 427l72 92q2 3 -10.5 13.5t-27.5 18t-19 2.5q-11 -14 -19 -33t-15 -42.5t-13 -36.5q-3 -2 9 -9q17 -10 23 -5zM645 12v38h-15v11h41v-11h-15v-38h-11zM676 12v49h15l9 -38l9 38h14v-49h-9v38l-10 -38h-9l-10 38v-38h-9z" />
<glyph unicode="&#x160;" d="M386 3q-146 0 -249.5 104t-103.5 250t103.5 250t249.5 104t250 -104t104 -250t-104 -250t-250 -104zM386 51q127 0 216 90t89 216t-89 215.5t-216 89.5q-126 0 -216 -89.5t-90 -215.5t90 -216t216 -90zM386 72q-117 0 -201 83.5t-84 201.5q0 117 84 199.5t201 82.5 t200.5 -82.5t83.5 -199.5q0 -118 -83.5 -201.5t-200.5 -83.5zM386 116q53 0 93.5 32t66.5 75q-156 -41 -320 0q26 -43 66.5 -75t93.5 -32zM216 238q169 -39 341 0l54 86h-450zM349 357h76l-38 91zM294 427q3 -4 18.5 3.5t14.5 10.5q-7 14 -22 54t-27 58q-4 5 -19.5 -2.5 t-28 -18t-10.5 -13.5zM480 427l72 92q2 3 -10.5 13.5t-27.5 18t-19 2.5q-11 -14 -19 -33t-15 -42.5t-13 -36.5q-3 -2 9 -9q17 -10 23 -5zM645 12v38h-15v11h41v-11h-15v-38h-11zM676 12v49h15l9 -38l9 38h14v-49h-9v38l-10 -38h-9l-10 38v-38h-9z" />
<glyph unicode="&#x161;" d="M386 3q-146 0 -249.5 104t-103.5 250t103.5 250t249.5 104t250 -104t104 -250t-104 -250t-250 -104zM386 51q127 0 216 90t89 216t-89 215.5t-216 89.5q-126 0 -216 -89.5t-90 -215.5t90 -216t216 -90zM386 72q-117 0 -201 83.5t-84 201.5q0 117 84 199.5t201 82.5 t200.5 -82.5t83.5 -199.5q0 -118 -83.5 -201.5t-200.5 -83.5zM386 116q53 0 93.5 32t66.5 75q-156 -41 -320 0q26 -43 66.5 -75t93.5 -32zM216 238q169 -39 341 0l54 86h-450zM349 357h76l-38 91zM294 427q3 -4 18.5 3.5t14.5 10.5q-7 14 -22 54t-27 58q-4 5 -19.5 -2.5 t-28 -18t-10.5 -13.5zM480 427l72 92q2 3 -10.5 13.5t-27.5 18t-19 2.5q-11 -14 -19 -33t-15 -42.5t-13 -36.5q-3 -2 9 -9q17 -10 23 -5zM645 12v38h-15v11h41v-11h-15v-38h-11zM676 12v49h15l9 -38l9 38h14v-49h-9v38l-10 -38h-9l-10 38v-38h-9z" />
<glyph unicode="&#x178;" d="M386 3q-146 0 -249.5 104t-103.5 250t103.5 250t249.5 104t250 -104t104 -250t-104 -250t-250 -104zM386 51q127 0 216 90t89 216t-89 215.5t-216 89.5q-126 0 -216 -89.5t-90 -215.5t90 -216t216 -90zM386 72q-117 0 -201 83.5t-84 201.5q0 117 84 199.5t201 82.5 t200.5 -82.5t83.5 -199.5q0 -118 -83.5 -201.5t-200.5 -83.5zM386 116q53 0 93.5 32t66.5 75q-156 -41 -320 0q26 -43 66.5 -75t93.5 -32zM216 238q169 -39 341 0l54 86h-450zM349 357h76l-38 91zM294 427q3 -4 18.5 3.5t14.5 10.5q-7 14 -22 54t-27 58q-4 5 -19.5 -2.5 t-28 -18t-10.5 -13.5zM480 427l72 92q2 3 -10.5 13.5t-27.5 18t-19 2.5q-11 -14 -19 -33t-15 -42.5t-13 -36.5q-3 -2 9 -9q17 -10 23 -5zM645 12v38h-15v11h41v-11h-15v-38h-11zM676 12v49h15l9 -38l9 38h14v-49h-9v38l-10 -38h-9l-10 38v-38h-9z" />
<glyph unicode="&#x17d;" d="M386 3q-146 0 -249.5 104t-103.5 250t103.5 250t249.5 104t250 -104t104 -250t-104 -250t-250 -104zM386 51q127 0 216 90t89 216t-89 215.5t-216 89.5q-126 0 -216 -89.5t-90 -215.5t90 -216t216 -90zM386 72q-117 0 -201 83.5t-84 201.5q0 117 84 199.5t201 82.5 t200.5 -82.5t83.5 -199.5q0 -118 -83.5 -201.5t-200.5 -83.5zM386 116q53 0 93.5 32t66.5 75q-156 -41 -320 0q26 -43 66.5 -75t93.5 -32zM216 238q169 -39 341 0l54 86h-450zM349 357h76l-38 91zM294 427q3 -4 18.5 3.5t14.5 10.5q-7 14 -22 54t-27 58q-4 5 -19.5 -2.5 t-28 -18t-10.5 -13.5zM480 427l72 92q2 3 -10.5 13.5t-27.5 18t-19 2.5q-11 -14 -19 -33t-15 -42.5t-13 -36.5q-3 -2 9 -9q17 -10 23 -5zM645 12v38h-15v11h41v-11h-15v-38h-11zM676 12v49h15l9 -38l9 38h14v-49h-9v38l-10 -38h-9l-10 38v-38h-9z" />
<glyph unicode="&#x17e;" d="M386 3q-146 0 -249.5 104t-103.5 250t103.5 250t249.5 104t250 -104t104 -250t-104 -250t-250 -104zM386 51q127 0 216 90t89 216t-89 215.5t-216 89.5q-126 0 -216 -89.5t-90 -215.5t90 -216t216 -90zM386 72q-117 0 -201 83.5t-84 201.5q0 117 84 199.5t201 82.5 t200.5 -82.5t83.5 -199.5q0 -118 -83.5 -201.5t-200.5 -83.5zM386 116q53 0 93.5 32t66.5 75q-156 -41 -320 0q26 -43 66.5 -75t93.5 -32zM216 238q169 -39 341 0l54 86h-450zM349 357h76l-38 91zM294 427q3 -4 18.5 3.5t14.5 10.5q-7 14 -22 54t-27 58q-4 5 -19.5 -2.5 t-28 -18t-10.5 -13.5zM480 427l72 92q2 3 -10.5 13.5t-27.5 18t-19 2.5q-11 -14 -19 -33t-15 -42.5t-13 -36.5q-3 -2 9 -9q17 -10 23 -5zM645 12v38h-15v11h41v-11h-15v-38h-11zM676 12v49h15l9 -38l9 38h14v-49h-9v38l-10 -38h-9l-10 38v-38h-9z" />
<glyph unicode="&#x192;" d="M386 3q-146 0 -249.5 104t-103.5 250t103.5 250t249.5 104t250 -104t104 -250t-104 -250t-250 -104zM386 51q127 0 216 90t89 216t-89 215.5t-216 89.5q-126 0 -216 -89.5t-90 -215.5t90 -216t216 -90zM386 72q-117 0 -201 83.5t-84 201.5q0 117 84 199.5t201 82.5 t200.5 -82.5t83.5 -199.5q0 -118 -83.5 -201.5t-200.5 -83.5zM386 116q53 0 93.5 32t66.5 75q-156 -41 -320 0q26 -43 66.5 -75t93.5 -32zM216 238q169 -39 341 0l54 86h-450zM349 357h76l-38 91zM294 427q3 -4 18.5 3.5t14.5 10.5q-7 14 -22 54t-27 58q-4 5 -19.5 -2.5 t-28 -18t-10.5 -13.5zM480 427l72 92q2 3 -10.5 13.5t-27.5 18t-19 2.5q-11 -14 -19 -33t-15 -42.5t-13 -36.5q-3 -2 9 -9q17 -10 23 -5zM645 12v38h-15v11h41v-11h-15v-38h-11zM676 12v49h15l9 -38l9 38h14v-49h-9v38l-10 -38h-9l-10 38v-38h-9z" />
<glyph unicode="&#x2c6;" d="M386 3q-146 0 -249.5 104t-103.5 250t103.5 250t249.5 104t250 -104t104 -250t-104 -250t-250 -104zM386 51q127 0 216 90t89 216t-89 215.5t-216 89.5q-126 0 -216 -89.5t-90 -215.5t90 -216t216 -90zM386 72q-117 0 -201 83.5t-84 201.5q0 117 84 199.5t201 82.5 t200.5 -82.5t83.5 -199.5q0 -118 -83.5 -201.5t-200.5 -83.5zM386 116q53 0 93.5 32t66.5 75q-156 -41 -320 0q26 -43 66.5 -75t93.5 -32zM216 238q169 -39 341 0l54 86h-450zM349 357h76l-38 91zM294 427q3 -4 18.5 3.5t14.5 10.5q-7 14 -22 54t-27 58q-4 5 -19.5 -2.5 t-28 -18t-10.5 -13.5zM480 427l72 92q2 3 -10.5 13.5t-27.5 18t-19 2.5q-11 -14 -19 -33t-15 -42.5t-13 -36.5q-3 -2 9 -9q17 -10 23 -5zM645 12v38h-15v11h41v-11h-15v-38h-11zM676 12v49h15l9 -38l9 38h14v-49h-9v38l-10 -38h-9l-10 38v-38h-9z" />
<glyph unicode="&#x2dc;" d="M386 3q-146 0 -249.5 104t-103.5 250t103.5 250t249.5 104t250 -104t104 -250t-104 -250t-250 -104zM386 51q127 0 216 90t89 216t-89 215.5t-216 89.5q-126 0 -216 -89.5t-90 -215.5t90 -216t216 -90zM386 72q-117 0 -201 83.5t-84 201.5q0 117 84 199.5t201 82.5 t200.5 -82.5t83.5 -199.5q0 -118 -83.5 -201.5t-200.5 -83.5zM386 116q53 0 93.5 32t66.5 75q-156 -41 -320 0q26 -43 66.5 -75t93.5 -32zM216 238q169 -39 341 0l54 86h-450zM349 357h76l-38 91zM294 427q3 -4 18.5 3.5t14.5 10.5q-7 14 -22 54t-27 58q-4 5 -19.5 -2.5 t-28 -18t-10.5 -13.5zM480 427l72 92q2 3 -10.5 13.5t-27.5 18t-19 2.5q-11 -14 -19 -33t-15 -42.5t-13 -36.5q-3 -2 9 -9q17 -10 23 -5zM645 12v38h-15v11h41v-11h-15v-38h-11zM676 12v49h15l9 -38l9 38h14v-49h-9v38l-10 -38h-9l-10 38v-38h-9z" />
<glyph unicode="&#x2013;" d="M386 3q-146 0 -249.5 104t-103.5 250t103.5 250t249.5 104t250 -104t104 -250t-104 -250t-250 -104zM386 51q127 0 216 90t89 216t-89 215.5t-216 89.5q-126 0 -216 -89.5t-90 -215.5t90 -216t216 -90zM386 72q-117 0 -201 83.5t-84 201.5q0 117 84 199.5t201 82.5 t200.5 -82.5t83.5 -199.5q0 -118 -83.5 -201.5t-200.5 -83.5zM386 116q53 0 93.5 32t66.5 75q-156 -41 -320 0q26 -43 66.5 -75t93.5 -32zM216 238q169 -39 341 0l54 86h-450zM349 357h76l-38 91zM294 427q3 -4 18.5 3.5t14.5 10.5q-7 14 -22 54t-27 58q-4 5 -19.5 -2.5 t-28 -18t-10.5 -13.5zM480 427l72 92q2 3 -10.5 13.5t-27.5 18t-19 2.5q-11 -14 -19 -33t-15 -42.5t-13 -36.5q-3 -2 9 -9q17 -10 23 -5zM645 12v38h-15v11h41v-11h-15v-38h-11zM676 12v49h15l9 -38l9 38h14v-49h-9v38l-10 -38h-9l-10 38v-38h-9z" />
<glyph unicode="&#x2014;" d="M386 3q-146 0 -249.5 104t-103.5 250t103.5 250t249.5 104t250 -104t104 -250t-104 -250t-250 -104zM386 51q127 0 216 90t89 216t-89 215.5t-216 89.5q-126 0 -216 -89.5t-90 -215.5t90 -216t216 -90zM386 72q-117 0 -201 83.5t-84 201.5q0 117 84 199.5t201 82.5 t200.5 -82.5t83.5 -199.5q0 -118 -83.5 -201.5t-200.5 -83.5zM386 116q53 0 93.5 32t66.5 75q-156 -41 -320 0q26 -43 66.5 -75t93.5 -32zM216 238q169 -39 341 0l54 86h-450zM349 357h76l-38 91zM294 427q3 -4 18.5 3.5t14.5 10.5q-7 14 -22 54t-27 58q-4 5 -19.5 -2.5 t-28 -18t-10.5 -13.5zM480 427l72 92q2 3 -10.5 13.5t-27.5 18t-19 2.5q-11 -14 -19 -33t-15 -42.5t-13 -36.5q-3 -2 9 -9q17 -10 23 -5zM645 12v38h-15v11h41v-11h-15v-38h-11zM676 12v49h15l9 -38l9 38h14v-49h-9v38l-10 -38h-9l-10 38v-38h-9z" />
<glyph unicode="&#x2018;" d="M386 3q-146 0 -249.5 104t-103.5 250t103.5 250t249.5 104t250 -104t104 -250t-104 -250t-250 -104zM386 51q127 0 216 90t89 216t-89 215.5t-216 89.5q-126 0 -216 -89.5t-90 -215.5t90 -216t216 -90zM386 72q-117 0 -201 83.5t-84 201.5q0 117 84 199.5t201 82.5 t200.5 -82.5t83.5 -199.5q0 -118 -83.5 -201.5t-200.5 -83.5zM386 116q53 0 93.5 32t66.5 75q-156 -41 -320 0q26 -43 66.5 -75t93.5 -32zM216 238q169 -39 341 0l54 86h-450zM349 357h76l-38 91zM294 427q3 -4 18.5 3.5t14.5 10.5q-7 14 -22 54t-27 58q-4 5 -19.5 -2.5 t-28 -18t-10.5 -13.5zM480 427l72 92q2 3 -10.5 13.5t-27.5 18t-19 2.5q-11 -14 -19 -33t-15 -42.5t-13 -36.5q-3 -2 9 -9q17 -10 23 -5zM645 12v38h-15v11h41v-11h-15v-38h-11zM676 12v49h15l9 -38l9 38h14v-49h-9v38l-10 -38h-9l-10 38v-38h-9z" />
<glyph unicode="&#x2019;" d="M386 3q-146 0 -249.5 104t-103.5 250t103.5 250t249.5 104t250 -104t104 -250t-104 -250t-250 -104zM386 51q127 0 216 90t89 216t-89 215.5t-216 89.5q-126 0 -216 -89.5t-90 -215.5t90 -216t216 -90zM386 72q-117 0 -201 83.5t-84 201.5q0 117 84 199.5t201 82.5 t200.5 -82.5t83.5 -199.5q0 -118 -83.5 -201.5t-200.5 -83.5zM386 116q53 0 93.5 32t66.5 75q-156 -41 -320 0q26 -43 66.5 -75t93.5 -32zM216 238q169 -39 341 0l54 86h-450zM349 357h76l-38 91zM294 427q3 -4 18.5 3.5t14.5 10.5q-7 14 -22 54t-27 58q-4 5 -19.5 -2.5 t-28 -18t-10.5 -13.5zM480 427l72 92q2 3 -10.5 13.5t-27.5 18t-19 2.5q-11 -14 -19 -33t-15 -42.5t-13 -36.5q-3 -2 9 -9q17 -10 23 -5zM645 12v38h-15v11h41v-11h-15v-38h-11zM676 12v49h15l9 -38l9 38h14v-49h-9v38l-10 -38h-9l-10 38v-38h-9z" />
<glyph unicode="&#x201a;" d="M386 3q-146 0 -249.5 104t-103.5 250t103.5 250t249.5 104t250 -104t104 -250t-104 -250t-250 -104zM386 51q127 0 216 90t89 216t-89 215.5t-216 89.5q-126 0 -216 -89.5t-90 -215.5t90 -216t216 -90zM386 72q-117 0 -201 83.5t-84 201.5q0 117 84 199.5t201 82.5 t200.5 -82.5t83.5 -199.5q0 -118 -83.5 -201.5t-200.5 -83.5zM386 116q53 0 93.5 32t66.5 75q-156 -41 -320 0q26 -43 66.5 -75t93.5 -32zM216 238q169 -39 341 0l54 86h-450zM349 357h76l-38 91zM294 427q3 -4 18.5 3.5t14.5 10.5q-7 14 -22 54t-27 58q-4 5 -19.5 -2.5 t-28 -18t-10.5 -13.5zM480 427l72 92q2 3 -10.5 13.5t-27.5 18t-19 2.5q-11 -14 -19 -33t-15 -42.5t-13 -36.5q-3 -2 9 -9q17 -10 23 -5zM645 12v38h-15v11h41v-11h-15v-38h-11zM676 12v49h15l9 -38l9 38h14v-49h-9v38l-10 -38h-9l-10 38v-38h-9z" />
<glyph unicode="&#x201c;" d="M386 3q-146 0 -249.5 104t-103.5 250t103.5 250t249.5 104t250 -104t104 -250t-104 -250t-250 -104zM386 51q127 0 216 90t89 216t-89 215.5t-216 89.5q-126 0 -216 -89.5t-90 -215.5t90 -216t216 -90zM386 72q-117 0 -201 83.5t-84 201.5q0 117 84 199.5t201 82.5 t200.5 -82.5t83.5 -199.5q0 -118 -83.5 -201.5t-200.5 -83.5zM386 116q53 0 93.5 32t66.5 75q-156 -41 -320 0q26 -43 66.5 -75t93.5 -32zM216 238q169 -39 341 0l54 86h-450zM349 357h76l-38 91zM294 427q3 -4 18.5 3.5t14.5 10.5q-7 14 -22 54t-27 58q-4 5 -19.5 -2.5 t-28 -18t-10.5 -13.5zM480 427l72 92q2 3 -10.5 13.5t-27.5 18t-19 2.5q-11 -14 -19 -33t-15 -42.5t-13 -36.5q-3 -2 9 -9q17 -10 23 -5zM645 12v38h-15v11h41v-11h-15v-38h-11zM676 12v49h15l9 -38l9 38h14v-49h-9v38l-10 -38h-9l-10 38v-38h-9z" />
<glyph unicode="&#x201d;" d="M386 3q-146 0 -249.5 104t-103.5 250t103.5 250t249.5 104t250 -104t104 -250t-104 -250t-250 -104zM386 51q127 0 216 90t89 216t-89 215.5t-216 89.5q-126 0 -216 -89.5t-90 -215.5t90 -216t216 -90zM386 72q-117 0 -201 83.5t-84 201.5q0 117 84 199.5t201 82.5 t200.5 -82.5t83.5 -199.5q0 -118 -83.5 -201.5t-200.5 -83.5zM386 116q53 0 93.5 32t66.5 75q-156 -41 -320 0q26 -43 66.5 -75t93.5 -32zM216 238q169 -39 341 0l54 86h-450zM349 357h76l-38 91zM294 427q3 -4 18.5 3.5t14.5 10.5q-7 14 -22 54t-27 58q-4 5 -19.5 -2.5 t-28 -18t-10.5 -13.5zM480 427l72 92q2 3 -10.5 13.5t-27.5 18t-19 2.5q-11 -14 -19 -33t-15 -42.5t-13 -36.5q-3 -2 9 -9q17 -10 23 -5zM645 12v38h-15v11h41v-11h-15v-38h-11zM676 12v49h15l9 -38l9 38h14v-49h-9v38l-10 -38h-9l-10 38v-38h-9z" />
<glyph unicode="&#x201e;" d="M386 3q-146 0 -249.5 104t-103.5 250t103.5 250t249.5 104t250 -104t104 -250t-104 -250t-250 -104zM386 51q127 0 216 90t89 216t-89 215.5t-216 89.5q-126 0 -216 -89.5t-90 -215.5t90 -216t216 -90zM386 72q-117 0 -201 83.5t-84 201.5q0 117 84 199.5t201 82.5 t200.5 -82.5t83.5 -199.5q0 -118 -83.5 -201.5t-200.5 -83.5zM386 116q53 0 93.5 32t66.5 75q-156 -41 -320 0q26 -43 66.5 -75t93.5 -32zM216 238q169 -39 341 0l54 86h-450zM349 357h76l-38 91zM294 427q3 -4 18.5 3.5t14.5 10.5q-7 14 -22 54t-27 58q-4 5 -19.5 -2.5 t-28 -18t-10.5 -13.5zM480 427l72 92q2 3 -10.5 13.5t-27.5 18t-19 2.5q-11 -14 -19 -33t-15 -42.5t-13 -36.5q-3 -2 9 -9q17 -10 23 -5zM645 12v38h-15v11h41v-11h-15v-38h-11zM676 12v49h15l9 -38l9 38h14v-49h-9v38l-10 -38h-9l-10 38v-38h-9z" />
<glyph unicode="&#x2020;" d="M386 3q-146 0 -249.5 104t-103.5 250t103.5 250t249.5 104t250 -104t104 -250t-104 -250t-250 -104zM386 51q127 0 216 90t89 216t-89 215.5t-216 89.5q-126 0 -216 -89.5t-90 -215.5t90 -216t216 -90zM386 72q-117 0 -201 83.5t-84 201.5q0 117 84 199.5t201 82.5 t200.5 -82.5t83.5 -199.5q0 -118 -83.5 -201.5t-200.5 -83.5zM386 116q53 0 93.5 32t66.5 75q-156 -41 -320 0q26 -43 66.5 -75t93.5 -32zM216 238q169 -39 341 0l54 86h-450zM349 357h76l-38 91zM294 427q3 -4 18.5 3.5t14.5 10.5q-7 14 -22 54t-27 58q-4 5 -19.5 -2.5 t-28 -18t-10.5 -13.5zM480 427l72 92q2 3 -10.5 13.5t-27.5 18t-19 2.5q-11 -14 -19 -33t-15 -42.5t-13 -36.5q-3 -2 9 -9q17 -10 23 -5zM645 12v38h-15v11h41v-11h-15v-38h-11zM676 12v49h15l9 -38l9 38h14v-49h-9v38l-10 -38h-9l-10 38v-38h-9z" />
<glyph unicode="&#x2021;" d="M386 3q-146 0 -249.5 104t-103.5 250t103.5 250t249.5 104t250 -104t104 -250t-104 -250t-250 -104zM386 51q127 0 216 90t89 216t-89 215.5t-216 89.5q-126 0 -216 -89.5t-90 -215.5t90 -216t216 -90zM386 72q-117 0 -201 83.5t-84 201.5q0 117 84 199.5t201 82.5 t200.5 -82.5t83.5 -199.5q0 -118 -83.5 -201.5t-200.5 -83.5zM386 116q53 0 93.5 32t66.5 75q-156 -41 -320 0q26 -43 66.5 -75t93.5 -32zM216 238q169 -39 341 0l54 86h-450zM349 357h76l-38 91zM294 427q3 -4 18.5 3.5t14.5 10.5q-7 14 -22 54t-27 58q-4 5 -19.5 -2.5 t-28 -18t-10.5 -13.5zM480 427l72 92q2 3 -10.5 13.5t-27.5 18t-19 2.5q-11 -14 -19 -33t-15 -42.5t-13 -36.5q-3 -2 9 -9q17 -10 23 -5zM645 12v38h-15v11h41v-11h-15v-38h-11zM676 12v49h15l9 -38l9 38h14v-49h-9v38l-10 -38h-9l-10 38v-38h-9z" />
<glyph unicode="&#x2022;" d="M386 3q-146 0 -249.5 104t-103.5 250t103.5 250t249.5 104t250 -104t104 -250t-104 -250t-250 -104zM386 51q127 0 216 90t89 216t-89 215.5t-216 89.5q-126 0 -216 -89.5t-90 -215.5t90 -216t216 -90zM386 72q-117 0 -201 83.5t-84 201.5q0 117 84 199.5t201 82.5 t200.5 -82.5t83.5 -199.5q0 -118 -83.5 -201.5t-200.5 -83.5zM386 116q53 0 93.5 32t66.5 75q-156 -41 -320 0q26 -43 66.5 -75t93.5 -32zM216 238q169 -39 341 0l54 86h-450zM349 357h76l-38 91zM294 427q3 -4 18.5 3.5t14.5 10.5q-7 14 -22 54t-27 58q-4 5 -19.5 -2.5 t-28 -18t-10.5 -13.5zM480 427l72 92q2 3 -10.5 13.5t-27.5 18t-19 2.5q-11 -14 -19 -33t-15 -42.5t-13 -36.5q-3 -2 9 -9q17 -10 23 -5zM645 12v38h-15v11h41v-11h-15v-38h-11zM676 12v49h15l9 -38l9 38h14v-49h-9v38l-10 -38h-9l-10 38v-38h-9z" />
<glyph unicode="&#x2026;" d="M386 3q-146 0 -249.5 104t-103.5 250t103.5 250t249.5 104t250 -104t104 -250t-104 -250t-250 -104zM386 51q127 0 216 90t89 216t-89 215.5t-216 89.5q-126 0 -216 -89.5t-90 -215.5t90 -216t216 -90zM386 72q-117 0 -201 83.5t-84 201.5q0 117 84 199.5t201 82.5 t200.5 -82.5t83.5 -199.5q0 -118 -83.5 -201.5t-200.5 -83.5zM386 116q53 0 93.5 32t66.5 75q-156 -41 -320 0q26 -43 66.5 -75t93.5 -32zM216 238q169 -39 341 0l54 86h-450zM349 357h76l-38 91zM294 427q3 -4 18.5 3.5t14.5 10.5q-7 14 -22 54t-27 58q-4 5 -19.5 -2.5 t-28 -18t-10.5 -13.5zM480 427l72 92q2 3 -10.5 13.5t-27.5 18t-19 2.5q-11 -14 -19 -33t-15 -42.5t-13 -36.5q-3 -2 9 -9q17 -10 23 -5zM645 12v38h-15v11h41v-11h-15v-38h-11zM676 12v49h15l9 -38l9 38h14v-49h-9v38l-10 -38h-9l-10 38v-38h-9z" />
<glyph unicode="&#x2030;" d="M386 3q-146 0 -249.5 104t-103.5 250t103.5 250t249.5 104t250 -104t104 -250t-104 -250t-250 -104zM386 51q127 0 216 90t89 216t-89 215.5t-216 89.5q-126 0 -216 -89.5t-90 -215.5t90 -216t216 -90zM386 72q-117 0 -201 83.5t-84 201.5q0 117 84 199.5t201 82.5 t200.5 -82.5t83.5 -199.5q0 -118 -83.5 -201.5t-200.5 -83.5zM386 116q53 0 93.5 32t66.5 75q-156 -41 -320 0q26 -43 66.5 -75t93.5 -32zM216 238q169 -39 341 0l54 86h-450zM349 357h76l-38 91zM294 427q3 -4 18.5 3.5t14.5 10.5q-7 14 -22 54t-27 58q-4 5 -19.5 -2.5 t-28 -18t-10.5 -13.5zM480 427l72 92q2 3 -10.5 13.5t-27.5 18t-19 2.5q-11 -14 -19 -33t-15 -42.5t-13 -36.5q-3 -2 9 -9q17 -10 23 -5zM645 12v38h-15v11h41v-11h-15v-38h-11zM676 12v49h15l9 -38l9 38h14v-49h-9v38l-10 -38h-9l-10 38v-38h-9z" />
<glyph unicode="&#x2039;" d="M386 3q-146 0 -249.5 104t-103.5 250t103.5 250t249.5 104t250 -104t104 -250t-104 -250t-250 -104zM386 51q127 0 216 90t89 216t-89 215.5t-216 89.5q-126 0 -216 -89.5t-90 -215.5t90 -216t216 -90zM386 72q-117 0 -201 83.5t-84 201.5q0 117 84 199.5t201 82.5 t200.5 -82.5t83.5 -199.5q0 -118 -83.5 -201.5t-200.5 -83.5zM386 116q53 0 93.5 32t66.5 75q-156 -41 -320 0q26 -43 66.5 -75t93.5 -32zM216 238q169 -39 341 0l54 86h-450zM349 357h76l-38 91zM294 427q3 -4 18.5 3.5t14.5 10.5q-7 14 -22 54t-27 58q-4 5 -19.5 -2.5 t-28 -18t-10.5 -13.5zM480 427l72 92q2 3 -10.5 13.5t-27.5 18t-19 2.5q-11 -14 -19 -33t-15 -42.5t-13 -36.5q-3 -2 9 -9q17 -10 23 -5zM645 12v38h-15v11h41v-11h-15v-38h-11zM676 12v49h15l9 -38l9 38h14v-49h-9v38l-10 -38h-9l-10 38v-38h-9z" />
<glyph unicode="&#x203a;" d="M386 3q-146 0 -249.5 104t-103.5 250t103.5 250t249.5 104t250 -104t104 -250t-104 -250t-250 -104zM386 51q127 0 216 90t89 216t-89 215.5t-216 89.5q-126 0 -216 -89.5t-90 -215.5t90 -216t216 -90zM386 72q-117 0 -201 83.5t-84 201.5q0 117 84 199.5t201 82.5 t200.5 -82.5t83.5 -199.5q0 -118 -83.5 -201.5t-200.5 -83.5zM386 116q53 0 93.5 32t66.5 75q-156 -41 -320 0q26 -43 66.5 -75t93.5 -32zM216 238q169 -39 341 0l54 86h-450zM349 357h76l-38 91zM294 427q3 -4 18.5 3.5t14.5 10.5q-7 14 -22 54t-27 58q-4 5 -19.5 -2.5 t-28 -18t-10.5 -13.5zM480 427l72 92q2 3 -10.5 13.5t-27.5 18t-19 2.5q-11 -14 -19 -33t-15 -42.5t-13 -36.5q-3 -2 9 -9q17 -10 23 -5zM645 12v38h-15v11h41v-11h-15v-38h-11zM676 12v49h15l9 -38l9 38h14v-49h-9v38l-10 -38h-9l-10 38v-38h-9z" />
<glyph unicode="&#x20ac;" d="M386 3q-146 0 -249.5 104t-103.5 250t103.5 250t249.5 104t250 -104t104 -250t-104 -250t-250 -104zM386 51q127 0 216 90t89 216t-89 215.5t-216 89.5q-126 0 -216 -89.5t-90 -215.5t90 -216t216 -90zM386 72q-117 0 -201 83.5t-84 201.5q0 117 84 199.5t201 82.5 t200.5 -82.5t83.5 -199.5q0 -118 -83.5 -201.5t-200.5 -83.5zM386 116q53 0 93.5 32t66.5 75q-156 -41 -320 0q26 -43 66.5 -75t93.5 -32zM216 238q169 -39 341 0l54 86h-450zM349 357h76l-38 91zM294 427q3 -4 18.5 3.5t14.5 10.5q-7 14 -22 54t-27 58q-4 5 -19.5 -2.5 t-28 -18t-10.5 -13.5zM480 427l72 92q2 3 -10.5 13.5t-27.5 18t-19 2.5q-11 -14 -19 -33t-15 -42.5t-13 -36.5q-3 -2 9 -9q17 -10 23 -5zM645 12v38h-15v11h41v-11h-15v-38h-11zM676 12v49h15l9 -38l9 38h14v-49h-9v38l-10 -38h-9l-10 38v-38h-9z" />
<glyph unicode="&#x2122;" d="M386 3q-146 0 -249.5 104t-103.5 250t103.5 250t249.5 104t250 -104t104 -250t-104 -250t-250 -104zM386 51q127 0 216 90t89 216t-89 215.5t-216 89.5q-126 0 -216 -89.5t-90 -215.5t90 -216t216 -90zM386 72q-117 0 -201 83.5t-84 201.5q0 117 84 199.5t201 82.5 t200.5 -82.5t83.5 -199.5q0 -118 -83.5 -201.5t-200.5 -83.5zM386 116q53 0 93.5 32t66.5 75q-156 -41 -320 0q26 -43 66.5 -75t93.5 -32zM216 238q169 -39 341 0l54 86h-450zM349 357h76l-38 91zM294 427q3 -4 18.5 3.5t14.5 10.5q-7 14 -22 54t-27 58q-4 5 -19.5 -2.5 t-28 -18t-10.5 -13.5zM480 427l72 92q2 3 -10.5 13.5t-27.5 18t-19 2.5q-11 -14 -19 -33t-15 -42.5t-13 -36.5q-3 -2 9 -9q17 -10 23 -5zM645 12v38h-15v11h41v-11h-15v-38h-11zM676 12v49h15l9 -38l9 38h14v-49h-9v38l-10 -38h-9l-10 38v-38h-9z" />
<glyph unicode="&#x25fc;" horiz-adv-x="725" d="M0 725h725v-725h-725v725z" />
<glyph horiz-adv-x="200" />
</font>
</defs>
</svg>
